SplineFontDB: 3.0
FontName: NovaSquare
FullName: NovaSquare
FamilyName: NovaSquare
Weight: Regular
Copyright: wmk69 (wmk69@o2.pl)\nSIL Open Font License v.1.1
Version: 1.22
ItalicAngle: 0
UnderlinePosition: -81
UnderlineWidth: 122
Ascent: 1511
Descent: 537
LayerCount: 2
Layer: 0 1 "Warstwa t+AUIA-a"  1
Layer: 1 1 "Plan pierwszy"  0
XUID: [1021 783 23647091 14465850]
FSType: 0
OS2Version: 3
OS2_WeightWidthSlopeOnly: 0
OS2_UseTypoMetrics: 1
CreationTime: 1260698820
ModificationTime: 1306680214
PfmFamily: 33
TTFWeight: 500
TTFWidth: 5
LineGap: 0
VLineGap: 0
Panose: 2 12 6 4 2 2 2 8 2 4
OS2TypoAscent: 2064
OS2TypoAOffset: 0
OS2TypoDescent: -486
OS2TypoDOffset: 0
OS2TypoLinegap: 0
OS2WinAscent: 2064
OS2WinAOffset: 0
OS2WinDescent: 486
OS2WinDOffset: 0
HheadAscent: 2064
HheadAOffset: 0
HheadDescent: -486
HheadDOffset: 0
OS2SubXSize: 1434
OS2SubYSize: 1331
OS2SubXOff: 0
OS2SubYOff: 287
OS2SupXSize: 1434
OS2SupYSize: 1331
OS2SupXOff: 0
OS2SupYOff: 977
OS2StrikeYSize: 102
OS2StrikeYPos: 512
OS2Vendor: '    '
OS2CodePages: 20000093.00000000
OS2UnicodeRanges: 8000002f.4000204b.00000000.00000000
Lookup: 258 0 0 "'kern' Kerning poziomy w tablicy 0"  {"Podtablica 'kern' Kerning poziomy w tablicy 0"  } ['kern' ('DFLT' <'dflt' > 'grek' <'dflt' > 'latn' <'dflt' > ) ]
DEI: 91125
KernClass2: 28 18 "Podtablica 'kern' Kerning poziomy w tablicy 0" 
 352 A C G M N O Q S Agrave Aacute Acircumflex Atilde Adieresis Aring Ccedilla Ntilde Ograve Oacute Ocircumflex Otilde Odieresis Oslash Amacron Abreve Aogonek Cacute Ccircumflex Cdotaccent Ccaron Gcircumflex Gbreve Gdotaccent Gcommaaccent Nacute Ncommaaccent Ncaron Eng Omacron Obreve Ohungarumlaut OE Sacute Scircumflex Scedilla Scaron uni01E4 Scommaaccent
 12 B germandbls
 19 D Eth Dcaron Dcroat
 83 E F AE Egrave Eacute Ecircumflex Edieresis Emacron Ebreve Edotaccent Eogonek Ecaron

StartChar: .notdef
Encoding: 65536 -1 0
Width: 844
Flags: W
HStem: 0 68<218 626> 1297 68<218 626>
VStem: 150 68<68 1297> 626 68<68 1297>
LayerCount: 2
Fore
SplineSet
150 0 m 1,0,-1
 150 1365 l 1,1,-1
 694 1365 l 1,2,-1
 694 0 l 1,3,-1
 150 0 l 1,0,-1
218 68 m 1,4,-1
 626 68 l 1,5,-1
 626 1297 l 1,6,-1
 218 1297 l 1,7,-1
 218 68 l 1,4,-1
EndSplineSet
Validated: 1
EndChar

StartChar: exclam
Encoding: 33 33 4
Width: 600
GlyphClass: 2
Flags: W
HStem: 0 264<209.191 390.809> 1491 20G<347.056 392.108>
VStem: 170 260<39.7072 224.293> 200 198<404 1422>
LayerCount: 2
Fore
SplineSet
170 132 m 128,-1,1
 170 187 170 187 208 225.5 c 128,-1,2
 246 264 246 264 300 264 c 128,-1,3
 354 264 354 264 392 225.5 c 128,-1,4
 430 187 430 187 430 132 c 128,-1,5
 430 77 430 77 392 38.5 c 128,-1,6
 354 0 354 0 300 0 c 128,-1,7
 246 0 246 0 208 38.5 c 128,-1,0
 170 77 170 77 170 132 c 128,-1,1
192 1422 m 1,8,-1
 392 1511 l 1,9,-1
 398 404 l 1,10,-1
 200 312 l 1,11,-1
 192 1422 l 1,8,-1
EndSplineSet
Validated: 16385
EndChar

StartChar: quotedbl
Encoding: 34 34 5
Width: 829
GlyphClass: 2
Flags: W
HStem: 927 585
VStem: 150 206<1028 1410> 473 206<1029 1411>
LayerCount: 2
Fore
SplineSet
679 1512 m 1,0,-1
 679 1029 l 1,1,-1
 473 927 l 1,2,-1
 473 1411 l 1,3,-1
 679 1512 l 1,0,-1
356 1511 m 1,4,-1
 356 1028 l 1,5,-1
 150 926 l 1,6,-1
 150 1410 l 1,7,-1
 356 1511 l 1,4,-1
EndSplineSet
Validated: 16385
EndChar

StartChar: numbersign
Encoding: 35 35 6
Width: 1355
GlyphClass: 2
Flags: W
HStem: 494 198<241 416 614 742 940 1113> 820 198<240 415 613 741 939 1112>
VStem: 416 198<319 494 692 820 1018 1191> 742 198<318 493 691 819 1017 1190>
LayerCount: 2
Fore
SplineSet
614 319 m 1,0,-1
 416 229 l 1,1,-1
 416 494 l 1,2,-1
 151 494 l 1,3,-1
 241 692 l 1,4,-1
 416 692 l 1,5,-1
 415 820 l 1,6,-1
 150 820 l 1,7,-1
 240 1018 l 1,8,-1
 415 1018 l 1,9,-1
 415 1191 l 1,10,-1
 613 1283 l 1,11,-1
 613 1018 l 1,12,-1
 741 1017 l 1,13,-1
 741 1190 l 1,14,-1
 939 1282 l 1,15,-1
 939 1017 l 1,16,-1
 1204 1017 l 1,17,-1
 1112 819 l 1,18,-1
 939 819 l 1,19,-1
 940 691 l 1,20,-1
 1205 691 l 1,21,-1
 1113 493 l 1,22,-1
 940 493 l 1,23,-1
 940 318 l 1,24,-1
 742 228 l 1,25,-1
 742 493 l 1,26,-1
 614 494 l 1,27,-1
 614 319 l 1,0,-1
614 692 m 1,28,-1
 742 691 l 1,29,-1
 741 819 l 1,30,-1
 613 820 l 1,31,-1
 614 692 l 1,28,-1
EndSplineSet
Validated: 16385
EndChar

StartChar: dollar
Encoding: 36 36 7
Width: 1263
GlyphClass: 2
Flags: W
HStem: 20 198<233 538> 1292 199<736 981>
VStem: 172 205<976.384 1167> 538 197<-108 21 235 725 954 1268 1491 1592> 909 204<339.265 697.746>
DStem2: 417 976 424 780 0.984077 -0.177741<-47.4888 122.984 357.55 541.326>
LayerCount: 2
Fore
SplineSet
909 528 m 1,0,-1
 909 644 l 2,1,2
 909 694 909 694 865 702 c 2,3,-1
 735 725 l 1,4,-1
 735 235 l 1,5,6
 793 253 793 253 830 292 c 0,7,8
 907 373 907 373 909 514 c 1,9,-1
 909 528 l 1,0,-1
735 -108 m 1,10,-1
 538 -200 l 1,11,-1
 538 21 l 1,12,-1
 140 20 l 1,13,-1
 233 218 l 1,14,-1
 538 218 l 1,15,-1
 538 760 l 1,16,-1
 424 780 l 1,17,18
 188 819 188 819 172 992 c 1,19,-1
 172 1077 l 2,20,21
 172 1197 172 1197 316 1346 c 0,22,23
 411 1444 411 1444 538 1476 c 1,24,-1
 538 1592 l 1,25,-1
 736 1681 l 1,26,-1
 736 1491 l 1,27,-1
 1075 1491 l 1,28,-1
 981 1291 l 1,29,-1
 736 1292 l 1,30,-1
 736 918 l 1,31,-1
 871 894 l 2,32,33
 1098 853 1098 853 1113 682 c 1,34,-1
 1113 524 l 1,35,-1
 1113 508 l 1,36,37
 1110 305 1110 305 971 166 c 0,38,39
 868 63 868 63 735 33 c 1,40,-1
 735 -108 l 1,10,-1
538 954 m 1,41,-1
 538 1268 l 1,42,43
 493 1249 493 1249 461 1215 c 0,44,45
 377 1126 377 1126 377 1076 c 2,46,-1
 377 1035 l 2,47,48
 377 988 377 988 417 976 c 1,49,-1
 538 954 l 1,41,-1
EndSplineSet
Validated: 16385
EndChar

StartChar: percent
Encoding: 37 37 8
Width: 1734
GlyphClass: 2
Flags: W
HStem: 0 162<1160.09 1395.91> 498 162<1160.09 1395.91> 852 162<338.087 573.913> 1350 162<338.087 573.913>
VStem: 120 162<1069.54 1294.46> 630 162<1069.54 1294.46> 942 162<217.542 442.458> 1452 162<217.542 442.458>
DStem2: 320 -132 492 -230 0.435992 0.899951<0 1989.13>
LayerCount: 2
Fore
SplineSet
1104 330 m 128,-1,1
 1104 260 1104 260 1155 211 c 128,-1,2
 1206 162 1206 162 1278 162 c 128,-1,3
 1350 162 1350 162 1401 211 c 128,-1,4
 1452 260 1452 260 1452 330 c 128,-1,5
 1452 400 1452 400 1401 449 c 128,-1,6
 1350 498 1350 498 1278 498 c 128,-1,7
 1206 498 1206 498 1155 449 c 128,-1,0
 1104 400 1104 400 1104 330 c 128,-1,1
942 330 m 128,-1,9
 942 467 942 467 1040.5 563.5 c 128,-1,10
 1139 660 1139 660 1278 660 c 128,-1,11
 1417 660 1417 660 1515.5 563.5 c 128,-1,12
 1614 467 1614 467 1614 330 c 128,-1,13
 1614 193 1614 193 1515.5 96.5 c 128,-1,14
 1417 0 1417 0 1278 0 c 128,-1,15
 1139 0 1139 0 1040.5 96.5 c 128,-1,8
 942 193 942 193 942 330 c 128,-1,9
282 1182 m 128,-1,17
 282 1112 282 1112 333 1063 c 128,-1,18
 384 1014 384 1014 456 1014 c 128,-1,19
 528 1014 528 1014 579 1063 c 128,-1,20
 630 1112 630 1112 630 1182 c 128,-1,21
 630 1252 630 1252 579 1301 c 128,-1,22
 528 1350 528 1350 456 1350 c 128,-1,23
 384 1350 384 1350 333 1301 c 128,-1,16
 282 1252 282 1252 282 1182 c 128,-1,17
120 1182 m 128,-1,25
 120 1319 120 1319 218.5 1415.5 c 128,-1,26
 317 1512 317 1512 456 1512 c 128,-1,27
 595 1512 595 1512 693.5 1415.5 c 128,-1,28
 792 1319 792 1319 792 1182 c 128,-1,29
 792 1045 792 1045 693.5 948.5 c 128,-1,30
 595 852 595 852 456 852 c 128,-1,31
 317 852 317 852 218.5 948.5 c 128,-1,24
 120 1045 120 1045 120 1182 c 128,-1,25
320 -132 m 1,32,-1
 1186 1660 l 1,33,-1
 1365 1572 l 1,34,-1
 492 -230 l 1,35,-1
 320 -132 l 1,32,-1
EndSplineSet
Validated: 16385
EndChar

StartChar: ampersand
Encoding: 38 38 9
Width: 1641
GlyphClass: 2
Flags: W
HStem: 744 197<511.625 681> 1311 179<525.833 866>
VStem: 150 192<343.872 631.519> 262 196<996.5 1246.21>
DStem2: 662 208 751 20 0.653988 0.756505<0 339.179 549.629 997.498> 1145 490 1021 346 0.63408 -0.773268<-490.623 -174.573 32.7247 467.255>
LayerCount: 2
Fore
SplineSet
770 940 m 1,0,-1
 1027 619 l 1,1,-1
 1322 956 l 1,2,-1
 1491 876 l 1,3,-1
 1145 490 l 1,4,-1
 1467 90 l 1,5,-1
 1288 3 l 1,6,-1
 1021 346 l 1,7,-1
 751 20 l 1,8,-1
 634 21 l 2,9,10
 436 23 436 23 283 172 c 0,11,12
 150 301 150 301 150 483 c 0,13,14
 150 653 150 653 273 796 c 0,15,16
 310 839 310 839 366 874 c 1,17,-1
 348 893 l 1,18,19
 262 989 262 989 262 1115 c 0,20,21
 262 1251 262 1251 348 1353 c 0,22,23
 449 1473 449 1473 668 1490 c 1,24,-1
 948 1491 l 1,25,-1
 866 1311 l 1,26,-1
 673 1311 l 2,27,28
 527 1311 527 1311 478 1211 c 0,29,30
 458 1170 458 1170 458 1113 c 2,31,-1
 458 1103 l 2,32,33
 458 1074 458 1074 486 1020 c 0,34,35
 527 941 527 941 650 941 c 2,36,-1
 653 941 l 1,37,-1
 770 940 l 1,0,-1
681 744 m 1,38,-1
 629 744 l 2,39,40
 473 744 473 744 414 672 c 0,41,42
 342 584 342 584 342 496 c 2,43,-1
 342 493 l 2,44,45
 342 378 342 378 422 303 c 1,46,47
 502 237 502 237 635 210 c 1,48,-1
 662 208 l 1,49,-1
 906 493 l 1,50,-1
 681 744 l 1,38,-1
EndSplineSet
Validated: 16385
EndChar

StartChar: quotesingle
Encoding: 39 39 10
Width: 506
GlyphClass: 2
Flags: W
HStem: 926 585
VStem: 150 206<1028 1410>
LayerCount: 2
Fore
SplineSet
356 1511 m 1,0,-1
 356 1028 l 1,1,-1
 150 926 l 1,2,-1
 150 1410 l 1,3,-1
 356 1511 l 1,0,-1
EndSplineSet
Validated: 1
EndChar

StartChar: parenleft
Encoding: 40 40 11
Width: 740
GlyphClass: 2
Flags: W
VStem: 150 189<355.591 1077.12>
DStem2: 360 1537 546 1477 0.467888 0.883788<-395.514 235.16> 546 -48 360 -108 0.480011 -0.877262<-399.366 205.015>
LayerCount: 2
Fore
SplineSet
150 714 m 0,0,1
 150 940 150 940 217 1192 c 0,2,3
 259 1348 259 1348 360 1537 c 2,4,-1
 387 1588 l 1,5,6
 414 1636 414 1636 480 1744 c 1,7,-1
 660 1659 l 1,8,9
 588 1566 588 1566 570 1528 c 1,10,11
 567 1514 567 1514 546 1477 c 0,12,13
 475 1352 475 1352 402 1138 c 0,14,15
 339 953 339 953 339 717 c 0,16,17
 339 497 339 497 402 291 c 0,18,19
 454 121 454 121 546 -48 c 0,20,21
 566 -85 566 -85 570 -99 c 1,22,23
 579 -118 579 -118 651 -237 c 1,24,-1
 476 -320 l 1,25,26
 408 -202 408 -202 387 -159 c 0,27,28
 383 -151 383 -151 360 -108 c 0,29,30
 275 50 275 50 217 238 c 0,31,32
 150 453 150 453 150 714 c 0,0,1
EndSplineSet
Validated: 16385
EndChar

StartChar: parenright
Encoding: 41 41 12
Width: 740
GlyphClass: 2
Flags: W
VStem: 401 189<355.591 1077.12>
DStem2: 89 -237 264 -320 0.480011 0.877262<11.1892 622.114> 353 1588 170 1528 0.467888 -0.883788<-177.454 445.27>
LayerCount: 2
Fore
SplineSet
590 714 m 0,0,1
 590 453 590 453 523 238 c 0,2,3
 465 50 465 50 380 -108 c 0,4,5
 357 -151 357 -151 353 -159 c 0,6,7
 332 -202 332 -202 264 -320 c 1,8,-1
 89 -237 l 1,9,10
 161 -118 161 -118 170 -99 c 1,11,12
 174 -85 174 -85 194 -48 c 0,13,14
 286 121 286 121 338 291 c 0,15,16
 401 497 401 497 401 717 c 0,17,18
 401 953 401 953 338 1138 c 0,19,20
 265 1352 265 1352 194 1477 c 0,21,22
 173 1514 173 1514 170 1528 c 1,23,24
 152 1566 152 1566 80 1659 c 1,25,-1
 260 1744 l 1,26,27
 326 1636 326 1636 353 1588 c 1,28,-1
 380 1537 l 2,29,30
 481 1348 481 1348 523 1192 c 0,31,32
 590 940 590 940 590 714 c 0,0,1
EndSplineSet
Validated: 16385
EndChar

StartChar: asterisk
Encoding: 42 42 13
Width: 1198
GlyphClass: 2
Flags: W
HStem: 1492 20G<654.957 698>
VStem: 500 198<679 879 1222 1420>
DStem2: 329 1321 150 1196 0.865645 -0.500658<0 197.59 540.8 740.536> 150 905 327 779 0.865645 0.500658<90.1364 289.872 633.082 831.538>
LayerCount: 2
Fore
SplineSet
698 679 m 1,0,-1
 500 589 l 1,1,-1
 500 879 l 1,2,-1
 327 779 l 1,3,-1
 150 905 l 1,4,-1
 401 1050 l 1,5,-1
 150 1196 l 1,6,-1
 329 1321 l 1,7,-1
 500 1222 l 1,8,-1
 500 1420 l 1,9,-1
 698 1512 l 1,10,-1
 698 1222 l 1,11,-1
 870 1321 l 1,12,-1
 1048 1196 l 1,13,-1
 797 1050 l 1,14,-1
 1048 905 l 1,15,-1
 871 779 l 1,16,-1
 698 879 l 1,17,-1
 698 679 l 1,0,-1
EndSplineSet
Validated: 16385
EndChar

StartChar: plus
Encoding: 43 43 14
Width: 1083
GlyphClass: 2
Flags: W
HStem: 600 198<170 442 640 911>
VStem: 442 198<328 600 798 1068>
LayerCount: 2
Fore
SplineSet
640 328 m 1,0,-1
 442 238 l 1,1,-1
 442 600 l 1,2,-1
 80 600 l 1,3,-1
 170 798 l 1,4,-1
 442 798 l 1,5,-1
 442 1068 l 1,6,-1
 640 1160 l 1,7,-1
 640 798 l 1,8,-1
 1003 798 l 1,9,-1
 911 600 l 1,10,-1
 640 600 l 1,11,-1
 640 328 l 1,0,-1
EndSplineSet
Validated: 1
EndChar

StartChar: comma
Encoding: 44 44 15
Width: 608
GlyphClass: 2
Flags: W
HStem: -262 542
VStem: 110 348
DStem2: 110 -177 299 -262 0.328601 0.944469<0 464.751>
LayerCount: 2
Fore
SplineSet
299 -262 m 1,0,-1
 110 -177 l 1,1,-1
 269 280 l 1,2,-1
 458 194 l 1,3,-1
 299 -262 l 1,0,-1
EndSplineSet
Validated: 16385
EndChar

StartChar: hyphen
Encoding: 45 45 16
Width: 1083
GlyphClass: 2
Flags: W
HStem: 600 198<170 911>
LayerCount: 2
Fore
SplineSet
170 798 m 1,0,-1
 1003 798 l 1,1,-1
 911 600 l 1,2,-1
 80 600 l 1,3,-1
 170 798 l 1,0,-1
EndSplineSet
Validated: 1
EndChar

StartChar: period
Encoding: 46 46 17
Width: 560
GlyphClass: 2
Flags: W
HStem: 0 264<189.191 370.809>
VStem: 150 260<39.7072 224.293>
LayerCount: 2
Fore
SplineSet
150 132 m 128,-1,1
 150 187 150 187 188 225.5 c 128,-1,2
 226 264 226 264 280 264 c 128,-1,3
 334 264 334 264 372 225.5 c 128,-1,4
 410 187 410 187 410 132 c 128,-1,5
 410 77 410 77 372 38.5 c 128,-1,6
 334 0 334 0 280 0 c 128,-1,7
 226 0 226 0 188 38.5 c 128,-1,0
 150 77 150 77 150 132 c 128,-1,1
EndSplineSet
Validated: 1
EndChar

StartChar: slash
Encoding: 47 47 18
Width: 1065
GlyphClass: 2
Flags: W
DStem2: 10 -132 189 -216 0.435903 0.899994<2.42717 1984.44>
LayerCount: 2
Fore
SplineSet
10 -132 m 1,0,-1
 875 1654 l 1,1,-1
 1055 1572 l 1,2,-1
 189 -216 l 1,3,-1
 10 -132 l 1,0,-1
EndSplineSet
Validated: 1
EndChar

StartChar: zero
Encoding: 48 48 19
Width: 1287
GlyphClass: 2
Flags: W
HStem: 0 192<492.447 799.768> 1325 186<490.32 800.569>
VStem: 150 198<338.944 1178.62> 936 201<330.912 1184.21>
LayerCount: 2
Fore
SplineSet
633 1325 m 0,0,1
 520 1325 520 1325 435 1235 c 0,2,3
 347 1141 347 1141 347 1011 c 2,4,-1
 348 500 l 2,5,6
 348 377 348 377 434 284.5 c 128,-1,7
 520 192 520 192 642 192 c 0,8,9
 771 192 771 192 858 284 c 0,10,11
 933 363 933 363 936 500 c 1,12,-1
 935 1011 l 2,13,14
 935 1149 935 1149 859 1231 c 1,15,16
 778 1325 778 1325 633 1325 c 0,0,1
150 494 m 2,17,-1
 150 1017 l 2,18,19
 150 1221 150 1221 294.5 1366 c 128,-1,20
 439 1511 439 1511 643 1511 c 128,-1,21
 847 1511 847 1511 992 1366 c 256,22,23
 1137 1221 1137 1221 1137 1017 c 2,24,-1
 1137 494 l 1,25,26
 1134 287 1134 287 993 145 c 0,27,28
 848 0 848 0 644 0 c 128,-1,29
 440 0 440 0 295 145 c 128,-1,30
 150 290 150 290 150 494 c 2,17,-1
EndSplineSet
Validated: 16385
EndChar

StartChar: one
Encoding: 49 49 20
Width: 768
GlyphClass: 2
Flags: W
HStem: 0 21G<320 363.043>
VStem: 320 198<92 1219>
LayerCount: 2
Fore
SplineSet
518 92 m 1,0,-1
 320 0 l 1,1,-1
 320 1219 l 1,2,-1
 96 1115 l 1,3,-1
 10 1282 l 1,4,-1
 518 1514 l 1,5,-1
 518 92 l 1,0,-1
EndSplineSet
Validated: 1
EndChar

StartChar: two
Encoding: 50 50 21
Width: 1294
GlyphClass: 2
Flags: W
HStem: 20 196<354 1060> 616 196<359.684 883.743> 1295 197<237 769.156>
VStem: 150 204<216 613.043> 888 204<810.68 1174.13>
LayerCount: 2
Fore
SplineSet
150 20 m 1,0,-1
 150 600 l 1,1,2
 166 812 166 812 402 812 c 1,3,-1
 844 810 l 2,4,5
 888 810 888 810 888 868 c 2,6,-1
 888 985 l 1,7,-1
 888 999 l 1,8,9
 886 1141 886 1141 809 1221 c 0,10,11
 739 1294 739 1294 594 1295 c 2,12,-1
 151 1299 l 1,13,-1
 237 1491 l 1,14,-1
 601 1492 l 1,15,16
 601 1492 601 1492 604 1492 c 0,17,18
 805 1492 805 1492 950 1347 c 0,19,20
 1089 1208 1089 1208 1092 1005 c 1,21,-1
 1092 989 l 1,22,-1
 1092 830 l 1,23,24
 1074 619 1074 619 850 618 c 2,25,-1
 395 616 l 1,26,27
 355 612 355 612 355 557 c 2,28,-1
 354 216 l 1,29,-1
 1144 216 l 1,30,-1
 1060 20 l 1,31,-1
 150 20 l 1,0,-1
EndSplineSet
Validated: 16385
EndChar

StartChar: three
Encoding: 51 51 22
Width: 1273
GlyphClass: 2
Flags: W
HStem: 20 198<243 802.709> 702 190<724 914.743> 1307 184<263 786>
VStem: 919 204<338.875 701.409>
DStem2: 396 700 724 892 0.540547 0.841314<338.832 721.491>
LayerCount: 2
Fore
SplineSet
881 894 m 1,0,1
 1105 894 1105 894 1123 682 c 1,2,-1
 1123 524 l 1,3,-1
 1123 508 l 1,4,5
 1120 305 1120 305 981 166 c 0,6,7
 836 21 836 21 632 21 c 2,8,-1
 150 20 l 1,9,-1
 243 218 l 1,10,-1
 625 218 l 2,11,12
 769 218 769 218 840 292 c 0,13,14
 917 372 917 372 919 514 c 1,15,-1
 919 528 l 1,16,-1
 919 644 l 2,17,18
 919 702 919 702 875 702 c 2,19,-1
 396 700 l 1,20,-1
 786 1307 l 1,21,-1
 177 1307 l 1,22,-1
 263 1491 l 1,23,-1
 1121 1491 l 1,24,-1
 724 892 l 1,25,-1
 881 894 l 1,0,1
EndSplineSet
Validated: 16385
EndChar

StartChar: four
Encoding: 52 52 23
Width: 1211
GlyphClass: 2
Flags: W
HStem: 0 21G<737.945 781.111> 367 186<346 736 933 1020> 1491 20G<886.419 932>
VStem: 736 196<90 366 554 1113>
LayerCount: 2
Fore
SplineSet
737 366 m 1,0,-1
 50 367 l 1,1,-1
 140 567 l 1,2,-1
 736 1425 l 1,3,-1
 932 1511 l 1,4,-1
 932 554 l 1,5,-1
 1111 557 l 1,6,-1
 1020 369 l 1,7,-1
 933 369 l 1,8,-1
 932 90 l 1,9,-1
 738 0 l 1,10,-1
 737 366 l 1,0,-1
346 553 m 1,11,-1
 736 553 l 1,12,-1
 736 1113 l 1,13,-1
 346 553 l 1,11,-1
EndSplineSet
Validated: 16385
EndChar

StartChar: five
Encoding: 53 53 24
Width: 1273
GlyphClass: 2
Flags: W
HStem: 20 198<243 802.709> 702 192<422 914.743> 1309 182<421 977>
VStem: 234 188<894 1305> 919 204<338.875 701.409>
LayerCount: 2
Fore
SplineSet
422 894 m 1,0,-1
 881 894 l 2,1,2
 1105 894 1105 894 1123 682 c 1,3,-1
 1123 524 l 1,4,-1
 1123 508 l 1,5,6
 1120 305 1120 305 981 166 c 0,7,8
 836 21 836 21 632 21 c 2,9,-1
 150 20 l 1,10,-1
 243 218 l 1,11,-1
 625 218 l 2,12,13
 769 218 769 218 840 292 c 0,14,15
 917 372 917 372 919 514 c 1,16,-1
 919 528 l 1,17,-1
 919 644 l 2,18,19
 919 702 919 702 875 702 c 2,20,-1
 234 702 l 1,21,22
 234 702 234 702 235 1491 c 1,23,-1
 1047 1491 l 1,24,-1
 977 1309 l 1,25,-1
 421 1305 l 1,26,-1
 422 894 l 1,0,-1
EndSplineSet
Validated: 16385
EndChar

StartChar: six
Encoding: 54 54 25
Width: 1283
GlyphClass: 2
Flags: W
HStem: 0 197<491.432 793.443> 705 191<357 924.743> 1292 199<482.376 960>
VStem: 150 204<336.748 705 896 1158.62> 929 204<330.547 702.409>
LayerCount: 2
Fore
SplineSet
354 896 m 1,0,-1
 891 895 l 2,1,2
 1115 895 1115 895 1133 683 c 1,3,-1
 1133 505 l 1,4,-1
 1133 477 l 2,5,6
 1133 287 1133 287 992 145 c 0,7,8
 847 0 847 0 643 0 c 128,-1,9
 439 0 439 0 294 145 c 0,10,11
 163 276 163 276 150 453 c 1,12,-1
 150 997 l 2,13,14
 150 1201 150 1201 295 1346 c 256,15,16
 440 1491 440 1491 644 1491 c 2,17,-1
 1054 1491 l 1,18,-1
 960 1291 l 1,19,-1
 649 1292 l 2,20,21
 517 1292 517 1292 440 1215 c 0,22,23
 354 1129 354 1129 354 996 c 2,24,-1
 354 896 l 1,0,-1
357 705 m 1,25,-1
 358 500 l 2,26,27
 359 368 359 368 436 286 c 1,28,29
 522 197 522 197 644 197 c 0,30,31
 757 197 757 197 851 287 c 0,32,33
 929 362 929 362 929 505 c 2,34,-1
 929 509 l 1,35,-1
 929 645 l 2,36,37
 929 703 929 703 885 703 c 2,38,-1
 357 705 l 1,25,-1
EndSplineSet
Validated: 16385
EndChar

StartChar: seven
Encoding: 55 55 26
Width: 1051
GlyphClass: 2
Flags: W
HStem: 0 21G<139.021 173.793> 1297 194<145 715>
DStem2: 130 0 384 116 0.425765 0.904834<213.105 1422.64>
LayerCount: 2
Fore
SplineSet
384 116 m 1,0,-1
 130 0 l 1,1,-1
 715 1297 l 1,2,-1
 50 1293 l 1,3,-1
 145 1489 l 1,4,-1
 1031 1491 l 1,5,-1
 384 116 l 1,0,-1
EndSplineSet
Validated: 16385
EndChar

StartChar: eight
Encoding: 56 56 27
Width: 1283
GlyphClass: 2
Flags: W
HStem: 0 197<491.432 811.098> 702 192<504.87 759.444> 1320 191<506.365 758.113>
VStem: 150 209<331.722 697.277> 236 188<975.832 1238.72> 840 180<975.657 1238.72> 929 204<314.668 699.269>
LayerCount: 2
Fore
SplineSet
359 498 m 2,0,1
 359 369 359 369 436 286 c 1,2,3
 522 197 522 197 644 197 c 0,4,5
 776 197 776 197 860 280 c 1,6,7
 929 357 929 357 929 509 c 2,8,-1
 929 645 l 2,9,10
 929 703 929 703 885 703 c 2,11,-1
 648 702 l 1,12,-1
 411 702 l 2,13,14
 359 702 359 702 359 642 c 2,15,-1
 359 498 l 2,0,1
236 1105 m 0,16,17
 236 1273 236 1273 350.5 1392 c 128,-1,18
 465 1511 465 1511 628 1511 c 128,-1,19
 791 1511 791 1511 905.5 1392 c 128,-1,20
 1020 1273 1020 1273 1020 1105 c 0,21,22
 1020 984 1020 984 961 889 c 1,23,24
 1118 860 1118 860 1133 683 c 1,25,-1
 1133 505 l 1,26,-1
 1133 477 l 2,27,28
 1133 287 1133 287 992 145 c 0,29,30
 847 0 847 0 643 0 c 128,-1,31
 439 0 439 0 294 145 c 0,32,33
 163 276 163 276 150 453 c 1,34,-1
 150 682 l 2,35,36
 150 848 150 848 299 884 c 1,37,38
 236 981 236 981 236 1105 c 0,16,17
424 1107 m 128,-1,40
 424 1019 424 1019 485 956 c 0,41,42
 541 899 541 899 618 894 c 1,43,-1
 647 895 l 1,44,45
 724 900 724 900 779 956 c 0,46,47
 840 1019 840 1019 840 1107 c 128,-1,48
 840 1195 840 1195 779 1257.5 c 128,-1,49
 718 1320 718 1320 632 1320 c 128,-1,50
 546 1320 546 1320 485 1257.5 c 128,-1,39
 424 1195 424 1195 424 1107 c 128,-1,40
EndSplineSet
Validated: 16385
EndChar

StartChar: nine
Encoding: 57 57 28
Width: 1283
GlyphClass: 2
Flags: W
HStem: 20 200<323 800.624> 615 192<358.257 926> 1313 197<489.557 791.568>
VStem: 150 204<807.591 1179.45> 929 204<352.376 614 805 1173.25>
LayerCount: 2
Fore
SplineSet
929 614 m 1,0,-1
 392 615 l 2,1,2
 168 615 168 615 150 827 c 1,3,-1
 150 1005 l 1,4,-1
 150 1033 l 2,5,6
 150 1223 150 1223 291 1365 c 0,7,8
 436 1510 436 1510 640 1510 c 128,-1,9
 844 1510 844 1510 989 1365 c 0,10,11
 1120 1234 1120 1234 1133 1057 c 1,12,-1
 1133 514 l 2,13,14
 1133 310 1133 310 988 165 c 256,15,16
 843 20 843 20 639 20 c 2,17,-1
 229 20 l 1,18,-1
 323 220 l 1,19,-1
 634 219 l 2,20,21
 766 219 766 219 843 296 c 0,22,23
 929 382 929 382 929 515 c 2,24,-1
 929 614 l 1,0,-1
926 805 m 1,25,-1
 925 1010 l 2,26,27
 924 1142 924 1142 847 1224 c 1,28,29
 761 1313 761 1313 639 1313 c 0,30,31
 526 1313 526 1313 432 1223 c 0,32,33
 354 1148 354 1148 354 1005 c 0,34,35
 354 1003 354 1003 354 1001 c 2,36,-1
 354 865 l 2,37,38
 354 807 354 807 398 807 c 2,39,-1
 926 805 l 1,25,-1
EndSplineSet
Validated: 16385
EndChar

StartChar: colon
Encoding: 58 58 29
Width: 562
GlyphClass: 2
Flags: W
HStem: 0 264<191.191 372.809> 554 264<189.191 370.809>
VStem: 152 260<39.7072 224.293 593.707 778.293>
LayerCount: 2
Fore
SplineSet
152 132 m 128,-1,1
 152 187 152 187 190 225.5 c 128,-1,2
 228 264 228 264 282 264 c 128,-1,3
 336 264 336 264 374 225.5 c 128,-1,4
 412 187 412 187 412 132 c 128,-1,5
 412 77 412 77 374 38.5 c 128,-1,6
 336 0 336 0 282 0 c 128,-1,7
 228 0 228 0 190 38.5 c 128,-1,0
 152 77 152 77 152 132 c 128,-1,1
150 686 m 128,-1,9
 150 741 150 741 188 779.5 c 128,-1,10
 226 818 226 818 280 818 c 128,-1,11
 334 818 334 818 372 779.5 c 128,-1,12
 410 741 410 741 410 686 c 128,-1,13
 410 631 410 631 372 592.5 c 128,-1,14
 334 554 334 554 280 554 c 128,-1,15
 226 554 226 554 188 592.5 c 128,-1,8
 150 631 150 631 150 686 c 128,-1,9
EndSplineSet
Validated: 16385
EndChar

StartChar: semicolon
Encoding: 59 59 30
Width: 628
GlyphClass: 2
Flags: W
HStem: 552 264<239.191 420.809>
VStem: 200 260<591.707 776.293>
DStem2: 110 -177 299 -262 0.328601 0.944469<0 464.751>
LayerCount: 2
Fore
SplineSet
299 -262 m 1,0,-1
 110 -177 l 1,1,-1
 269 280 l 1,2,-1
 458 194 l 1,3,-1
 299 -262 l 1,0,-1
200 684 m 128,-1,5
 200 739 200 739 238 777.5 c 128,-1,6
 276 816 276 816 330 816 c 128,-1,7
 384 816 384 816 422 777.5 c 128,-1,8
 460 739 460 739 460 684 c 128,-1,9
 460 629 460 629 422 590.5 c 128,-1,10
 384 552 384 552 330 552 c 128,-1,11
 276 552 276 552 238 590.5 c 128,-1,4
 200 629 200 629 200 684 c 128,-1,5
EndSplineSet
Validated: 16385
EndChar

StartChar: less
Encoding: 60 60 31
Width: 1139
GlyphClass: 2
Flags: W
DStem2: 416 675 80 599 0.889737 -0.456474<0 633.462>
LayerCount: 2
Fore
SplineSet
156 767 m 1,0,-1
 906 1220 l 1,1,-1
 989 1038 l 1,2,-1
 416 675 l 1,3,-1
 972 371 l 1,4,-1
 885 186 l 1,5,-1
 80 599 l 1,6,-1
 156 767 l 1,0,-1
EndSplineSet
Validated: 16385
EndChar

StartChar: equal
Encoding: 61 61 32
Width: 1084
GlyphClass: 2
Flags: W
HStem: 436 198<171 912> 762 198<170 911>
LayerCount: 2
Fore
SplineSet
170 960 m 1,0,-1
 1003 960 l 1,1,-1
 911 762 l 1,2,-1
 80 762 l 1,3,-1
 170 960 l 1,0,-1
171 634 m 1,4,-1
 1004 634 l 1,5,-1
 912 436 l 1,6,-1
 81 436 l 1,7,-1
 171 634 l 1,4,-1
EndSplineSet
Validated: 1
EndChar

StartChar: greater
Encoding: 62 62 33
Width: 1139
GlyphClass: 2
Flags: W
DStem2: 150 368 233 186 0.855979 0.517011<0 678.151>
LayerCount: 2
Fore
SplineSet
983 639 m 1,0,-1
 233 186 l 1,1,-1
 150 368 l 1,2,-1
 723 731 l 1,3,-1
 167 1035 l 1,4,-1
 254 1220 l 1,5,-1
 1059 807 l 1,6,-1
 983 639 l 1,0,-1
EndSplineSet
Validated: 16385
EndChar

StartChar: question
Encoding: 63 63 34
Width: 1287
GlyphClass: 2
Flags: W
HStem: 0 264<517.191 698.809> 1329 185<481.13 810.816>
VStem: 150 202<1002 1192.77> 478 260<39.7072 224.293> 940 196<970 1188.11>
LayerCount: 2
Fore
SplineSet
478 132 m 128,-1,1
 478 187 478 187 516 225.5 c 128,-1,2
 554 264 554 264 608 264 c 128,-1,3
 662 264 662 264 700 225.5 c 128,-1,4
 738 187 738 187 738 132 c 128,-1,5
 738 77 738 77 700 38.5 c 128,-1,6
 662 0 662 0 608 0 c 128,-1,7
 554 0 554 0 516 38.5 c 128,-1,0
 478 77 478 77 478 132 c 128,-1,1
150 1021 m 1,8,9
 150 1223 150 1223 295 1370 c 1,10,11
 440 1514 440 1514 644 1514 c 128,-1,12
 848 1514 848 1514 992.5 1369.5 c 128,-1,13
 1137 1225 1137 1225 1137 1021 c 1,14,-1
 1136 980 l 1,15,16
 1108 830 1108 830 994 716 c 0,17,18
 982 704 982 704 780 520 c 0,19,20
 706 452 706 452 702 400 c 2,21,-1
 701 387 l 1,22,-1
 508 294 l 1,23,-1
 508 419 l 1,24,25
 536 556 536 556 672 670 c 1,26,-1
 702 692 l 1,27,28
 904 860 904 860 932 970 c 1,29,-1
 940 1014 l 1,30,31
 940 1149 940 1149 858 1244 c 0,32,33
 784 1329 784 1329 636 1329 c 1,34,35
 500 1328 500 1328 423 1233 c 0,36,37
 352 1146 352 1146 352 1014 c 2,38,-1
 352 1002 l 1,39,-1
 152 924 l 1,40,-1
 150 1021 l 1,8,9
EndSplineSet
Validated: 16385
EndChar

StartChar: at
Encoding: 64 64 35
Width: 1201
GlyphClass: 2
Flags: W
HStem: -397 192<492.447 799.338> 1 190<689.464 853> 470 194<601.012 851> 942 190<487.07 852>
VStem: 150 198<-58.0562 799.624> 408 193<279.951 464.488> 853 198<190 470 664 942>
LayerCount: 2
Fore
SplineSet
852 942 m 1,0,-1
 641 938 l 1,1,2
 513 938 513 938 435 856 c 0,3,4
 347 762 347 762 347 632 c 2,5,-1
 348 103 l 2,6,7
 348 -20 348 -20 434 -112.5 c 128,-1,8
 520 -205 520 -205 642 -205 c 0,9,10
 742 -205 742 -205 817 -150 c 1,11,-1
 959 -283 l 1,12,13
 825 -397 825 -397 644 -397 c 0,14,15
 440 -397 440 -397 295 -252 c 128,-1,16
 150 -107 150 -107 150 97 c 2,17,-1
 150 638 l 2,18,19
 150 842 150 842 294.5 987 c 128,-1,20
 439 1132 439 1132 643 1132 c 2,21,-1
 1051 1132 l 1,22,-1
 1051 0 l 1,23,-1
 824 1 l 2,24,25
 642 1 642 1 532 120 c 0,26,27
 408 254 408 254 408 403 c 2,28,-1
 408 437 l 2,29,30
 408 664 408 664 643 664 c 2,31,-1
 645 664 l 1,32,-1
 851 664 l 1,33,-1
 852 942 l 1,0,-1
853 470 m 1,34,-1
 649 470 l 2,35,36
 601 470 601 470 601 428 c 0,37,38
 601 422 601 422 602 415 c 2,39,-1
 604 396 l 1,40,41
 618 289 618 289 678 243 c 0,42,43
 728 205 728 205 822 191 c 1,44,-1
 853 190 l 1,45,-1
 853 470 l 1,34,-1
EndSplineSet
Validated: 16385
EndChar

StartChar: A
Encoding: 65 65 36
Width: 1408
GlyphClass: 2
Flags: W
HStem: 0 21G<200.987 239.641 1002 1043.2> 464 196<399 1002> 1289 202<398 876.112>
VStem: 201 198<103 464 660 1289> 1002 206<100 464 660 1162.21>
LayerCount: 2
Fore
SplineSet
399 660 m 1,0,-1
 1003 660 l 1,1,-1
 1003 994 l 2,2,3
 1003 1128 1003 1128 918 1213 c 0,4,5
 841 1290 841 1290 709 1290 c 2,6,-1
 398 1289 l 1,7,-1
 399 660 l 1,0,-1
201 0 m 1,8,-1
 200 1491 l 1,9,-1
 714 1489 l 2,10,11
 919 1488 919 1488 1063 1344 c 0,12,13
 1208 1199 1208 1199 1208 995 c 2,14,-1
 1208 100 l 1,15,-1
 1002 0 l 1,16,-1
 1002 464 l 1,17,-1
 399 464 l 1,18,-1
 400 103 l 1,19,-1
 201 0 l 1,8,-1
EndSplineSet
Validated: 1
EndChar

StartChar: B
Encoding: 66 66 37
Width: 1310
GlyphClass: 2
Flags: W
HStem: 20 203<398 876.438> 743 199<400 805.688> 1295 196<399 812.325>
VStem: 200 200<223 743 942 1295> 874 204<1009.4 1233.05> 986 204<331.925 630.168>
LayerCount: 2
Fore
SplineSet
986 484 m 0,0,1
 986 579 986 579 921 658 c 0,2,3
 850 744 850 744 711 744 c 2,4,5
 400 743 l 1,6,-1
 398 223 l 1,7,-1
 709 222 l 2,8,9
 842 222 842 222 918 302 c 0,10,11
 986 374 986 374 986 484 c 0,0,1
200 1491 m 1,12,-1
 672 1492 l 2,13,14
 887 1492 887 1492 992 1356 c 0,15,16
 1078 1244 1078 1244 1078 1118 c 0,17,18
 1078 989 1078 989 992 893 c 1,19,-1
 974 874 l 1,20,21
 1025 843 1025 843 1067 796 c 0,22,23
 1190 659 1190 659 1190 485 c 2,24,-1
 1190 482 l 1,25,26
 1189 290 1189 290 1065 165 c 1,27,28
 920 21 920 21 716 21 c 2,29,-1
 200 20 l 1,30,-1
 200 1491 l 1,12,-1
399 1295 m 1,31,-1
 400 942 l 1,32,-1
 687 941 l 1,33,34
 796 949 796 949 846 1031 c 0,35,36
 874 1077 874 1077 874 1112 c 0,37,38
 874 1116 874 1116 874 1116 c 1,39,40
 872 1171 872 1171 846 1213 c 0,41,42
 795 1294 795 1294 666 1294 c 2,43,-1
 399 1295 l 1,31,-1
EndSplineSet
Validated: 1
EndChar

StartChar: C
Encoding: 67 67 38
Width: 1246
GlyphClass: 2
Flags: W
HStem: 21 197<523.291 1054> 1292 199<532.376 1010>
VStem: 200 205<341.904 1163.55>
LayerCount: 2
Fore
SplineSet
1146 218 m 1,0,-1
 1054 20 l 1,1,-1
 694 21 l 2,2,3
 489 22 489 22 345 166 c 0,4,5
 204 307 204 307 201 514 c 1,6,-1
 200 997 l 2,7,8
 200 1201 200 1201 345 1346 c 256,9,10
 490 1491 490 1491 694 1491 c 2,11,-1
 1104 1491 l 1,12,-1
 1010 1291 l 1,13,-1
 699 1292 l 2,14,15
 567 1292 567 1292 490 1215 c 0,16,17
 405 1130 405 1130 405 999 c 0,18,19
 405 998 405 998 405 996 c 2,20,-1
 407 514 l 1,21,22
 409 372 409 372 486 292 c 0,23,24
 557 218 557 218 701 218 c 2,25,-1
 1146 218 l 1,0,-1
EndSplineSet
Validated: 1
EndChar

StartChar: D
Encoding: 68 68 39
Width: 1408
GlyphClass: 2
Flags: W
HStem: 20 198<396 885.427> 1289 202<398 876.112>
VStem: 200 196<218 1289> 1003 205<341.904 1161.55>
LayerCount: 2
Fore
SplineSet
709 1290 m 2,0,-1
 398 1289 l 1,1,-1
 396 218 l 1,2,-1
 707 218 l 2,3,4
 853 218 853 218 922 292 c 1,5,6
 999 372 999 372 1001 514 c 1,7,-1
 1003 994 l 1,8,9
 1003 994 1003 994 1003 997 c 0,10,11
 1003 1128 1003 1128 918 1213 c 0,12,13
 841 1290 841 1290 709 1290 c 2,0,-1
200 1491 m 1,14,-1
 714 1489 l 2,15,16
 919 1488 919 1488 1063 1344 c 0,17,18
 1208 1199 1208 1199 1208 995 c 2,19,-1
 1207 514 l 1,20,21
 1204 307 1204 307 1063 166 c 0,22,23
 918 21 918 21 714 21 c 2,24,-1
 200 20 l 1,25,-1
 200 1491 l 1,14,-1
EndSplineSet
Validated: 1
EndChar

StartChar: E
Encoding: 69 69 40
Width: 1138
GlyphClass: 2
Flags: W
HStem: 20 192<396 996> 664 192<397 890> 1300 191<395 891>
VStem: 200 196<212 664 856 1300>
LayerCount: 2
Fore
SplineSet
200 1491 m 1,0,-1
 981 1492 l 1,1,-1
 891 1300 l 1,2,-1
 395 1300 l 1,3,-1
 397 856 l 1,4,-1
 978 856 l 1,5,-1
 890 664 l 1,6,-1
 396 664 l 1,7,-1
 396 212 l 1,8,-1
 1088 212 l 1,9,-1
 996 20 l 1,10,-1
 200 20 l 1,11,-1
 200 1491 l 1,0,-1
EndSplineSet
Validated: 1
EndChar

StartChar: F
Encoding: 70 70 41
Width: 1082
GlyphClass: 2
Flags: W
HStem: 0 21G<200 238.077> 662 194<400 892> 1301 190<400 888>
VStem: 200 200<104 662 856 1301>
LayerCount: 2
Fore
SplineSet
200 1491 m 1,0,-1
 982 1493 l 1,1,-1
 888 1301 l 1,2,-1
 400 1301 l 1,3,-1
 400 856 l 1,4,-1
 981 856 l 1,5,-1
 892 662 l 1,6,-1
 397 662 l 1,7,-1
 398 104 l 1,8,-1
 200 0 l 1,9,-1
 200 1491 l 1,0,-1
EndSplineSet
Validated: 1
EndChar

StartChar: G
Encoding: 71 71 42
Width: 1408
GlyphClass: 2
Flags: W
HStem: 21 197<523.291 1008> 662 194<764 1010> 1292 199<532.376 1010>
VStem: 200 205<341.904 1163.55> 1008 200<218 662>
LayerCount: 2
Fore
SplineSet
1208 20 m 1,0,-1
 694 21 l 2,1,2
 490 21 490 21 345 166 c 0,3,4
 204 307 204 307 201 514 c 1,5,-1
 200 997 l 2,6,7
 200 1201 200 1201 345 1346 c 256,8,9
 490 1491 490 1491 694 1491 c 2,10,-1
 1104 1491 l 1,11,-1
 1010 1291 l 1,12,-1
 699 1292 l 2,13,14
 567 1292 567 1292 490 1215 c 0,15,16
 405 1130 405 1130 405 999 c 0,17,18
 405 998 405 998 405 996 c 2,19,-1
 407 514 l 1,20,21
 409 372 409 372 486 292 c 0,22,23
 557 218 557 218 701 218 c 2,24,-1
 1008 218 l 1,25,-1
 1010 662 l 1,26,-1
 679 662 l 1,27,-1
 764 856 l 1,28,-1
 1208 856 l 1,29,-1
 1208 20 l 1,0,-1
EndSplineSet
Validated: 1
EndChar

StartChar: H
Encoding: 72 72 43
Width: 1404
GlyphClass: 2
Flags: W
HStem: 0 21G<200 243.043 1005.94 1049.04> 669 190<398 1004> 1492 20G<354 398 1160 1204>
VStem: 200 198<92 669 859 1422> 1006 198<92 668 858 1422>
LayerCount: 2
Fore
SplineSet
398 92 m 1,0,-1
 200 0 l 1,1,-1
 200 1422 l 1,2,-1
 398 1512 l 1,3,-1
 398 859 l 1,4,-1
 1008 858 l 1,5,-1
 1006 1422 l 1,6,-1
 1204 1512 l 1,7,-1
 1204 92 l 1,8,-1
 1006 0 l 1,9,-1
 1004 668 l 1,10,-1
 396 669 l 1,11,-1
 398 92 l 1,0,-1
EndSplineSet
Validated: 1
EndChar

StartChar: I
Encoding: 73 73 44
Width: 598
GlyphClass: 2
Flags: W
HStem: 0 21G<200 243.043> 1491 20G<354 398>
VStem: 200 198<92 1421>
LayerCount: 2
Fore
SplineSet
398 92 m 1,0,-1
 200 0 l 1,1,-1
 200 1421 l 1,2,-1
 398 1511 l 1,3,-1
 398 92 l 1,0,-1
EndSplineSet
Validated: 1
EndChar

StartChar: J
Encoding: 74 74 45
Width: 936
GlyphClass: 2
Flags: W
HStem: 20 193<104 397.702> 1303 188<262 527>
VStem: 531 205<346.238 1303>
LayerCount: 2
Fore
SplineSet
104 213 m 1,0,-1
 237 213 l 2,1,2
 360 213 360 213 446 296 c 0,3,4
 531 378 531 378 531 512 c 0,5,6
 531 513 531 513 531 515 c 2,7,-1
 527 1303 l 1,8,-1
 166 1299 l 1,9,-1
 262 1491 l 1,10,-1
 733 1491 l 1,11,-1
 736 514 l 1,12,13
 736 514 736 514 736 511 c 0,14,15
 736 310 736 310 591 165 c 128,-1,16
 446 20 446 20 242 20 c 2,17,-1
 10 20 l 1,18,-1
 104 213 l 1,0,-1
EndSplineSet
Validated: 1
EndChar

StartChar: K
Encoding: 75 75 46
Width: 1288
GlyphClass: 2
Flags: W
HStem: 0 21G<200 245.517 908.339 951.368> 1491 20G<353.506 398 857.818 911.818>
VStem: 200 198<87 656 850 1422> 914 204<96 518.835>
DStem2: 468 852 686 844 0.520193 0.854049<106.57 772.79>
LayerCount: 2
Fore
SplineSet
200 0 m 1,0,-1
 200 1422 l 1,1,-1
 398 1511 l 1,2,-1
 398 850 l 1,3,-1
 468 852 l 1,4,-1
 870 1512 l 1,5,-1
 1054 1424 l 1,6,-1
 686 844 l 1,7,8
 859 823 859 823 974 705 c 0,9,10
 1118 557 1118 557 1118 364 c 2,11,12
 1118 364 1118 364 1118 356 c 2,13,-1
 1114 96 l 1,14,-1
 908 1 l 1,15,-1
 914 355 l 1,16,17
 914 488 914 488 828 574 c 0,18,19
 754 648 754 648 620 651 c 2,20,-1
 398 656 l 1,21,-1
 398 87 l 1,22,-1
 200 0 l 1,0,-1
EndSplineSet
Validated: 1
EndChar

StartChar: L
Encoding: 76 76 47
Width: 1094
GlyphClass: 2
Flags: W
HStem: 20 192<397 997> 1491 20G<353.506 397.985>
VStem: 201 196<212 1422>
LayerCount: 2
Fore
SplineSet
200 1422 m 1,0,-1
 398 1511 l 1,1,-1
 397 212 l 1,2,-1
 1089 212 l 1,3,-1
 997 20 l 1,4,-1
 201 20 l 1,5,-1
 200 1422 l 1,0,-1
EndSplineSet
Validated: 1
EndChar

StartChar: M
Encoding: 77 77 48
Width: 2208
GlyphClass: 2
Flags: W
HStem: 0 21G<200.987 239.269 1001.89 1041.6 1802.02 1843.2> 1289 202<398 995 1198 1675.62>
VStem: 201 199<104 1289> 1002 196<99 1289> 1802 206<100 1162.21>
LayerCount: 2
Fore
SplineSet
995 1293 m 1,0,-1
 398 1289 l 1,1,-1
 400 104 l 1,2,-1
 201 0 l 1,3,-1
 200 1491 l 1,4,-1
 1514 1489 l 2,5,6
 1718 1489 1718 1489 1863 1344 c 256,7,8
 2008 1199 2008 1199 2008 995 c 2,9,-1
 2008 100 l 1,10,-1
 1802 0 l 1,11,-1
 1803 994 l 2,12,13
 1803 1128 1803 1128 1718 1213 c 0,14,15
 1641 1290 1641 1290 1509 1290 c 2,16,-1
 1198 1289 l 1,17,-1
 1198 99 l 1,18,-1
 1002 0 l 1,19,-1
 995 1293 l 1,0,-1
EndSplineSet
Validated: 1
EndChar

StartChar: N
Encoding: 78 78 49
Width: 1408
GlyphClass: 2
Flags: W
HStem: 0 21G<200.987 239.641 1002.02 1043.2> 1289 202<398 876.112>
VStem: 201 199<103 1289> 1002 206<100 1162.21>
LayerCount: 2
Fore
SplineSet
1002 0 m 1,0,-1
 1003 994 l 2,1,2
 1003 1128 1003 1128 918 1213 c 0,3,4
 841 1290 841 1290 709 1290 c 2,5,-1
 398 1289 l 1,6,-1
 400 103 l 1,7,-1
 201 0 l 1,8,-1
 200 1491 l 1,9,-1
 714 1489 l 2,10,11
 919 1488 919 1488 1063 1344 c 0,12,13
 1208 1199 1208 1199 1208 995 c 2,14,-1
 1208 100 l 1,15,-1
 1002 0 l 1,0,-1
EndSplineSet
Validated: 1
EndChar

StartChar: O
Encoding: 79 79 50
Width: 1387
GlyphClass: 2
Flags: W
HStem: 0 192<542.447 849.768> 1325 186<540.32 850.569>
VStem: 200 198<338.944 1178.62> 986 201<330.912 1184.21>
LayerCount: 2
Fore
SplineSet
683 1325 m 0,0,1
 570 1325 570 1325 485 1235 c 0,2,3
 397 1141 397 1141 397 1011 c 2,4,-1
 398 500 l 2,5,6
 398 377 398 377 484 284.5 c 128,-1,7
 570 192 570 192 692 192 c 0,8,9
 821 192 821 192 908 284 c 0,10,11
 983 363 983 363 986 500 c 1,12,-1
 985 1011 l 2,13,14
 985 1149 985 1149 909 1231 c 1,15,16
 828 1325 828 1325 683 1325 c 0,0,1
200 494 m 2,17,-1
 200 1017 l 2,18,19
 200 1221 200 1221 344.5 1366 c 128,-1,20
 489 1511 489 1511 693 1511 c 128,-1,21
 897 1511 897 1511 1042 1366 c 256,22,23
 1187 1221 1187 1221 1187 1017 c 2,24,-1
 1187 494 l 1,25,26
 1184 287 1184 287 1043 145 c 0,27,28
 898 0 898 0 694 0 c 128,-1,29
 490 0 490 0 345 145 c 128,-1,30
 200 290 200 290 200 494 c 2,17,-1
EndSplineSet
Validated: 1
EndChar

StartChar: P
Encoding: 80 80 51
Width: 1354
GlyphClass: 2
Flags: W
HStem: 0 21G<200 244.444> 400 194<400 901.104> 1301 190<398 886.756>
VStem: 200 200<90 402 592 1301> 978 196<667.395 1218.66>
LayerCount: 2
Fore
SplineSet
200 1491 m 1,0,-1
 758 1489 l 2,1,2
 925 1488 925 1488 1050 1370 c 0,3,4
 1174 1253 1174 1253 1174 1092 c 0,5,6
 1174 1090 1174 1090 1174 1087 c 2,7,-1
 1170 806 l 2,8,9
 1168 636 1168 636 1048 519 c 0,10,11
 926 400 926 400 759 400 c 0,12,13
 757 400 757 400 756 400 c 2,14,-1
 400 402 l 1,15,-1
 400 90 l 1,16,-1
 200 0 l 1,17,-1
 200 1491 l 1,0,-1
398 1301 m 1,18,-1
 399 592 l 1,19,-1
 758 594 l 2,20,21
 858 595 858 595 916 648 c 0,22,23
 975 703 975 703 976 811 c 2,24,-1
 978 1094 l 1,25,26
 978 1094 978 1094 978 1097 c 0,27,28
 978 1191 978 1191 904 1247 c 0,29,30
 854 1285 854 1285 760 1299 c 1,31,-1
 398 1301 l 1,18,-1
EndSplineSet
Validated: 1
EndChar

StartChar: Q
Encoding: 81 81 52
Width: 1387
GlyphClass: 2
Flags: W
HStem: 0 192<542.447 723> 1325 186<540.32 850.569>
VStem: 200 198<338.944 1178.62> 986 201<330.425 1184.21>
LayerCount: 2
Fore
SplineSet
200 494 m 2,0,-1
 200 1017 l 2,1,2
 200 1221 200 1221 344.5 1366 c 128,-1,3
 489 1511 489 1511 693 1511 c 128,-1,4
 897 1511 897 1511 1042 1366 c 128,-1,5
 1187 1221 1187 1221 1187 1017 c 2,6,-1
 1187 494 l 1,7,8
 1184 286 1184 286 1043 145 c 0,9,10
 1012 114 1012 114 978 90 c 1,11,-1
 1043 -96 l 1,12,-1
 854 -182 l 1,13,-1
 788 8 l 1,14,15
 742 0 742 0 694 0 c 0,16,17
 490 0 490 0 345 145 c 128,-1,18
 200 290 200 290 200 494 c 2,0,-1
683 1325 m 0,19,20
 570 1325 570 1325 485 1235 c 0,21,22
 397 1141 397 1141 397 1011 c 2,23,-1
 398 500 l 2,24,25
 398 377 398 377 484 284.5 c 128,-1,26
 570 192 570 192 692 192 c 0,27,28
 708 192 708 192 723 193 c 1,29,-1
 695 275 l 1,30,-1
 884 360 l 1,31,-1
 910 286 l 1,32,33
 983 365 983 365 986 500 c 1,34,-1
 985 1011 l 2,35,36
 985 1149 985 1149 909 1231 c 1,37,38
 828 1325 828 1325 683 1325 c 0,19,20
EndSplineSet
Validated: 1
EndChar

StartChar: R
Encoding: 82 82 53
Width: 1374
GlyphClass: 2
Flags: W
HStem: 0 21G<200 244.444 970.35 1023.82> 402 190<400 749> 1301 190<398 886.756>
VStem: 200 200<90 402 592 1301> 978 196<666.63 1218.66>
DStem2: 1166 88 982 0 0.503334 -0.864092<-419.793 -16.5733>
LayerCount: 2
Fore
SplineSet
951 446 m 1,0,-1
 1166 88 l 1,1,-1
 982 0 l 1,2,-1
 749 400 l 1,3,-1
 400 402 l 1,4,-1
 400 90 l 1,5,-1
 200 0 l 1,6,-1
 200 1491 l 1,7,-1
 758 1489 l 2,8,9
 925 1488 925 1488 1050 1370 c 0,10,11
 1174 1253 1174 1253 1174 1092 c 2,12,-1
 1174 1087 l 1,13,-1
 1170 806 l 2,14,15
 1168 625 1168 625 1048 519 c 0,16,17
 989 467 989 467 950 448 c 1,18,-1
 951 446 l 1,0,-1
398 1301 m 1,19,-1
 399 592 l 1,20,-1
 758 594 l 2,21,22
 858 595 858 595 916 648 c 0,23,24
 975 703 975 703 976 811 c 2,25,-1
 978 1094 l 1,26,-1
 978 1097 l 2,27,28
 978 1191 978 1191 904 1247 c 0,29,30
 854 1285 854 1285 760 1299 c 1,31,-1
 398 1301 l 1,19,-1
EndSplineSet
Validated: 1
EndChar

StartChar: S
Encoding: 83 83 54
Width: 1313
GlyphClass: 2
Flags: W
HStem: 20 198<263 822.709> 1292 199<531.062 1011>
VStem: 202 205<976.384 1167> 939 204<338.875 697.746>
DStem2: 447 976 454 780 0.984077 -0.177741<-47.4888 541.326>
LayerCount: 2
Fore
SplineSet
939 528 m 1,0,-1
 939 644 l 2,1,2
 939 694 939 694 895 702 c 2,3,-1
 454 780 l 1,4,5
 218 819 218 819 202 992 c 1,6,-1
 202 1077 l 2,7,8
 202 1197 202 1197 346 1346 c 0,9,10
 486 1491 486 1491 695 1491 c 2,11,-1
 1105 1491 l 1,12,-1
 1011 1291 l 1,13,-1
 700 1292 l 2,14,15
 563 1292 563 1292 491 1215 c 1,16,17
 407 1127 407 1127 407 1076 c 2,18,-1
 407 1035 l 2,19,20
 407 988 407 988 447 976 c 1,21,-1
 901 894 l 2,22,23
 1128 853 1128 853 1143 682 c 1,24,-1
 1143 524 l 1,25,-1
 1143 508 l 1,26,27
 1140 305 1140 305 1001 166 c 0,28,29
 856 21 856 21 652 21 c 2,30,-1
 170 20 l 1,31,-1
 263 218 l 1,32,-1
 645 218 l 2,33,34
 789 218 789 218 860 292 c 0,35,36
 937 372 937 372 939 514 c 1,37,-1
 939 528 l 1,0,-1
EndSplineSet
Validated: 1
EndChar

StartChar: T
Encoding: 84 84 55
Width: 1032
GlyphClass: 2
Flags: W
HStem: 0 21G<408.969 452.043> 1301 190<93 407 607 945>
VStem: 409 198<92 1301>
LayerCount: 2
Fore
SplineSet
607 92 m 1,0,-1
 409 0 l 1,1,-1
 407 1301 l 1,2,-1
 5 1301 l 1,3,-1
 93 1491 l 1,4,-1
 1027 1489 l 1,5,-1
 945 1303 l 1,6,-1
 607 1301 l 1,7,-1
 607 92 l 1,0,-1
EndSplineSet
Validated: 1
EndChar

StartChar: U
Encoding: 85 85 56
Width: 1408
GlyphClass: 2
Flags: W
HStem: 22 199<531.938 1010> 1492 20G<364.8 405.98 1168.36 1207.01>
VStem: 200 205<349.688 1412> 1010 198<222 1408>
LayerCount: 2
Fore
SplineSet
406 1512 m 1,0,-1
 405 517 l 2,1,2
 405 383 405 383 490 298 c 0,3,4
 567 221 567 221 699 221 c 2,5,-1
 1010 222 l 1,6,-1
 1008 1408 l 1,7,-1
 1207 1511 l 1,8,-1
 1208 20 l 1,9,-1
 694 22 l 2,10,11
 489 23 489 23 345 167 c 0,12,13
 200 312 200 312 200 516 c 2,14,-1
 200 1412 l 1,15,-1
 406 1512 l 1,0,-1
EndSplineSet
Validated: 1
EndChar

StartChar: V
Encoding: 86 86 57
Width: 1092
GlyphClass: 2
Flags: W
HStem: 0 21G<438.82 488.043> 1492 20G<151.818 201.066 904.657 952.905>
DStem2: 195 1512 5 1424 0.295217 -0.95543<27.9866 1205.89> 545 358 643 92 0.315375 0.948967<0 1186.33>
LayerCount: 2
Fore
SplineSet
643 92 m 1,0,-1
 445 0 l 1,1,-1
 5 1424 l 1,2,-1
 195 1512 l 1,3,-1
 545 358 l 1,4,-1
 911 1512 l 1,5,-1
 1087 1428 l 1,6,-1
 643 92 l 1,0,-1
EndSplineSet
Validated: 1
EndChar

StartChar: W
Encoding: 87 87 58
Width: 2208
GlyphClass: 2
Flags: W
HStem: 22 199<532.376 1010 1213 1810> 1491 20G<364.8 405.98 1168.4 1208.08 1968.36 2007.01>
VStem: 200 205<350.093 1411> 1010 203<222 1412> 1810 198<222 1408>
LayerCount: 2
Fore
SplineSet
1213 218 m 1,0,-1
 1810 222 l 1,1,-1
 1808 1408 l 1,2,-1
 2007 1511 l 1,3,-1
 2008 20 l 1,4,-1
 694 22 l 2,5,6
 490 22 490 22 345 167 c 256,7,8
 200 312 200 312 200 516 c 2,9,-1
 200 1411 l 1,10,-1
 406 1511 l 1,11,-1
 405 517 l 2,12,13
 405 384 405 384 490 298 c 0,14,15
 567 221 567 221 699 221 c 2,16,-1
 1010 222 l 1,17,-1
 1010 1412 l 1,18,-1
 1208 1512 l 1,19,-1
 1213 218 l 1,0,-1
EndSplineSet
Validated: 1
EndChar

StartChar: X
Encoding: 88 88 59
Width: 1219
GlyphClass: 2
Flags: W
HStem: 0 21G<226.973 285.278 922.79 981.18> 1491 20G<921.321 978.366>
DStem2: 100 74 274 0 0.501511 0.865151<23.2417 697.086 1026.39 1660.98> 281 1513 103 1432 0.503834 -0.863801<0 642.363 963.122 1635.93>
LayerCount: 2
Fore
SplineSet
103 1432 m 1,0,-1
 281 1513 l 1,1,-1
 613 963 l 1,2,-1
 933 1511 l 1,3,-1
 1119 1429 l 1,4,-1
 721 775 l 1,5,-1
 1118 78 l 1,6,-1
 934 0 l 1,7,-1
 605 587 l 1,8,-1
 274 0 l 1,9,-1
 100 74 l 1,10,-1
 495 775 l 1,11,-1
 103 1432 l 1,0,-1
EndSplineSet
Validated: 1
EndChar

StartChar: Y
Encoding: 89 89 60
Width: 1388
GlyphClass: 2
Flags: W
HStem: 0 21G<598 641.043> 1492 18G<354.444 398.069 1144 1187.97>
VStem: 200 200<786.375 1420> 598 198<92 461.176> 990 197<769.285 1422>
LayerCount: 2
Fore
SplineSet
708 636 m 0,0,1
 829 636 829 636 916 728 c 0,2,3
 990 806 990 806 990 942 c 2,4,-1
 990 1422 l 1,5,-1
 1188 1512 l 1,6,-1
 1187 936 l 2,7,8
 1187 733 1187 733 1042 587 c 0,9,10
 935 479 935 479 795 452 c 1,11,-1
 796 92 l 1,12,-1
 598 0 l 1,13,-1
 598 451 l 1,14,15
 462 477 462 477 345 587 c 0,16,17
 200 724 200 724 200 933 c 2,18,-1
 200 936 l 1,19,-1
 202 1420 l 1,20,-1
 398 1510 l 1,21,-1
 400 930 l 2,22,23
 400 815 400 815 488 732 c 0,24,25
 590 636 590 636 708 636 c 0,0,1
EndSplineSet
Validated: 1
EndChar

StartChar: Z
Encoding: 90 90 61
Width: 1273
GlyphClass: 2
Flags: W
HStem: 20 200<490 1036> 1295 196<275 765>
DStem2: 150 20 490 220 0.4339 0.900961<327.718 1417.38>
LayerCount: 2
Fore
SplineSet
490 220 m 1,0,-1
 1123 216 l 1,1,-1
 1036 20 l 1,2,-1
 150 20 l 1,3,-1
 765 1297 l 1,4,-1
 180 1295 l 1,5,-1
 275 1491 l 1,6,-1
 1081 1491 l 1,7,-1
 490 220 l 1,0,-1
EndSplineSet
Validated: 1
EndChar

StartChar: bracketleft
Encoding: 91 91 62
Width: 774
GlyphClass: 2
Flags: W
HStem: -348 190<348 680> 1561 184<353 676>
VStem: 150 198<-158 1561>
LayerCount: 2
Fore
SplineSet
150 1745 m 1,0,-1
 764 1747 l 1,1,-1
 676 1560 l 1,2,-1
 353 1561 l 1,3,-1
 348 -158 l 1,4,-1
 764 -158 l 1,5,-1
 680 -344 l 1,6,-1
 150 -348 l 1,7,-1
 150 1745 l 1,0,-1
EndSplineSet
Validated: 1
EndChar

StartChar: backslash
Encoding: 92 92 63
Width: 1065
GlyphClass: 2
Flags: W
DStem2: 190 1654 10 1572 0.435903 -0.899994<0 1982.02>
LayerCount: 2
Fore
SplineSet
1055 -132 m 1,0,-1
 876 -216 l 1,1,-1
 10 1572 l 1,2,-1
 190 1654 l 1,3,-1
 1055 -132 l 1,0,-1
EndSplineSet
Validated: 1
EndChar

StartChar: bracketright
Encoding: 93 93 64
Width: 774
GlyphClass: 2
Flags: W
HStem: -348 187<98 421> 1557 190<94 426>
VStem: 421 203<-162 1557>
LayerCount: 2
Fore
SplineSet
624 -346 m 1,0,-1
 10 -348 l 1,1,-1
 98 -161 l 1,2,-1
 421 -162 l 1,3,-1
 426 1557 l 1,4,-1
 10 1557 l 1,5,-1
 94 1743 l 1,6,-1
 624 1747 l 1,7,-1
 624 -346 l 1,0,-1
EndSplineSet
Validated: 1
EndChar

StartChar: asciicircum
Encoding: 94 94 65
Width: 1180
GlyphClass: 2
Flags: W
HStem: 1062 456
DStem2: 80 1168 237 1062 0.83205 0.5547<71.8337 479.538>
LayerCount: 2
Fore
SplineSet
80 1168 m 1,0,-1
 605 1518 l 1,1,-1
 1100 1168 l 1,2,-1
 926 1062 l 1,3,-1
 581 1281 l 1,4,-1
 237 1062 l 1,5,-1
 80 1168 l 1,0,-1
EndSplineSet
Validated: 16385
EndChar

StartChar: underscore
Encoding: 95 95 66
Width: 1083
GlyphClass: 2
Flags: W
HStem: -537 198<170 911>
LayerCount: 2
Fore
SplineSet
170 -339 m 1,0,-1
 1003 -339 l 1,1,-1
 911 -537 l 1,2,-1
 80 -537 l 1,3,-1
 170 -339 l 1,0,-1
EndSplineSet
Validated: 1
EndChar

StartChar: grave
Encoding: 96 96 67
Width: 742
GlyphClass: 2
Flags: W
HStem: 1131 384
VStem: 150 442
DStem2: 280 1515 150 1389 0.770645 -0.637264<0 384.967>
LayerCount: 2
Fore
SplineSet
280 1515 m 1,0,-1
 592 1257 l 1,1,-1
 462 1131 l 1,2,-1
 150 1389 l 1,3,-1
 280 1515 l 1,0,-1
EndSplineSet
Validated: 16385
EndChar

StartChar: a
Encoding: 97 97 68
Width: 1106
GlyphClass: 2
Flags: W
HStem: 20 190<413.057 758> 906 194<413.105 757>
VStem: 130 196<290.173 818.187> 758 198<210 910>
LayerCount: 2
Fore
SplineSet
956 1100 m 1,0,-1
 956 20 l 1,1,-1
 546 20 l 2,2,3
 380 20 380 20 254 139 c 0,4,5
 130 256 130 256 130 417 c 0,6,7
 130 419 130 419 130 422 c 2,8,-1
 134 694 l 2,9,10
 137 865 137 865 256 981 c 0,11,12
 378 1100 378 1100 548 1100 c 2,13,-1
 956 1100 l 1,0,-1
326 409 m 2,14,15
 326 318 326 318 400 262 c 0,16,17
 450 224 450 224 544 210 c 1,18,-1
 758 210 l 1,19,-1
 757 910 l 1,20,-1
 546 906 l 1,21,22
 459 906 459 906 398 850 c 0,23,24
 329 786 329 786 328 689 c 2,25,-1
 326 409 l 2,14,15
EndSplineSet
Validated: 16385
EndChar

StartChar: b
Encoding: 98 98 69
Width: 1106
GlyphClass: 2
Flags: W
HStem: 20 190<348 692.943> 910 190<350 688.203> 1491 20G<307.447 350>
VStem: 150 200<210 910 1100 1417> 780 196<290.658 818.187>
LayerCount: 2
Fore
SplineSet
976 422 m 1,0,1
 976 256 976 256 852 139 c 0,2,3
 726 20 726 20 560 20 c 2,4,-1
 150 20 l 1,5,-1
 150 1417 l 1,6,-1
 350 1511 l 1,7,-1
 350 1100 l 1,8,-1
 558 1100 l 2,9,10
 728 1100 728 1100 850 981 c 0,11,12
 970 864 970 864 972 694 c 2,13,-1
 976 422 l 1,0,1
348 210 m 1,14,-1
 562 210 l 1,15,16
 656 224 656 224 706 262 c 0,17,18
 780 318 780 318 780 412 c 0,19,20
 780 414 780 414 780 415 c 2,21,-1
 778 689 l 2,22,23
 777 786 777 786 708 850 c 0,24,25
 647 906 647 906 560 906 c 1,26,-1
 349 910 l 1,27,-1
 348 210 l 1,14,-1
EndSplineSet
Validated: 16385
EndChar

StartChar: c
Encoding: 99 99 70
Width: 932
GlyphClass: 2
Flags: W
HStem: 20 190<413.057 788> 906 194<413.105 764>
VStem: 130 196<290.502 818.187>
LayerCount: 2
Fore
SplineSet
326 415 m 2,0,1
 326 318 326 318 400 262 c 0,2,3
 450 224 450 224 544 210 c 1,4,-1
 872 210 l 1,5,-1
 788 20 l 1,6,-1
 546 20 l 2,7,8
 380 20 380 20 254 139 c 0,9,10
 130 256 130 256 130 417 c 0,11,12
 130 419 130 419 130 422 c 2,13,-1
 134 694 l 2,14,15
 137 864 137 864 256 981 c 0,16,17
 378 1100 378 1100 548 1100 c 2,18,-1
 854 1100 l 1,19,-1
 764 910 l 1,20,-1
 546 906 l 1,21,22
 459 906 459 906 398 850 c 0,23,24
 329 786 329 786 328 689 c 2,25,-1
 326 415 l 2,0,1
EndSplineSet
Validated: 1
EndChar

StartChar: d
Encoding: 100 100 71
Width: 1106
GlyphClass: 2
Flags: W
HStem: 20 190<413.057 758> 906 194<413.105 756> 1491 20G<911.556 956>
VStem: 130 196<290.143 818.187> 756 200<210 910 1100 1421>
LayerCount: 2
Fore
SplineSet
956 20 m 1,0,-1
 546 20 l 2,1,2
 380 20 380 20 254 139 c 0,3,4
 130 256 130 256 130 417 c 0,5,6
 130 419 130 419 130 422 c 2,7,-1
 134 694 l 2,8,9
 136 864 136 864 256 981 c 0,10,11
 378 1100 378 1100 548 1100 c 2,12,-1
 756 1100 l 1,13,-1
 756 1421 l 1,14,-1
 956 1511 l 1,15,-1
 956 20 l 1,0,-1
326 415 m 2,16,17
 326 317 326 317 400 262 c 0,18,19
 451 224 451 224 544 210 c 1,20,-1
 758 210 l 1,21,-1
 757 910 l 1,22,-1
 546 906 l 1,23,24
 459 906 459 906 398 850 c 0,25,26
 329 786 329 786 328 689 c 2,27,-1
 326 415 l 2,16,17
EndSplineSet
Validated: 16385
EndChar

StartChar: e
Encoding: 101 101 72
Width: 1080
GlyphClass: 2
Flags: W
HStem: 20 190<413.057 788> 448 195<328 752.891> 927 193<411.352 670.693>
VStem: 130 196<290.502 448 643 839.187> 756 194<644 843.413>
LayerCount: 2
Fore
SplineSet
326 415 m 2,0,1
 326 318 326 318 400 262 c 0,2,3
 450 224 450 224 544 210 c 1,4,-1
 872 210 l 1,5,-1
 788 20 l 1,6,-1
 546 20 l 2,7,8
 380 20 380 20 254 139 c 0,9,10
 130 256 130 256 130 417 c 0,11,12
 130 419 130 419 130 422 c 2,13,-1
 134 715 l 2,14,15
 136 885 136 885 256 1002 c 0,16,17
 377 1120 377 1120 543 1120 c 2,18,-1
 546 1120 l 1,19,20
 708 1119 708 1119 828 1002 c 0,21,22
 950 883 950 883 950 715 c 2,23,-1
 950 704 l 2,24,25
 950 448 950 448 710 448 c 2,26,-1
 708 448 l 1,27,-1
 326 448 l 1,28,-1
 326 415 l 2,0,1
537 927 m 0,29,30
 458 927 458 927 398 871 c 0,31,32
 329 807 329 807 328 710 c 1,33,-1
 328 643 l 1,34,-1
 712 642 l 2,35,36
 756 642 756 642 756 703 c 2,37,-1
 756 710 l 2,38,39
 756 807 756 807 686 871 c 0,40,41
 626 926 626 926 537 927 c 0,29,30
EndSplineSet
Validated: 16385
EndChar

StartChar: f
Encoding: 102 102 73
Width: 772
GlyphClass: 2
Flags: W
HStem: 0 21G<150 193.043> 912 188<345 598> 1297 194<428.618 672>
VStem: 150 198<92 912 1100 1217.76>
LayerCount: 2
Fore
SplineSet
348 92 m 1,0,-1
 150 0 l 1,1,-1
 150 1085 l 1,2,3
 152 1255 152 1255 272 1372 c 0,4,5
 393 1491 393 1491 564 1491 c 2,6,-1
 762 1491 l 1,7,-1
 672 1299 l 1,8,-1
 562 1297 l 2,9,10
 474 1295 474 1295 414 1241 c 0,11,12
 348 1181 348 1181 344 1100 c 1,13,-1
 686 1100 l 1,14,-1
 598 912 l 1,15,-1
 345 912 l 1,16,-1
 348 92 l 1,0,-1
EndSplineSet
Validated: 1
EndChar

StartChar: g
Encoding: 103 103 74
Width: 1106
GlyphClass: 2
Flags: W
HStem: -394 192<334 672.203> 20 190<413.057 757> 910 190<417.797 757>
VStem: 130 196<290.143 818.187> 757 199<-119.331 20 210 910>
LayerCount: 2
Fore
SplineSet
326 415 m 2,0,1
 326 317 326 317 400 262 c 0,2,3
 451 224 451 224 544 210 c 1,4,-1
 758 210 l 1,5,-1
 757 910 l 1,6,-1
 546 906 l 1,7,8
 459 906 459 906 398 850 c 0,9,10
 329 786 329 786 328 689 c 2,11,-1
 326 415 l 2,0,1
757 20 m 1,12,-1
 546 20 l 2,13,14
 380 20 380 20 254 139 c 0,15,16
 130 256 130 256 130 417 c 0,17,18
 130 419 130 419 130 422 c 2,19,-1
 134 694 l 2,20,21
 137 865 137 865 256 981 c 0,22,23
 378 1100 378 1100 548 1100 c 2,24,-1
 956 1100 l 1,25,-1
 956 20 l 1,26,27
 954 -158 954 -158 834 -275 c 0,28,29
 712 -394 712 -394 542 -394 c 2,30,-1
 244 -394 l 1,31,-1
 334 -202 l 1,32,-1
 544 -200 l 2,33,34
 632 -199 632 -199 692 -144 c 1,35,36
 757 -82 757 -82 757 -10 c 2,37,-1
 757 20 l 1,12,-1
EndSplineSet
Validated: 16385
EndChar

StartChar: h
Encoding: 104 104 75
Width: 1106
GlyphClass: 2
Flags: W
HStem: 0 21G<151.972 195.043 778 821.043> 908 192<350 688.203> 1491 20G<305.556 350>
VStem: 152 198<92 908 1100 1421> 778 198<92 822.638>
LayerCount: 2
Fore
SplineSet
150 1421 m 1,0,-1
 350 1511 l 1,1,-1
 350 1100 l 1,2,-1
 558 1100 l 2,3,4
 728 1100 728 1100 850 981 c 0,5,6
 970 864 970 864 972 694 c 2,7,-1
 976 422 l 1,8,-1
 976 92 l 1,9,-1
 778 0 l 1,10,-1
 778 418 l 1,11,-1
 778 689 l 2,12,13
 778 786 778 786 708 850 c 0,14,15
 648 905 648 905 560 906 c 2,16,-1
 350 908 l 1,17,-1
 350 92 l 1,18,-1
 152 0 l 1,19,-1
 150 1421 l 1,0,-1
EndSplineSet
Validated: 16385
EndChar

StartChar: i
Encoding: 105 105 76
Width: 500
GlyphClass: 2
Flags: W
HStem: 0 21G<150 193.043> 1100 20G<305.556 349.961> 1246 264<159.191 340.809>
VStem: 120 260<1285.71 1470.29> 150 198<92 1030>
LayerCount: 2
Fore
SplineSet
120 1378 m 128,-1,1
 120 1433 120 1433 158 1471.5 c 128,-1,2
 196 1510 196 1510 250 1510 c 128,-1,3
 304 1510 304 1510 342 1471.5 c 128,-1,4
 380 1433 380 1433 380 1378 c 128,-1,5
 380 1323 380 1323 342 1284.5 c 128,-1,6
 304 1246 304 1246 250 1246 c 128,-1,7
 196 1246 196 1246 158 1284.5 c 128,-1,0
 120 1323 120 1323 120 1378 c 128,-1,1
150 1030 m 1,8,-1
 350 1120 l 1,9,-1
 348 92 l 1,10,-1
 150 0 l 1,11,-1
 150 1030 l 1,8,-1
EndSplineSet
Validated: 16385
EndChar

StartChar: j
Encoding: 106 106 77
Width: 500
GlyphClass: 2
Flags: W
HStem: 1100 20G<304.957 347.964> 1246 264<159.191 340.809>
VStem: 120 260<1285.71 1470.29> 152 194<-119.378 1028>
LayerCount: 2
Fore
SplineSet
120 1378 m 128,-1,1
 120 1433 120 1433 158 1471.5 c 128,-1,2
 196 1510 196 1510 250 1510 c 128,-1,3
 304 1510 304 1510 342 1471.5 c 128,-1,4
 380 1433 380 1433 380 1378 c 128,-1,5
 380 1323 380 1323 342 1284.5 c 128,-1,6
 304 1246 304 1246 250 1246 c 128,-1,7
 196 1246 196 1246 158 1284.5 c 128,-1,0
 120 1323 120 1323 120 1378 c 128,-1,1
48 -172 m 17,8,9
 60 -169 60 -169 84 -146 c 0,10,11
 152 -81 152 -81 152 -7 c 2,12,-1
 150 1028 l 1,13,-1
 348 1120 l 1,14,-1
 346 10 l 1,15,16
 344 -160 344 -160 224 -277 c 0,17,18
 130 -368 130 -368 5 -390 c 9,19,20
 48 -172 l 17,8,9
EndSplineSet
Validated: 1
EndChar

StartChar: k
Encoding: 107 107 78
Width: 1106
GlyphClass: 2
Flags: W
HStem: 0 21G<151.972 195.043 778 821.043> 1100 20G<793.688 833> 1491 20G<305.556 350>
VStem: 150 200<92 542 735 1421> 778 198<92 454.677>
LayerCount: 2
Fore
SplineSet
818 1120 m 1,0,-1
 938 960 l 1,1,-1
 632 729 l 1,2,3
 753 708 753 708 850 616 c 1,4,5
 969 501 969 501 972 329 c 2,6,-1
 976 92 l 1,7,-1
 778 0 l 1,8,-1
 778 324 l 2,9,10
 778 421 778 421 708 485 c 0,11,12
 647 541 647 541 560 541 c 2,13,-1
 350 542 l 1,14,-1
 350 92 l 1,15,-1
 152 0 l 1,16,-1
 150 1421 l 1,17,-1
 350 1511 l 1,18,-1
 350 735 l 1,19,-1
 818 1120 l 1,0,-1
EndSplineSet
Validated: 16385
EndChar

StartChar: l
Encoding: 108 108 79
Width: 500
GlyphClass: 2
Flags: W
HStem: 0 21G<150 193.043> 1491 20G<305.556 349.972>
VStem: 150 198<92 1421>
LayerCount: 2
Fore
SplineSet
150 1421 m 1,0,-1
 350 1511 l 1,1,-1
 348 92 l 1,2,-1
 150 0 l 1,3,-1
 150 1421 l 1,0,-1
EndSplineSet
Validated: 1
EndChar

StartChar: m
Encoding: 109 109 80
Width: 1732
GlyphClass: 2
Flags: W
HStem: 0 21G<151.964 195.043 777.956 821.043 1404 1447.04> 908 192<350 776 976 1314.2>
VStem: 152 198<92 908> 778 198<92 908> 1404 198<92 822.638>
CounterMasks: 1 38
LayerCount: 2
Fore
SplineSet
776 908 m 1,0,-1
 350 908 l 1,1,-1
 350 92 l 1,2,-1
 152 0 l 1,3,-1
 150 1100 l 1,4,-1
 1184 1100 l 2,5,6
 1354 1100 1354 1100 1476 981 c 0,7,8
 1596 864 1596 864 1598 694 c 2,9,-1
 1602 422 l 1,10,-1
 1602 92 l 1,11,-1
 1404 0 l 1,12,-1
 1404 418 l 1,13,-1
 1404 689 l 2,14,15
 1404 786 1404 786 1334 850 c 0,16,17
 1274 905 1274 905 1186 906 c 2,18,-1
 976 908 l 1,19,-1
 976 422 l 1,20,-1
 976 92 l 1,21,-1
 778 0 l 1,22,-1
 776 908 l 1,0,-1
EndSplineSet
Validated: 16385
EndChar

StartChar: n
Encoding: 110 110 81
Width: 1106
GlyphClass: 2
Flags: W
HStem: 0 21G<151.964 195.043 778 821.043> 908 192<350 688.203>
VStem: 152 198<92 908> 778 198<92 822.638>
LayerCount: 2
Fore
SplineSet
350 908 m 1,0,-1
 350 92 l 1,1,-1
 152 0 l 1,2,-1
 150 1100 l 1,3,-1
 558 1100 l 2,4,5
 728 1100 728 1100 850 981 c 0,6,7
 969 864 969 864 972 694 c 2,8,-1
 976 422 l 1,9,-1
 976 92 l 1,10,-1
 778 0 l 1,11,-1
 778 418 l 1,12,-1
 778 689 l 2,13,14
 778 786 778 786 708 850 c 0,15,16
 648 905 648 905 560 906 c 2,17,-1
 350 908 l 1,0,-1
EndSplineSet
Validated: 16385
EndChar

StartChar: o
Encoding: 111 111 82
Width: 1082
GlyphClass: 2
Flags: W
HStem: 0 182<407.372 675.978> 938 182<407.469 675.978>
VStem: 130 194<265.89 853.612> 758 194<266.902 853.59>
LayerCount: 2
Fore
SplineSet
324 399 m 2,0,1
 324 303 324 303 394 238 c 0,2,3
 454 182 454 182 542 182 c 0,4,5
 640 182 640 182 698 246 c 1,6,7
 758 310 758 310 758 401 c 2,8,-1
 758 719 l 2,9,10
 758 810 758 810 698 874 c 1,11,12
 640 938 640 938 542 938 c 0,13,14
 455 938 455 938 394 882 c 0,15,16
 324 817 324 817 324 721 c 2,17,-1
 324 560 l 1,18,-1
 324 399 l 2,0,1
952 406 m 2,19,20
 952 235 952 235 832 119 c 0,21,22
 709 0 709 0 542 0 c 0,23,24
 372 0 372 0 251 123 c 0,25,26
 130 245 130 245 130 414 c 2,27,-1
 130 706 l 2,28,29
 130 874 130 874 251 997 c 128,-1,30
 372 1120 372 1120 542 1120 c 0,31,32
 709 1120 709 1120 832 1001 c 0,33,34
 952 886 952 886 952 714 c 2,35,-1
 952 406 l 2,19,20
EndSplineSet
Validated: 16385
EndChar

StartChar: p
Encoding: 112 112 83
Width: 1106
GlyphClass: 2
Flags: W
HStem: -412 21G<150 194.444> 20 194<350 692.895> 910 190<348 692.943>
VStem: 150 200<-322 20 210 910> 780 196<301.813 829.857>
LayerCount: 2
Fore
SplineSet
150 1100 m 1,0,-1
 560 1100 l 2,1,2
 726 1100 726 1100 852 981 c 0,3,4
 976 864 976 864 976 703 c 0,5,6
 976 701 976 701 976 698 c 2,7,-1
 972 426 l 2,8,9
 970 256 970 256 850 139 c 0,10,11
 728 20 728 20 558 20 c 2,12,-1
 350 20 l 1,13,-1
 350 -322 l 1,14,-1
 150 -412 l 1,15,-1
 150 1100 l 1,0,-1
780 705 m 2,16,17
 780 803 780 803 706 858 c 0,18,19
 655 896 655 896 562 910 c 1,20,-1
 348 910 l 1,21,-1
 349 210 l 1,22,-1
 560 214 l 1,23,24
 647 214 647 214 708 270 c 0,25,26
 777 334 777 334 778 431 c 2,27,-1
 780 705 l 2,16,17
EndSplineSet
Validated: 16385
EndChar

StartChar: q
Encoding: 113 113 84
Width: 1106
GlyphClass: 2
Flags: W
HStem: 20 194<413.105 756> 910 190<413.057 758>
VStem: 130 196<301.813 829.342> 756 200<-105 20 210 910>
LayerCount: 2
Fore
SplineSet
758 910 m 1,0,-1
 544 910 l 1,1,2
 450 896 450 896 400 858 c 0,3,4
 326 802 326 802 326 708 c 2,5,-1
 326 705 l 1,6,-1
 328 431 l 2,7,8
 329 334 329 334 398 270 c 0,9,10
 459 214 459 214 546 214 c 1,11,-1
 757 210 l 1,12,-1
 758 910 l 1,0,-1
756 -414 m 1,13,-1
 756 20 l 1,14,-1
 548 20 l 2,15,16
 378 20 378 20 256 139 c 0,17,18
 136 256 136 256 134 426 c 2,19,-1
 130 698 l 1,20,21
 130 864 130 864 254 981 c 0,22,23
 380 1100 380 1100 546 1100 c 2,24,-1
 956 1100 l 1,25,-1
 956 -105 l 1,26,-1
 1101 -16 l 1,27,-1
 1101 -228 l 1,28,-1
 756 -414 l 1,13,-1
EndSplineSet
Validated: 1
EndChar

StartChar: r
Encoding: 114 114 85
Width: 767
GlyphClass: 2
Flags: W
HStem: 0 21G<150 193.043> 906 194<429.105 672>
VStem: 150 198<92 827.39>
LayerCount: 2
Fore
SplineSet
348 92 m 1,0,-1
 150 0 l 1,1,-1
 150 694 l 1,2,3
 152 864 152 864 272 981 c 0,4,5
 394 1100 394 1100 564 1100 c 2,6,-1
 762 1100 l 1,7,-1
 672 908 l 1,8,-1
 562 906 l 2,9,10
 471 904 471 904 414 850 c 0,11,12
 344 785 344 785 344 711 c 2,13,-1
 348 92 l 1,0,-1
EndSplineSet
Validated: 1
EndChar

StartChar: s
Encoding: 115 115 86
Width: 1080
GlyphClass: 2
Flags: W
HStem: 20 190<204 678.133> 906 194<417.13 812>
VStem: 138 194<695.378 822.94> 766 194<289.293 471.875>
DStem2: 372 695 390 501 0.997038 -0.0769143<-43.3079 409.84>
LayerCount: 2
Fore
SplineSet
722 668 m 1,0,1
 855 642 855 642 906 570 c 0,2,3
 960 494 960 494 960 410 c 2,4,-1
 960 397 l 2,5,6
 960 262 960 262 838 139 c 0,7,8
 720 20 720 20 546 20 c 2,9,-1
 120 20 l 1,10,-1
 204 210 l 1,11,-1
 548 210 l 1,12,13
 641 224 641 224 692 262 c 0,14,15
 754 308 754 308 766 386 c 0,16,17
 766 390 766 390 766 395 c 2,18,-1
 765 419 l 2,19,20
 763 470 763 470 718 474 c 2,21,-1
 390 501 l 2,22,23
 151 521 151 521 138 713 c 1,24,-1
 138 766 l 2,25,26
 138 857 138 857 261 981 c 1,27,28
 381 1100 381 1100 553 1100 c 2,29,-1
 902 1100 l 1,30,-1
 812 910 l 1,31,-1
 551 906 l 1,32,33
 466 906 466 906 403 850 c 0,34,35
 332 787 332 787 332 761 c 2,36,-1
 332 751 l 2,37,38
 332 699 332 699 372 695 c 2,39,-1
 722 668 l 1,0,1
EndSplineSet
Validated: 16385
EndChar

StartChar: t
Encoding: 116 116 87
Width: 858
GlyphClass: 2
Flags: W
HStem: 0 21G<318.978 362.043> 912 188<85 317 517 765> 1491 20G<472.556 517>
VStem: 317 200<92 912 1100 1421>
LayerCount: 2
Fore
SplineSet
317 1421 m 1,0,-1
 517 1511 l 1,1,-1
 517 1100 l 1,2,-1
 853 1100 l 1,3,-1
 765 912 l 1,4,-1
 517 912 l 1,5,-1
 517 92 l 1,6,-1
 319 0 l 1,7,-1
 318 912 l 1,8,-1
 5 912 l 1,9,-1
 85 1100 l 1,10,-1
 317 1100 l 1,11,-1
 317 1421 l 1,0,-1
EndSplineSet
Validated: 1
EndChar

StartChar: u
Encoding: 117 117 88
Width: 1106
GlyphClass: 2
Flags: W
HStem: 20 194<413.105 756> 1100 20G<284.957 328 910.957 954.036>
VStem: 130 198<297.362 1028> 756 200<212 1028>
LayerCount: 2
Fore
SplineSet
756 212 m 1,0,-1
 756 1028 l 1,1,-1
 954 1120 l 1,2,-1
 956 20 l 1,3,-1
 548 20 l 2,4,5
 378 20 378 20 256 139 c 0,6,7
 136 256 136 256 134 426 c 2,8,-1
 130 750 l 1,9,-1
 130 1028 l 1,10,-1
 328 1120 l 1,11,-1
 328 754 l 1,12,-1
 328 431 l 2,13,14
 328 334 328 334 398 270 c 0,15,16
 458 215 458 215 546 214 c 2,17,-1
 756 212 l 1,0,-1
EndSplineSet
Validated: 16385
EndChar

StartChar: v
Encoding: 118 118 89
Width: 1034
GlyphClass: 2
Flags: W
HStem: 0 21G<410.51 461.415> 1100 20G<173.238 225.094 825.921 879.946>
DStem2: 218 1120 30 1036 0.350727 -0.936478<12.7274 861.429> 506 308 596 82 0.389765 0.920915<0 873.738>
LayerCount: 2
Fore
SplineSet
596 82 m 1,0,-1
 418 0 l 1,1,-1
 30 1036 l 1,2,-1
 218 1120 l 1,3,-1
 506 308 l 1,4,-1
 834 1120 l 1,5,-1
 1004 1046 l 1,6,-1
 596 82 l 1,0,-1
EndSplineSet
Validated: 16385
EndChar

StartChar: w
Encoding: 119 119 90
Width: 1732
GlyphClass: 2
Flags: W
HStem: 20 192<417.797 756 956 1382> 1100 20G<284.957 328 910.957 954.044 1536.96 1580.04>
VStem: 130 198<297.362 1027> 756 200<212 1028> 1382 200<212 1028>
LayerCount: 2
Fore
SplineSet
956 212 m 1,0,-1
 1382 212 l 1,1,-1
 1382 1028 l 1,2,-1
 1580 1120 l 1,3,-1
 1582 20 l 1,4,-1
 548 20 l 2,5,6
 378 20 378 20 256 139 c 0,7,8
 136 256 136 256 134 426 c 2,9,-1
 130 750 l 1,10,-1
 130 1027 l 1,11,-1
 328 1119 l 1,12,-1
 328 754 l 1,13,-1
 328 431 l 2,14,15
 328 334 328 334 398 270 c 0,16,17
 458 215 458 215 546 214 c 2,18,-1
 756 212 l 1,19,-1
 756 750 l 1,20,-1
 756 1028 l 1,21,-1
 954 1120 l 1,22,-1
 956 212 l 1,0,-1
EndSplineSet
Validated: 16385
EndChar

StartChar: x
Encoding: 120 120 91
Width: 994
GlyphClass: 2
Flags: W
HStem: 0 21G<159.263 218.436 769.363 826.927> 1100 20G<172.146 231.944 771.038 828.381>
DStem2: 218 1120 30 1038 0.587708 -0.809073<0 478.998 744.374 1238.8> 34 76 204 0 0.584468 0.811416<37.692 529.774 795.919 1286.64>
LayerCount: 2
Fore
SplineSet
30 1038 m 1,0,-1
 218 1120 l 1,1,-1
 492 727 l 1,2,-1
 786 1120 l 1,3,-1
 964 1036 l 1,4,-1
 606 578 l 1,5,-1
 960 82 l 1,6,-1
 784 0 l 1,7,-1
 492 399 l 1,8,-1
 204 0 l 1,9,-1
 34 76 l 1,10,-1
 378 554 l 1,11,-1
 30 1038 l 1,0,-1
EndSplineSet
Validated: 16385
EndChar

StartChar: y
Encoding: 121 121 92
Width: 1104
GlyphClass: 2
Flags: W
HStem: -394 192<332 670.203> 20 192<412.13 756> 1100 20G<284.957 328 910.957 954>
VStem: 130 198<295.362 1028> 756 198<-120.91 20 210 1028>
LayerCount: 2
Fore
SplineSet
760 20 m 1,0,-1
 548 20 l 2,1,2
 376 20 376 20 256 137 c 128,-1,3
 136 254 136 254 134 424 c 2,4,-1
 130 730 l 1,5,-1
 130 1028 l 1,6,-1
 328 1120 l 1,7,8
 328 927 328 927 328 734 c 2,9,-1
 328 429 l 2,10,11
 328 332 328 332 398 268 c 0,12,13
 458 213 458 213 546 212 c 2,14,-1
 756 210 l 1,15,-1
 756 1028 l 1,16,-1
 954 1120 l 1,17,-1
 954 30 l 1,18,19
 952 -158 952 -158 832 -275 c 0,20,21
 710 -394 710 -394 540 -394 c 2,22,-1
 242 -394 l 1,23,-1
 332 -202 l 1,24,-1
 542 -200 l 2,25,26
 630 -199 630 -199 690 -144 c 0,27,28
 760 -80 760 -80 760 -5 c 2,29,-1
 760 20 l 1,0,-1
EndSplineSet
Validated: 16385
EndChar

StartChar: z
Encoding: 122 122 93
Width: 1048
GlyphClass: 2
Flags: W
HStem: 20 188<426 860> 912 188<202 610>
DStem2: 100 20 426 208 0.505074 0.863076<326.912 1027.45>
LayerCount: 2
Fore
SplineSet
948 1100 m 1,0,-1
 426 208 l 1,1,-1
 948 208 l 1,2,-1
 860 20 l 1,3,-1
 100 20 l 1,4,-1
 610 912 l 1,5,-1
 122 912 l 1,6,-1
 202 1100 l 1,7,-1
 948 1100 l 1,0,-1
EndSplineSet
Validated: 1
EndChar

StartChar: braceleft
Encoding: 123 123 94
Width: 788
GlyphClass: 2
Flags: W
HStem: -336 182<528.962 694> 612 198<99 246> 1587 183<525.437 691>
VStem: 246 195<-69.6123 612 808 1503.48>
LayerCount: 2
Fore
SplineSet
694 -336 m 1,0,-1
 659 -336 l 2,1,2
 489 -336 489 -336 368 -213 c 128,-1,3
 247 -90 247 -90 247 78 c 2,4,-1
 247 199 l 1,5,-1
 246 612 l 1,6,-1
 10 612 l 1,7,-1
 99 810 l 1,8,-1
 246 808 l 1,9,-1
 246 1332 l 1,10,-1
 247 1357 l 2,11,12
 254 1532 254 1532 368 1648 c 0,13,14
 489 1771 489 1771 649 1771 c 2,15,-1
 659 1771 l 1,16,-1
 696 1770 l 1,17,-1
 776 1770 l 1,18,-1
 691 1587 l 1,19,-1
 675 1587 l 1,20,-1
 659 1589 l 1,21,22
 575 1589 575 1589 511 1533 c 0,23,24
 441 1472 441 1472 441 1372 c 2,25,-1
 441 1349 l 1,26,-1
 441 86 l 1,27,-1
 441 63 l 2,28,29
 441 -37 441 -37 511 -98 c 0,30,31
 575 -154 575 -154 659 -154 c 2,32,-1
 688 -154 l 1,33,-1
 778 -152 l 1,34,-1
 694 -336 l 1,0,-1
EndSplineSet
Validated: 1
EndChar

StartChar: bar
Encoding: 124 124 95
Width: 537
GlyphClass: 2
Flags: W
VStem: 170 197<-140 1560>
LayerCount: 2
Fore
SplineSet
367 -140 m 1,0,-1
 170 -232 l 1,1,-1
 170 1560 l 1,2,-1
 368 1649 l 1,3,-1
 367 -140 l 1,0,-1
EndSplineSet
Validated: 1
EndChar

StartChar: braceright
Encoding: 125 125 96
Width: 788
GlyphClass: 2
Flags: W
HStem: -335 183<97 262.563> 627 196<542 689> 1589 182<94 259.038>
VStem: 347 195<-68.4797 627 823 1504.61>
LayerCount: 2
Fore
SplineSet
94 1771 m 1,0,-1
 129 1771 l 2,1,2
 299 1771 299 1771 420 1648 c 128,-1,3
 541 1525 541 1525 541 1357 c 2,4,-1
 541 1236 l 1,5,-1
 542 823 l 1,6,-1
 778 823 l 1,7,-1
 689 625 l 1,8,-1
 542 627 l 1,9,-1
 542 103 l 1,10,-1
 541 78 l 2,11,12
 534 -97 534 -97 420 -213 c 0,13,14
 299 -336 299 -336 139 -336 c 2,15,-1
 129 -336 l 1,16,-1
 92 -335 l 1,17,-1
 12 -335 l 1,18,-1
 97 -152 l 1,19,-1
 113 -152 l 1,20,-1
 129 -154 l 1,21,22
 213 -154 213 -154 277 -98 c 0,23,24
 347 -37 347 -37 347 63 c 2,25,-1
 347 86 l 1,26,-1
 347 1349 l 1,27,-1
 347 1372 l 2,28,29
 347 1472 347 1472 277 1533 c 0,30,31
 213 1589 213 1589 129 1589 c 2,32,-1
 100 1589 l 1,33,-1
 10 1587 l 1,34,-1
 94 1771 l 1,0,-1
EndSplineSet
Validated: 1
EndChar

StartChar: asciitilde
Encoding: 126 126 97
Width: 1116
GlyphClass: 2
Flags: W
HStem: 527 184<659.36 828.277> 676 183<307.308 474>
DStem2: 416 846 379 670 0.930468 -0.366372<4.91525 387.713>
LayerCount: 2
Fore
SplineSet
379 670 m 2,0,1
 365 676 365 676 354 676 c 0,2,3
 305 674 305 674 285 580 c 1,4,-1
 80 506 l 1,5,-1
 83 541 l 1,6,-1
 86 571 l 1,7,8
 112 846 112 846 342 859 c 0,9,10
 360 860 360 860 373 858 c 0,11,12
 388 856 388 856 416 846 c 0,13,14
 609 777 609 777 746 719 c 0,15,16
 765 711 765 711 780 711 c 0,17,18
 828 712 828 712 833 787 c 0,19,20
 834 802 834 802 834 808 c 1,21,-1
 1036 880 l 1,22,-1
 1035 845 l 1,23,-1
 1031 795 l 2,24,25
 1010 527 1010 527 796 527 c 0,26,27
 779 527 779 527 760 529 c 0,28,29
 727 532 727 532 699 544 c 2,30,-1
 379 670 l 2,0,1
EndSplineSet
Validated: 16385
EndChar

StartChar: exclamdown
Encoding: 161 161 99
Width: 600
GlyphClass: 2
Flags: W
HStem: 0 21G<202 246.944> 1248 264<209.191 390.809>
VStem: 170 260<1287.71 1472.29> 202 200<89 1108>
LayerCount: 2
Fore
SplineSet
430 1380 m 128,-1,1
 430 1325 430 1325 392 1286.5 c 128,-1,2
 354 1248 354 1248 300 1248 c 128,-1,3
 246 1248 246 1248 208 1286.5 c 128,-1,4
 170 1325 170 1325 170 1380 c 128,-1,5
 170 1435 170 1435 208 1473.5 c 128,-1,6
 246 1512 246 1512 300 1512 c 128,-1,7
 354 1512 354 1512 392 1473.5 c 128,-1,0
 430 1435 430 1435 430 1380 c 128,-1,1
402 89 m 1,8,-1
 202 0 l 1,9,-1
 202 1108 l 1,10,-1
 400 1200 l 1,11,-1
 402 89 l 1,8,-1
EndSplineSet
Validated: 16385
EndChar

StartChar: cent
Encoding: 162 162 100
Width: 932
GlyphClass: 2
Flags: W
HStem: 20 190<662 788> 908 192<662 764>
VStem: 130 196<290.861 818.187> 465 197<-134 20 229 892 1100 1251>
LayerCount: 2
Fore
SplineSet
326 415 m 2,0,1
 326 319 326 319 400 262 c 0,2,3
 426 242 426 242 465 229 c 1,4,-1
 464 892 l 1,5,6
 428 878 428 878 398 850 c 0,7,8
 329 786 329 786 328 689 c 2,9,-1
 326 415 l 2,0,1
662 -134 m 1,10,-1
 465 -226 l 1,11,-1
 465 28 l 1,12,13
 348 50 348 50 254 139 c 0,14,15
 130 256 130 256 130 417 c 2,16,-1
 130 422 l 1,17,-1
 134 694 l 2,18,19
 137 865 137 865 256 981 c 0,20,21
 347 1070 347 1070 464 1092 c 1,22,-1
 464 1251 l 1,23,-1
 662 1340 l 1,24,-1
 662 1100 l 1,25,-1
 854 1100 l 1,26,-1
 764 910 l 1,27,-1
 662 908 l 1,28,-1
 662 210 l 1,29,-1
 872 210 l 1,30,-1
 788 20 l 1,31,-1
 662 20 l 1,32,-1
 662 -134 l 1,10,-1
EndSplineSet
Validated: 16385
EndChar

StartChar: sterling
Encoding: 163 163 101
Width: 1102
GlyphClass: 2
Flags: W
HStem: 20 192<390 990> 620 198<140 194 392 633> 1297 194<477.593 820>
VStem: 194 198<212 620 818 1212.23>
LayerCount: 2
Fore
SplineSet
194 620 m 1,0,-1
 50 620 l 1,1,-1
 140 818 l 1,2,-1
 194 818 l 1,3,-1
 194 1083 l 1,4,5
 196 1252 196 1252 320 1372 c 0,6,7
 443 1491 443 1491 612 1491 c 2,8,-1
 910 1491 l 1,9,-1
 820 1299 l 1,10,-1
 610 1297 l 2,11,12
 522 1296 522 1296 462 1241 c 0,13,14
 392 1178 392 1178 392 1102 c 2,15,-1
 392 818 l 1,16,-1
 725 818 l 1,17,-1
 633 620 l 1,18,-1
 391 620 l 1,19,-1
 390 212 l 1,20,-1
 1082 212 l 1,21,-1
 990 20 l 1,22,-1
 194 20 l 1,23,-1
 194 620 l 1,0,-1
EndSplineSet
Validated: 16385
EndChar

StartChar: currency
Encoding: 164 164 102
Width: 1542
GlyphClass: 2
Flags: W
HStem: 267 207<614.555 910.607> 1044 207<614.677 911.907>
VStem: 280 204<606.116 912.648> 1042 203<604.671 911.734>
DStem2: 354 1256 150 1179 0.744078 -0.668093<0 159.658 1104.95 1292.59> 150 336 354 259 0.741942 0.670464<99.7304 262.081 1214.01 1396.95>
LayerCount: 2
Fore
SplineSet
484 759 m 128,-1,1
 484 642 484 642 566 558 c 128,-1,2
 648 474 648 474 762 474 c 0,3,4
 878 474 878 474 960 558 c 128,-1,5
 1042 642 1042 642 1042 755 c 2,6,-1
 1042 758 l 1,7,8
 1041 878 1041 878 960 960 c 0,9,10
 877 1044 877 1044 763 1044 c 0,11,12
 648 1044 648 1044 566 960 c 128,-1,0
 484 876 484 876 484 759 c 128,-1,1
280 759 m 0,13,14
 280 942 280 942 344 1006 c 2,15,-1
 345 1007 l 1,16,-1
 150 1179 l 1,17,-1
 354 1256 l 1,18,-1
 473 1153 l 1,19,20
 495 1170 495 1170 520 1185 c 0,21,22
 633 1251 633 1251 763 1251 c 0,23,24
 890 1251 890 1251 1004 1185 c 0,25,26
 1030 1170 1030 1170 1053 1153 c 1,27,-1
 1187 1272 l 1,28,-1
 1392 1197 l 1,29,-1
 1179 1008 l 1,30,-1
 1180 1006 l 2,31,32
 1244 879 1244 879 1245 759 c 1,33,-1
 1245 755 l 2,34,35
 1245 626 1245 626 1181 513 c 1,36,-1
 1392 324 l 1,37,-1
 1187 249 l 1,38,-1
 1054 366 l 1,39,40
 1030 348 1030 348 1004 333 c 0,41,42
 892 267 892 267 762 267 c 0,43,44
 633 267 633 267 520 333 c 0,45,46
 496 347 496 347 474 364 c 1,47,-1
 354 259 l 1,48,-1
 150 336 l 1,49,-1
 346 510 l 1,50,-1
 344 512 l 1,51,52
 280 625 280 625 280 759 c 0,13,14
EndSplineSet
Validated: 16385
EndChar

StartChar: yen
Encoding: 165 165 103
Width: 1118
GlyphClass: 2
Flags: W
HStem: 0 21G<452 501> 394 196<159 376 698 872> 721 196<199 251 527 563 842 912> 1490 20G<182.255 225.939 904.98 944.196>
VStem: 452 196<80 396>
DStem2: 218 1510 50 1416 0.365583 -0.930779<26.0753 564.016 845.488 891.726> 544 680 698 593 0.40675 0.913539<0 47.0104 340.461 879.107>
LayerCount: 2
Fore
SplineSet
648 80 m 1,0,-1
 452 0 l 1,1,-1
 452 395 l 1,2,-1
 452 396 l 1,3,-1
 51 394 l 1,4,-1
 159 590 l 1,5,-1
 376 591 l 1,6,-1
 326 722 l 1,7,-1
 91 721 l 1,8,-1
 199 917 l 1,9,-1
 251 917 l 1,10,-1
 50 1416 l 1,11,-1
 218 1510 l 1,12,-1
 453 918 l 1,13,-1
 647 919 l 1,14,-1
 914 1511 l 1,15,-1
 1068 1409 l 1,16,-1
 842 920 l 1,17,-1
 1021 921 l 1,18,-1
 912 725 l 1,19,-1
 756 724 l 1,20,-1
 698 593 l 1,21,-1
 981 594 l 1,22,-1
 872 398 l 1,23,-1
 648 397 l 1,24,-1
 648 80 l 1,0,-1
563 723 m 1,25,-1
 527 723 l 1,26,-1
 544 680 l 1,27,-1
 563 723 l 1,25,-1
EndSplineSet
Validated: 16385
EndChar

StartChar: brokenbar
Encoding: 166 166 104
Width: 536
GlyphClass: 2
Flags: W
VStem: 170 196<-171 555 879 1580>
LayerCount: 2
Fore
SplineSet
171 786 m 1,0,-1
 172 1580 l 1,1,-1
 366 1668 l 1,2,-1
 366 879 l 1,3,-1
 171 786 l 1,0,-1
366 648 m 1,4,-1
 366 -171 l 1,5,-1
 170 -262 l 1,6,-1
 170 555 l 1,7,-1
 366 648 l 1,4,-1
EndSplineSet
Validated: 1
EndChar

StartChar: section
Encoding: 167 167 105
Width: 1242
GlyphClass: 2
Flags: W
HStem: 0 194<303 697.87> 426 194<345.952 776.295> 902 194<465.883 896.048> 1316 194<548.13 943>
VStem: 150 194<624.465 825.069> 270 194<1097.81 1232.27> 778 194<274.326 424.188> 898 194<696.931 897.535>
LayerCount: 2
Fore
SplineSet
1092 825 m 1,0,1
 1092 670 1092 670 970 547 c 0,2,3
 959 536 959 536 941 520 c 1,4,5
 967 474 967 474 972 408 c 1,6,-1
 972 355 l 2,7,8
 972 238 972 238 854 119 c 1,9,10
 734 0 734 0 562 0 c 2,11,-1
 213 0 l 1,12,-1
 303 190 l 1,13,-1
 564 194 l 1,14,15
 656 194 656 194 712 250 c 0,16,17
 778 316 778 316 778 360 c 2,18,-1
 778 370 l 2,19,20
 778 422 778 422 738 426 c 1,21,-1
 388 426 l 2,22,23
 365 426 365 426 345 428 c 1,24,-1
 336 428 l 1,25,-1
 336 429 l 1,26,27
 151 451 151 451 151 642 c 1,28,-1
 150 697 l 1,29,30
 150 852 150 852 272 975 c 0,31,32
 288 992 288 992 302 1002 c 1,33,34
 275 1048 275 1048 270 1114 c 1,35,-1
 270 1167 l 2,36,37
 270 1268 270 1268 392 1391 c 1,38,39
 512 1510 512 1510 684 1510 c 2,40,-1
 1033 1510 l 1,41,-1
 943 1320 l 1,42,-1
 682 1316 l 1,43,44
 591 1316 591 1316 534 1260 c 1,45,46
 464 1194 464 1194 464 1162 c 2,47,-1
 464 1152 l 2,48,49
 464 1100 464 1100 504 1096 c 1,50,-1
 854 1096 l 2,51,52
 877 1096 877 1096 898 1094 c 1,53,-1
 906 1094 l 1,54,-1
 906 1093 l 1,55,56
 1091 1071 1091 1071 1091 880 c 1,57,-1
 1092 825 l 1,0,1
550 902 m 1,58,59
 468 888 468 888 418 852 c 0,60,61
 344 799 344 799 344 708 c 0,62,63
 344 704 344 704 344 699 c 2,64,-1
 345 675 l 2,65,66
 347 620 347 620 392 620 c 2,67,-1
 693 620 l 1,68,69
 774 634 774 634 824 670 c 0,70,71
 898 723 898 723 898 814 c 0,72,73
 898 818 898 818 898 823 c 2,74,-1
 897 847 l 2,75,76
 895 902 895 902 850 902 c 2,77,-1
 550 902 l 1,58,59
EndSplineSet
Validated: 16385
EndChar

StartChar: dieresis
Encoding: 168 168 106
Width: 996
GlyphClass: 2
Flags: W
HStem: 1218 294<166.411 379.589 616.411 829.589>
VStem: 120 306<1262.35 1467.65> 570 306<1265.35 1470.65>
LayerCount: 2
Fore
SplineSet
570 1368 m 128,-1,1
 570 1429 570 1429 615 1472 c 128,-1,2
 660 1515 660 1515 723 1515 c 128,-1,3
 786 1515 786 1515 831 1472 c 128,-1,4
 876 1429 876 1429 876 1368 c 128,-1,5
 876 1307 876 1307 831 1264 c 128,-1,6
 786 1221 786 1221 723 1221 c 128,-1,7
 660 1221 660 1221 615 1264 c 128,-1,0
 570 1307 570 1307 570 1368 c 128,-1,1
120 1365 m 128,-1,9
 120 1426 120 1426 165 1469 c 128,-1,10
 210 1512 210 1512 273 1512 c 128,-1,11
 336 1512 336 1512 381 1469 c 128,-1,12
 426 1426 426 1426 426 1365 c 128,-1,13
 426 1304 426 1304 381 1261 c 128,-1,14
 336 1218 336 1218 273 1218 c 128,-1,15
 210 1218 210 1218 165 1261 c 128,-1,8
 120 1304 120 1304 120 1365 c 128,-1,9
EndSplineSet
Validated: 16385
EndChar

StartChar: copyright
Encoding: 169 169 107
Width: 1261
GlyphClass: 2
Flags: W
HStem: 180 79<444.499 817.229> 393 140<529.039 804> 986 140<529.224 787> 1251 80<441.931 819.969>
VStem: 80 74<566.018 943.982> 321 159<568.724 945.706> 1106 75<560.265 949.908>
LayerCount: 2
Fore
SplineSet
631 1331 m 0,0,1
 741 1331 741 1331 841 1288 c 0,2,3
 937 1247 937 1247 1020 1161 c 0,4,5
 1100 1078 1100 1078 1141 975 c 0,6,7
 1181 874 1181 874 1181 754 c 0,8,9
 1181 638 1181 638 1141 535 c 0,10,11
 1103 437 1103 437 1020 350 c 0,12,13
 941 267 941 267 841 223 c 0,14,15
 743 180 743 180 631 180 c 0,16,17
 520 180 520 180 420 223 c 0,18,19
 324 264 324 264 241 350 c 0,20,21
 160 434 160 434 120 535 c 128,-1,22
 80 636 80 636 80 754 c 0,23,24
 80 873 80 873 120 975 c 128,-1,25
 160 1077 160 1077 241 1161 c 0,26,27
 322 1246 322 1246 420 1288.5 c 128,-1,28
 518 1331 518 1331 631 1331 c 0,0,1
631 1251 m 0,29,30
 533 1251 533 1251 450 1215 c 128,-1,31
 367 1179 367 1179 296 1105 c 0,32,33
 226 1032 226 1032 190 944 c 128,-1,34
 154 856 154 856 154 759 c 2,35,-1
 154 754 l 2,36,37
 154 655 154 655 190 566 c 0,38,39
 224 483 224 483 296 406 c 0,40,41
 366 332 366 332 449 296 c 0,42,43
 534 259 534 259 631 259 c 128,-1,44
 728 259 728 259 813 296 c 0,45,46
 896 332 896 332 967 406 c 0,47,48
 1036 478 1036 478 1071 565 c 128,-1,49
 1106 652 1106 652 1106 754 c 0,50,51
 1106 857 1106 857 1071 945 c 0,52,53
 1037 1031 1037 1031 967 1105 c 0,54,55
 898 1178 898 1178 813 1215 c 0,56,57
 728 1251 728 1251 631 1251 c 0,29,30
626 984 m 0,58,59
 567 983 567 983 528 951 c 0,60,61
 483 913 483 913 482 857 c 2,62,-1
 480 652 l 1,63,-1
 480 651 l 2,64,65
 480 596 480 596 528 564 c 0,66,67
 561 541 561 541 626 533 c 1,68,-1
 874 533 l 1,69,-1
 804 393 l 1,70,-1
 626 393 l 2,71,72
 505 393 505 393 413 470 c 128,-1,73
 321 547 321 547 321 653 c 0,74,75
 321 655 321 655 321 656 c 2,76,-1
 324 860 l 2,77,78
 326 973 326 973 414 1049 c 0,79,80
 503 1126 503 1126 628 1126 c 2,81,-1
 862 1126 l 1,82,-1
 787 986 l 1,83,-1
 781 986 l 1,84,85
 627 984 627 984 626 984 c 0,58,59
EndSplineSet
Validated: 16385
EndChar

StartChar: ordfeminine
Encoding: 170 170 108
Width: 1083
GlyphClass: 2
Flags: W
HStem: 528 198<170 911> 770 141<451.038 683> 1365 144<451.192 682>
VStem: 247 156<946.88 1327.35> 683 157<911 1367>
LayerCount: 2
Fore
SplineSet
170 726 m 1,0,-1
 1003 726 l 1,1,-1
 911 528 l 1,2,-1
 80 528 l 1,3,-1
 170 726 l 1,0,-1
840 1509 m 1,4,-1
 840 770 l 1,5,-1
 545 770 l 2,6,7
 426 770 426 770 337 847 c 0,8,9
 247 925 247 925 247 1032 c 2,10,11
 247 1032 247 1032 247 1036 c 2,12,-1
 250 1241 l 2,13,14
 252 1355 252 1355 338 1431 c 0,15,16
 426 1509 426 1509 547 1509 c 2,17,-1
 840 1509 l 1,4,-1
403 1031 m 2,18,19
 403 976 403 976 450 943 c 0,20,21
 483 920 483 920 545 911 c 1,22,-1
 683 911 l 1,23,-1
 682 1367 l 1,24,-1
 545 1365 l 2,25,26
 488 1364 488 1364 450 1332 c 0,27,28
 406 1294 406 1294 405 1238 c 2,29,-1
 403 1031 l 2,18,19
EndSplineSet
Validated: 16385
EndChar

StartChar: guillemotleft
Encoding: 171 171 109
Width: 1066
GlyphClass: 2
Flags: W
DStem2: 322 702 100 687 0.577331 -0.81651<0 409.443> 100 687 322 702 0.5547 0.83205<135.624 553.313> 682 711 460 696 0.577331 -0.81651<0 409.443> 460 696 682 711 0.5547 0.83205<135.624 553.313>
LayerCount: 2
Fore
SplineSet
810 1221 m 1,0,-1
 904 1065 l 1,1,-1
 682 711 l 1,2,-1
 916 375 l 1,3,-1
 810 201 l 1,4,-1
 460 696 l 1,5,-1
 810 1221 l 1,0,-1
450 1212 m 1,6,-1
 544 1056 l 1,7,-1
 322 702 l 1,8,-1
 556 366 l 1,9,-1
 450 192 l 1,10,-1
 100 687 l 1,11,-1
 450 1212 l 1,6,-1
EndSplineSet
Validated: 16385
EndChar

StartChar: logicalnot
Encoding: 172 172 110
Width: 1083
GlyphClass: 2
Flags: W
HStem: 600 198<170 706>
VStem: 600 204<388 592>
LayerCount: 2
Fore
SplineSet
170 798 m 1,0,-1
 1003 798 l 1,1,-1
 804 388 l 1,2,-1
 600 388 l 1,3,-1
 706 600 l 1,4,-1
 80 600 l 1,5,-1
 170 798 l 1,0,-1
EndSplineSet
Validated: 1
EndChar

StartChar: uni00AD
Encoding: 173 173 111
Width: 1083
GlyphClass: 2
Flags: W
HStem: 600 198<170 911>
LayerCount: 2
Fore
SplineSet
170 798 m 1,0,-1
 1003 798 l 1,1,-1
 911 600 l 1,2,-1
 80 600 l 1,3,-1
 170 798 l 1,0,-1
EndSplineSet
Validated: 1
EndChar

StartChar: registered
Encoding: 174 174 112
Width: 1261
GlyphClass: 2
Flags: W
HStem: 180 79<444.499 817.229> 572 128<518 679> 1005 128<517 787.75> 1251 80<441.931 819.969>
VStem: 80 74<566.018 943.982> 368 150<430 572 700 1005> 796 148<721.599 990.487> 1106 75<560.265 949.908>
LayerCount: 2
Fore
SplineSet
631 1331 m 0,0,1
 741 1331 741 1331 841 1288 c 0,2,3
 937 1247 937 1247 1020 1161 c 0,4,5
 1100 1078 1100 1078 1141 975 c 0,6,7
 1181 874 1181 874 1181 754 c 0,8,9
 1181 638 1181 638 1141 535 c 0,10,11
 1103 437 1103 437 1020 350 c 0,12,13
 941 267 941 267 841 223 c 0,14,15
 743 180 743 180 631 180 c 0,16,17
 520 180 520 180 420 223 c 0,18,19
 324 264 324 264 241 350 c 0,20,21
 160 434 160 434 120 535 c 128,-1,22
 80 636 80 636 80 754 c 0,23,24
 80 873 80 873 120 975 c 128,-1,25
 160 1077 160 1077 241 1161 c 0,26,27
 322 1246 322 1246 420 1288.5 c 128,-1,28
 518 1331 518 1331 631 1331 c 0,0,1
631 1251 m 0,29,30
 533 1251 533 1251 450 1215 c 128,-1,31
 367 1179 367 1179 296 1105 c 0,32,33
 226 1032 226 1032 190 944 c 128,-1,34
 154 856 154 856 154 759 c 2,35,-1
 154 754 l 2,36,37
 154 655 154 655 190 566 c 0,38,39
 224 483 224 483 296 406 c 0,40,41
 366 332 366 332 449 296 c 0,42,43
 534 259 534 259 631 259 c 128,-1,44
 728 259 728 259 813 296 c 0,45,46
 896 332 896 332 967 406 c 0,47,48
 1036 478 1036 478 1071 565 c 128,-1,49
 1106 652 1106 652 1106 754 c 0,50,51
 1106 857 1106 857 1071 945 c 0,52,53
 1037 1031 1037 1031 967 1105 c 0,54,55
 898 1178 898 1178 813 1215 c 0,56,57
 728 1251 728 1251 631 1251 c 0,29,30
517 1005 m 1,58,-1
 518 700 l 1,59,-1
 695 701 l 2,60,61
 743 701 743 701 770 721 c 0,62,63
 795 740 795 740 795 781 c 2,64,-1
 796 930 l 1,65,66
 796 930 796 930 796 931 c 0,67,68
 796 964 796 964 764 984 c 0,69,70
 741 999 741 999 695 1005 c 1,71,-1
 517 1005 l 1,58,-1
695 1132 m 2,72,73
 794 1132 794 1132 868 1073 c 0,74,75
 944 1012 944 1012 944 929 c 0,76,77
 944 928 944 928 944 927 c 2,78,-1
 942 778 l 2,79,80
 941 691 941 691 867 631 c 0,81,82
 849 616 849 616 830 605 c 1,83,-1
 953 434 l 1,84,-1
 813 378 l 1,85,-1
 679 571 l 1,86,-1
 518 572 l 1,87,-1
 518 430 l 1,88,-1
 368 374 l 1,89,-1
 368 1133 l 1,90,-1
 695 1132 l 2,72,73
EndSplineSet
Validated: 16385
EndChar

StartChar: macron
Encoding: 175 175 113
Width: 1083
GlyphClass: 2
Flags: W
HStem: 1314 198<170 911>
LayerCount: 2
Fore
SplineSet
170 1512 m 1,0,-1
 1003 1512 l 1,1,-1
 911 1314 l 1,2,-1
 80 1314 l 1,3,-1
 170 1512 l 1,0,-1
EndSplineSet
Validated: 1
EndChar

StartChar: degree
Encoding: 176 176 114
Width: 912
GlyphClass: 2
Flags: W
HStem: 852 162<338.087 573.913> 1350 162<338.087 573.913>
VStem: 120 162<1069.54 1294.46> 630 162<1069.54 1294.46>
LayerCount: 2
Fore
SplineSet
282 1182 m 128,-1,1
 282 1112 282 1112 333 1063 c 128,-1,2
 384 1014 384 1014 456 1014 c 128,-1,3
 528 1014 528 1014 579 1063 c 128,-1,4
 630 1112 630 1112 630 1182 c 128,-1,5
 630 1252 630 1252 579 1301 c 128,-1,6
 528 1350 528 1350 456 1350 c 128,-1,7
 384 1350 384 1350 333 1301 c 128,-1,0
 282 1252 282 1252 282 1182 c 128,-1,1
120 1182 m 128,-1,9
 120 1319 120 1319 218.5 1415.5 c 128,-1,10
 317 1512 317 1512 456 1512 c 128,-1,11
 595 1512 595 1512 693.5 1415.5 c 128,-1,12
 792 1319 792 1319 792 1182 c 128,-1,13
 792 1045 792 1045 693.5 948.5 c 128,-1,14
 595 852 595 852 456 852 c 128,-1,15
 317 852 317 852 218.5 948.5 c 128,-1,8
 120 1045 120 1045 120 1182 c 128,-1,9
EndSplineSet
Validated: 16385
EndChar

StartChar: plusminus
Encoding: 177 177 115
Width: 1223
GlyphClass: 2
Flags: W
HStem: 174 198<240 981> 753 198<240 512 710 981>
VStem: 512 198<481 753 951 1221>
LayerCount: 2
Fore
SplineSet
710 481 m 1,0,-1
 512 391 l 1,1,-1
 512 753 l 1,2,-1
 150 753 l 1,3,-1
 240 951 l 1,4,-1
 512 951 l 1,5,-1
 512 1221 l 1,6,-1
 710 1313 l 1,7,-1
 710 951 l 1,8,-1
 1073 951 l 1,9,-1
 981 753 l 1,10,-1
 710 753 l 1,11,-1
 710 481 l 1,0,-1
240 372 m 1,12,-1
 1073 372 l 1,13,-1
 981 174 l 1,14,-1
 150 174 l 1,15,-1
 240 372 l 1,12,-1
EndSplineSet
Validated: 16385
EndChar

StartChar: uni00B2
Encoding: 178 178 116
Width: 906
GlyphClass: 2
Flags: W
HStem: 759 132<313 690> 1048 133<315.47 564> 1379 130<217 526.959>
VStem: 162 151<891 1047.94> 564 151<1180.06 1345.99>
LayerCount: 2
Fore
SplineSet
162 1062 m 1,0,1
 167 1120 167 1120 207 1150.5 c 128,-1,2
 247 1181 247 1181 320 1181 c 2,3,-1
 560 1180 l 1,4,5
 560 1180 560 1180 563 1180 c 1,6,7
 564 1182 564 1182 564 1187 c 2,8,-1
 564 1257 l 1,9,10
 563 1315 563 1315 528 1347 c 0,11,12
 495 1376 495 1376 424 1376 c 2,13,-1
 150 1379 l 1,14,-1
 217 1509 l 1,15,-1
 428 1509 l 2,16,17
 546 1509 546 1509 631 1436 c 0,18,19
 713 1365 713 1365 715 1260 c 1,20,-1
 715 1168 l 1,21,22
 713 1147 713 1147 706 1129 c 128,-1,23
 699 1111 699 1111 683.5 1091.5 c 128,-1,24
 668 1072 668 1072 637.5 1061 c 128,-1,25
 607 1050 607 1050 563 1049 c 2,26,-1
 317 1048 l 2,27,28
 316 1048 316 1048 315 1048 c 0,29,30
 314 1046 314 1046 314 1041 c 2,31,-1
 313 891 l 1,32,-1
 756 891 l 1,33,-1
 690 759 l 1,34,-1
 162 759 l 1,35,-1
 162 1062 l 1,0,1
EndSplineSet
Validated: 16385
EndChar

StartChar: uni00B3
Encoding: 179 179 117
Width: 932
GlyphClass: 2
Flags: W
HStem: 777 131<227 565.896> 1100 129<555 605> 1387 125<238 508>
VStem: 605 157<938.975 1099.97>
LayerCount: 2
Fore
SplineSet
508 1387 m 1,0,-1
 166 1387 l 1,1,-1
 238 1512 l 1,2,-1
 782 1512 l 1,3,-1
 555 1228 l 1,4,-1
 603 1229 l 1,5,-1
 607 1229 l 2,6,7
 750 1229 750 1229 762 1113 c 1,8,-1
 762 1112 l 1,9,-1
 762 1022 l 1,10,11
 760 919 760 919 673 849 c 0,12,13
 585 778 585 778 461 778 c 2,14,-1
 150 777 l 1,15,-1
 227 908 l 1,16,-1
 457 908 l 2,17,18
 532 908 532 908 567 938 c 0,19,20
 604 969 604 969 605 1025 c 1,21,-1
 605 1094 l 2,22,23
 605 1099 605 1099 604 1100 c 0,24,25
 603 1100 603 1100 600 1100 c 2,26,-1
 285 1099 l 1,27,-1
 508 1387 l 1,0,-1
EndSplineSet
Validated: 1
EndChar

StartChar: acute
Encoding: 180 180 118
Width: 742
GlyphClass: 2
Flags: W
HStem: 1131 384
VStem: 150 442
DStem2: 150 1257 280 1131 0.770645 0.637264<19.8886 404.856>
LayerCount: 2
Fore
SplineSet
462 1515 m 1,0,-1
 592 1389 l 1,1,-1
 280 1131 l 1,2,-1
 150 1257 l 1,3,-1
 462 1515 l 1,0,-1
EndSplineSet
Validated: 16385
EndChar

StartChar: uni00B5
Encoding: 181 181 119
Width: 1106
GlyphClass: 2
Flags: W
HStem: 20 194<414.137 756> 1100 20G<284.957 328 910.957 954.036>
VStem: 130 198<-274 83 297.362 1028> 756 200<212 1028>
LayerCount: 2
Fore
SplineSet
130 1028 m 1,0,-1
 328 1120 l 1,1,-1
 328 754 l 1,2,-1
 328 431 l 2,3,4
 328 334 328 334 398 270 c 0,5,6
 458 215 458 215 546 214 c 2,7,-1
 756 212 l 1,8,-1
 756 1028 l 1,9,-1
 954 1120 l 1,10,-1
 956 20 l 1,11,-1
 548 20 l 2,12,13
 425 20 425 20 327 83 c 1,14,-1
 326 -274 l 1,15,-1
 131 -366 l 1,16,-1
 130 1028 l 1,0,-1
EndSplineSet
Validated: 16385
EndChar

StartChar: paragraph
Encoding: 182 182 120
Width: 1106
GlyphClass: 2
Flags: W
HStem: 0 21G<756 799.333> 411 194<413.105 756> 1301 190<413.057 758>
VStem: 130 196<692.813 1220.34> 756 78<36 411 601 1301> 880 76<94 1436>
LayerCount: 2
Fore
SplineSet
758 1301 m 1,0,-1
 544 1301 l 1,1,2
 450 1287 450 1287 400 1249 c 0,3,4
 326 1193 326 1193 326 1099 c 0,5,6
 326 1097 326 1097 326 1096 c 2,7,-1
 328 822 l 2,8,9
 329 725 329 725 398 661 c 0,10,11
 459 605 459 605 546 605 c 1,12,-1
 757 601 l 1,13,-1
 758 1301 l 1,0,-1
956 94 m 1,14,-1
 880 58 l 1,15,-1
 890 1436 l 1,16,-1
 834 1390 l 1,17,-1
 834 36 l 1,18,-1
 756 0 l 1,19,-1
 756 411 l 1,20,-1
 548 411 l 2,21,22
 378 411 378 411 256 530 c 0,23,24
 136 647 136 647 134 817 c 2,25,-1
 130 1089 l 1,26,27
 130 1255 130 1255 254 1372 c 0,28,29
 380 1491 380 1491 546 1491 c 2,30,-1
 956 1491 l 1,31,-1
 956 94 l 1,14,-1
EndSplineSet
Validated: 16385
EndChar

StartChar: periodcentered
Encoding: 183 183 121
Width: 560
GlyphClass: 2
Flags: W
HStem: 562 264<189.191 370.809>
VStem: 150 260<601.707 786.293>
LayerCount: 2
Fore
SplineSet
150 694 m 128,-1,1
 150 749 150 749 188 787.5 c 128,-1,2
 226 826 226 826 280 826 c 128,-1,3
 334 826 334 826 372 787.5 c 128,-1,4
 410 749 410 749 410 694 c 128,-1,5
 410 639 410 639 372 600.5 c 128,-1,6
 334 562 334 562 280 562 c 128,-1,7
 226 562 226 562 188 600.5 c 128,-1,0
 150 639 150 639 150 694 c 128,-1,1
EndSplineSet
Validated: 1
EndChar

StartChar: cedilla
Encoding: 184 184 122
Width: 1222
GlyphClass: 2
Flags: W
HStem: -386 452
VStem: 436 350
LayerCount: 2
Fore
SplineSet
579 66 m 1,0,-1
 786 -142 l 1,1,-1
 562 -386 l 1,2,-1
 436 -256 l 1,3,-1
 552 -142 l 1,4,-1
 462 -50 l 1,5,-1
 579 66 l 1,0,-1
EndSplineSet
Validated: 1
EndChar

StartChar: uni00B9
Encoding: 185 185 123
Width: 570
GlyphClass: 2
Flags: W
VStem: 281 138<799 1311>
LayerCount: 2
Fore
SplineSet
419 799 m 1,0,-1
 281 734 l 1,1,-1
 279 1311 l 1,2,-1
 168 1258 l 1,3,-1
 110 1374 l 1,4,-1
 420 1533 l 1,5,-1
 419 799 l 1,0,-1
EndSplineSet
Validated: 1
EndChar

StartChar: ordmasculine
Encoding: 186 186 124
Width: 1083
GlyphClass: 2
Flags: W
HStem: 528 198<170 911> 751 140<457.13 666.418> 1373 139<457.13 666.169>
VStem: 257 158<928.718 1334.28> 705 158<930.254 1332.75>
LayerCount: 2
Fore
SplineSet
170 726 m 1,0,-1
 1003 726 l 1,1,-1
 911 528 l 1,2,-1
 80 528 l 1,3,-1
 170 726 l 1,0,-1
415 1022 m 2,4,5
 415 964 415 964 462 925 c 0,6,7
 502 891 502 891 561 891 c 0,8,9
 626 891 626 891 665 929 c 0,10,11
 705 969 705 969 705 1024 c 2,12,-1
 705 1240 l 2,13,14
 705 1294 705 1294 665 1334 c 0,15,16
 626 1373 626 1373 561 1373 c 0,17,18
 502 1373 502 1373 462 1339 c 0,19,20
 415 1299 415 1299 415 1241 c 2,21,-1
 415 1022 l 2,4,5
774 832 m 0,22,23
 684 751 684 751 561 751 c 0,24,25
 435 751 435 751 346 834.5 c 128,-1,26
 257 918 257 918 257 1032 c 2,27,-1
 257 1231 l 2,28,29
 257 1345 257 1345 346 1428.5 c 128,-1,30
 435 1512 435 1512 561 1512 c 0,31,32
 683 1512 683 1512 774 1432 c 0,33,34
 863 1353 863 1353 863 1236 c 2,35,-1
 863 1027 l 2,36,37
 863 911 863 911 774 832 c 0,22,23
EndSplineSet
Validated: 16385
EndChar

StartChar: guillemotright
Encoding: 187 187 125
Width: 1066
GlyphClass: 2
Flags: W
DStem2: 256 1212 150 1038 0.577331 -0.81651<80.8758 490.319> 162 348 256 192 0.5547 0.83205<0 417.689> 616 1221 510 1047 0.577331 -0.81651<80.8758 490.319> 522 357 616 201 0.5547 0.83205<0 417.689>
LayerCount: 2
Fore
SplineSet
256 192 m 1,0,-1
 162 348 l 1,1,-1
 384 702 l 1,2,-1
 150 1038 l 1,3,-1
 256 1212 l 1,4,-1
 606 717 l 1,5,-1
 256 192 l 1,0,-1
616 201 m 1,6,-1
 522 357 l 1,7,-1
 744 711 l 1,8,-1
 510 1047 l 1,9,-1
 616 1221 l 1,10,-1
 966 726 l 1,11,-1
 616 201 l 1,6,-1
EndSplineSet
Validated: 16385
EndChar

StartChar: onequarter
Encoding: 188 188 126
Width: 1327
GlyphClass: 2
Flags: W
HStem: 173 118<807 984 1125 1167>
VStem: 281 138<799 1311> 984 141<0 173 290 486>
DStem2: 80 -132 259 -216 0.435903 0.899994<2.42717 1984.44> 659 285 807 291 0.657801 0.753192<101.874 365.177>
LayerCount: 2
Fore
SplineSet
80 -132 m 1,0,-1
 945 1654 l 1,1,-1
 1125 1572 l 1,2,-1
 259 -216 l 1,3,-1
 80 -132 l 1,0,-1
419 799 m 1,4,-1
 281 734 l 1,5,-1
 279 1311 l 1,6,-1
 168 1258 l 1,7,-1
 110 1374 l 1,8,-1
 420 1533 l 1,9,-1
 419 799 l 1,4,-1
807 291 m 1,10,-1
 984 290 l 1,11,-1
 984 486 l 1,12,-1
 807 291 l 1,10,-1
984 173 m 1,13,-1
 584 173 l 1,14,-1
 658 283 l 1,15,-1
 659 285 l 1,16,-1
 990 664 l 1,17,-1
 1125 725 l 1,18,-1
 1125 290 l 1,19,-1
 1247 291 l 1,20,-1
 1167 174 l 1,21,-1
 1125 174 l 1,22,-1
 1124 0 l 1,23,-1
 983 -64 l 1,24,-1
 984 173 l 1,13,-1
EndSplineSet
Validated: 16385
EndChar

StartChar: onehalf
Encoding: 189 189 127
Width: 1513
GlyphClass: 2
Flags: W
HStem: 0 132<950 1327> 289 133<951.531 1201> 620 130<854 1163.96>
VStem: 281 138<799 1311> 799 151<132 288.937> 1201 151<421.063 586.994>
DStem2: 80 -132 259 -216 0.435903 0.899994<2.42717 1984.44>
LayerCount: 2
Fore
SplineSet
799 303 m 1,0,1
 804 361 804 361 844 391.5 c 128,-1,2
 884 422 884 422 956 422 c 2,3,-1
 1197 421 l 1,4,5
 1197 421 1197 421 1200 421 c 1,6,7
 1201 423 1201 423 1201 428 c 2,8,-1
 1201 498 l 1,9,10
 1200 556 1200 556 1165 588 c 0,11,12
 1132 617 1132 617 1061 617 c 2,13,-1
 787 620 l 1,14,-1
 854 750 l 1,15,-1
 1065 750 l 2,16,17
 1183 750 1183 750 1268 677 c 0,18,19
 1350 606 1350 606 1352 501 c 1,20,-1
 1352 409 l 1,21,22
 1350 388 1350 388 1343 370 c 128,-1,23
 1336 352 1336 352 1320.5 332.5 c 128,-1,24
 1305 313 1305 313 1274 302 c 128,-1,25
 1243 291 1243 291 1200 290 c 2,26,-1
 953 289 l 2,27,28
 952 289 952 289 952 289 c 1,29,30
 951 287 951 287 951 282 c 2,31,-1
 950 132 l 1,32,-1
 1393 132 l 1,33,-1
 1327 0 l 1,34,-1
 799 0 l 1,35,-1
 799 303 l 1,0,1
80 -132 m 1,36,-1
 945 1654 l 1,37,-1
 1125 1572 l 1,38,-1
 259 -216 l 1,39,-1
 80 -132 l 1,36,-1
419 799 m 1,40,-1
 281 734 l 1,41,-1
 279 1311 l 1,42,-1
 168 1258 l 1,43,-1
 110 1374 l 1,44,-1
 420 1533 l 1,45,-1
 419 799 l 1,40,-1
EndSplineSet
Validated: 16385
EndChar

StartChar: threequarters
Encoding: 190 190 128
Width: 1643
GlyphClass: 2
Flags: W
HStem: 180 118<1123 1300 1441 1483> 777 131<227 565.896> 1100 128<555 605> 1387 125<238 508>
VStem: 605 157<938.975 1099.97> 1300 141<7 180 297 493>
DStem2: 396 -125 575 -209 0.435903 0.899994<2.42717 1984.44> 975 292 1123 298 0.657801 0.753192<101.874 365.177>
LayerCount: 2
Fore
SplineSet
508 1387 m 1,0,-1
 166 1387 l 1,1,-1
 238 1512 l 1,2,-1
 782 1512 l 1,3,-1
 555 1228 l 1,4,-1
 603 1228 l 1,5,-1
 607 1228 l 2,6,7
 750 1228 750 1228 762 1113 c 1,8,-1
 762 1112 l 1,9,-1
 762 1021 l 1,10,11
 760 918 760 918 673 849 c 0,12,13
 585 778 585 778 461 778 c 2,14,-1
 150 777 l 1,15,-1
 227 908 l 1,16,-1
 457 908 l 2,17,18
 532 908 532 908 567 938 c 0,19,20
 604 969 604 969 605 1024 c 1,21,-1
 605 1093 l 2,22,23
 605 1099 605 1099 604 1100 c 0,24,25
 603 1100 603 1100 600 1100 c 2,26,-1
 285 1099 l 1,27,-1
 508 1387 l 1,0,-1
396 -125 m 1,28,-1
 1261 1661 l 1,29,-1
 1441 1579 l 1,30,-1
 575 -209 l 1,31,-1
 396 -125 l 1,28,-1
1123 298 m 1,32,-1
 1300 297 l 1,33,-1
 1300 493 l 1,34,-1
 1123 298 l 1,32,-1
1300 180 m 1,35,-1
 900 180 l 1,36,-1
 974 290 l 1,37,-1
 975 292 l 1,38,-1
 1306 671 l 1,39,-1
 1441 732 l 1,40,-1
 1441 297 l 1,41,-1
 1563 298 l 1,42,-1
 1483 181 l 1,43,-1
 1441 181 l 1,44,-1
 1440 7 l 1,45,-1
 1299 -57 l 1,46,-1
 1300 180 l 1,35,-1
EndSplineSet
Validated: 1
EndChar

StartChar: questiondown
Encoding: 191 191 129
Width: 1287
GlyphClass: 2
Flags: W
HStem: 0 185<476.184 805.87> 1250 264<588.191 769.809>
VStem: 150 197<325.889 544> 549 260<1289.71 1474.29> 935 202<321.23 512>
LayerCount: 2
Fore
SplineSet
809 1382 m 128,-1,1
 809 1327 809 1327 771 1288.5 c 128,-1,2
 733 1250 733 1250 679 1250 c 128,-1,3
 625 1250 625 1250 587 1288.5 c 128,-1,4
 549 1327 549 1327 549 1382 c 128,-1,5
 549 1437 549 1437 587 1475.5 c 128,-1,6
 625 1514 625 1514 679 1514 c 128,-1,7
 733 1514 733 1514 771 1475.5 c 128,-1,0
 809 1437 809 1437 809 1382 c 128,-1,1
1137 493 m 1,8,9
 1137 291 1137 291 992 144 c 1,10,11
 847 0 847 0 643 0 c 128,-1,12
 439 0 439 0 294.5 144.5 c 128,-1,13
 150 289 150 289 150 493 c 1,14,-1
 151 534 l 1,15,16
 179 684 179 684 293 798 c 0,17,18
 305 810 305 810 507 994 c 0,19,20
 581 1062 581 1062 585 1114 c 2,21,-1
 586 1127 l 1,22,-1
 779 1220 l 1,23,-1
 779 1095 l 1,24,25
 751 958 751 958 615 844 c 1,26,-1
 585 822 l 1,27,28
 383 654 383 654 355 544 c 1,29,-1
 347 500 l 1,30,31
 347 365 347 365 429 270 c 0,32,33
 503 185 503 185 651 185 c 1,34,35
 787 186 787 186 864 281 c 0,36,37
 935 368 935 368 935 500 c 2,38,-1
 935 512 l 1,39,-1
 1135 590 l 1,40,-1
 1137 493 l 1,8,9
EndSplineSet
Validated: 16385
EndChar

StartChar: Agrave
Encoding: 192 192 130
Width: 1408
GlyphClass: 2
Flags: W
HStem: 0 21G<200.987 239.641 1002 1043.2> 464 196<399 1002> 1289 202<398 876.112>
VStem: 201 198<103 464 660 1289> 1002 206<100 464 660 1162.21>
DStem2: 513 1983 383 1857 0.770645 -0.637264<0 384.967>
LayerCount: 2
Fore
SplineSet
399 660 m 1,0,-1
 1003 660 l 1,1,-1
 1003 994 l 2,2,3
 1003 1128 1003 1128 918 1213 c 0,4,5
 841 1290 841 1290 709 1290 c 2,6,-1
 398 1289 l 1,7,-1
 399 660 l 1,0,-1
201 0 m 1,8,-1
 200 1491 l 1,9,-1
 714 1489 l 2,10,11
 919 1488 919 1488 1063 1344 c 0,12,13
 1208 1199 1208 1199 1208 995 c 2,14,-1
 1208 100 l 1,15,-1
 1002 0 l 1,16,-1
 1002 464 l 1,17,-1
 399 464 l 1,18,-1
 400 103 l 1,19,-1
 201 0 l 1,8,-1
513 1983 m 1,20,-1
 825 1725 l 1,21,-1
 695 1599 l 1,22,-1
 383 1857 l 1,23,-1
 513 1983 l 1,20,-1
EndSplineSet
Validated: 1
EndChar

StartChar: Aacute
Encoding: 193 193 131
Width: 1408
GlyphClass: 2
Flags: W
HStem: 0 21G<200.987 239.641 1002 1043.2> 464 196<399 1002> 1289 202<398 876.112>
VStem: 201 198<103 464 660 1289> 1002 206<100 464 660 1162.21>
DStem2: 565 1725 695 1599 0.770645 0.637264<19.8886 404.856>
LayerCount: 2
Fore
SplineSet
399 660 m 1,0,-1
 1003 660 l 1,1,-1
 1003 994 l 2,2,3
 1003 1128 1003 1128 918 1213 c 0,4,5
 841 1290 841 1290 709 1290 c 2,6,-1
 398 1289 l 1,7,-1
 399 660 l 1,0,-1
201 0 m 1,8,-1
 200 1491 l 1,9,-1
 714 1489 l 2,10,11
 919 1488 919 1488 1063 1344 c 0,12,13
 1208 1199 1208 1199 1208 995 c 2,14,-1
 1208 100 l 1,15,-1
 1002 0 l 1,16,-1
 1002 464 l 1,17,-1
 399 464 l 1,18,-1
 400 103 l 1,19,-1
 201 0 l 1,8,-1
877 1983 m 1,20,-1
 1007 1857 l 1,21,-1
 695 1599 l 1,22,-1
 565 1725 l 1,23,-1
 877 1983 l 1,20,-1
EndSplineSet
Validated: 1
EndChar

StartChar: Acircumflex
Encoding: 194 194 132
Width: 1408
GlyphClass: 2
Flags: W
HStem: 0 21G<200.987 239.641 1002 1043.2> 464 196<399 1002> 1289 202<398 876.112> 1750 233<584.5 817.5>
VStem: 201 198<103 464 660 1289> 1002 206<100 464 660 1162.21>
LayerCount: 2
Fore
SplineSet
399 660 m 1,0,-1
 1003 660 l 1,1,-1
 1003 994 l 2,2,3
 1003 1128 1003 1128 918 1213 c 0,4,5
 841 1290 841 1290 709 1290 c 2,6,-1
 398 1289 l 1,7,-1
 399 660 l 1,0,-1
201 0 m 1,8,-1
 200 1491 l 1,9,-1
 714 1489 l 2,10,11
 919 1488 919 1488 1063 1344 c 0,12,13
 1208 1199 1208 1199 1208 995 c 2,14,-1
 1208 100 l 1,15,-1
 1002 0 l 1,16,-1
 1002 464 l 1,17,-1
 399 464 l 1,18,-1
 400 103 l 1,19,-1
 201 0 l 1,8,-1
883 1599 m 1,20,-1
 701 1750 l 1,21,-1
 519 1599 l 1,22,-1
 389 1725 l 1,23,-1
 701 1983 l 1,24,-1
 1013 1725 l 1,25,-1
 883 1599 l 1,20,-1
EndSplineSet
Validated: 1
EndChar

StartChar: Atilde
Encoding: 195 195 133
Width: 1408
GlyphClass: 2
Flags: W
HStem: 0 21G<200.987 239.641 1002 1043.2> 464 196<399 1002> 1289 202<398 876.112>
VStem: 201 198<103 464 660 1289> 1002 206<100 464 660 1162.21>
LayerCount: 2
Fore
SplineSet
399 660 m 5,0,-1
 1003 660 l 5,1,-1
 1003 994 l 6,2,3
 1003 1128 1003 1128 918 1213 c 4,4,5
 841 1290 841 1290 709 1290 c 6,6,-1
 398 1289 l 5,7,-1
 399 660 l 5,0,-1
201 0 m 5,8,-1
 200 1491 l 5,9,-1
 714 1489 l 6,10,11
 919 1488 919 1488 1063 1344 c 4,12,13
 1208 1199 1208 1199 1208 995 c 6,14,-1
 1208 100 l 5,15,-1
 1002 0 l 5,16,-1
 1002 464 l 5,17,-1
 399 464 l 5,18,-1
 400 103 l 5,19,-1
 201 0 l 5,8,-1
973 1995 m 1,20,-1
 1103 1869 l 1,21,-1
 791 1611 l 1,22,-1
 609 1762 l 1,23,-1
 427 1611 l 1,24,-1
 297 1737 l 1,25,-1
 609 1995 l 1,26,-1
 791 1844 l 1,27,-1
 973 1995 l 1,20,-1
EndSplineSet
Validated: 1
EndChar

StartChar: Adieresis
Encoding: 196 196 134
Width: 1408
GlyphClass: 2
Flags: W
HStem: 0 21G<200.987 239.641 1002 1043.2> 464 196<399 1002> 1289 202<398 876.112> 1629 264<382.191 563.809 832.191 1013.81>
VStem: 201 198<103 464 660 1289> 343 260<1668.71 1853.29> 793 260<1671.71 1856.29> 1002 206<100 464 660 1162.21>
LayerCount: 2
Fore
SplineSet
399 660 m 1,0,-1
 1003 660 l 1,1,-1
 1003 994 l 2,2,3
 1003 1128 1003 1128 918 1213 c 0,4,5
 841 1290 841 1290 709 1290 c 2,6,-1
 398 1289 l 1,7,-1
 399 660 l 1,0,-1
201 0 m 1,8,-1
 200 1491 l 1,9,-1
 714 1489 l 2,10,11
 919 1488 919 1488 1063 1344 c 0,12,13
 1208 1199 1208 1199 1208 995 c 2,14,-1
 1208 100 l 1,15,-1
 1002 0 l 1,16,-1
 1002 464 l 1,17,-1
 399 464 l 1,18,-1
 400 103 l 1,19,-1
 201 0 l 1,8,-1
793 1764 m 128,-1,21
 793 1819 793 1819 831 1857.5 c 128,-1,22
 869 1896 869 1896 923 1896 c 128,-1,23
 977 1896 977 1896 1015 1857.5 c 128,-1,24
 1053 1819 1053 1819 1053 1764 c 128,-1,25
 1053 1709 1053 1709 1015 1670.5 c 128,-1,26
 977 1632 977 1632 923 1632 c 128,-1,27
 869 1632 869 1632 831 1670.5 c 128,-1,20
 793 1709 793 1709 793 1764 c 128,-1,21
343 1761 m 128,-1,29
 343 1816 343 1816 381 1854.5 c 128,-1,30
 419 1893 419 1893 473 1893 c 128,-1,31
 527 1893 527 1893 565 1854.5 c 128,-1,32
 603 1816 603 1816 603 1761 c 128,-1,33
 603 1706 603 1706 565 1667.5 c 128,-1,34
 527 1629 527 1629 473 1629 c 128,-1,35
 419 1629 419 1629 381 1667.5 c 128,-1,28
 343 1706 343 1706 343 1761 c 128,-1,29
EndSplineSet
Validated: 1
EndChar

StartChar: Aring
Encoding: 197 197 135
Width: 1408
GlyphClass: 2
Flags: W
HStem: 0 21G<200.987 239.641 1002 1043.2> 464 196<399 1002> 1289 202<398 876.112> 1592 141<634.808 787.366> 1922 142<627.25 786.975>
VStem: 201 198<103 464 660 1289> 464 148<1755.34 1908.17> 810 152<1754.89 1899.83> 1002 206<100 464 660 1162.21>
LayerCount: 2
Fore
SplineSet
399 660 m 1,0,-1
 1003 660 l 1,1,-1
 1003 994 l 2,2,3
 1003 1128 1003 1128 918 1213 c 0,4,5
 841 1290 841 1290 709 1290 c 2,6,-1
 398 1289 l 1,7,-1
 399 660 l 1,0,-1
201 0 m 1,8,-1
 200 1491 l 1,9,-1
 714 1489 l 2,10,11
 919 1488 919 1488 1063 1344 c 0,12,13
 1208 1199 1208 1199 1208 995 c 2,14,-1
 1208 100 l 1,15,-1
 1002 0 l 1,16,-1
 1002 464 l 1,17,-1
 399 464 l 1,18,-1
 400 103 l 1,19,-1
 201 0 l 1,8,-1
703 1922 m 0,20,21
 667 1922 667 1922 640 1894 c 0,22,23
 612 1865 612 1865 612 1828 c 0,24,25
 612 1789 612 1789 641 1761 c 128,-1,26
 670 1733 670 1733 711 1733 c 128,-1,27
 752 1733 752 1733 781 1760.5 c 128,-1,28
 810 1788 810 1788 810 1827 c 0,29,30
 810 1863 810 1863 781 1894 c 0,31,32
 755 1922 755 1922 703 1922 c 0,20,21
464 1835 m 0,33,34
 464 1895 464 1895 497 1946 c 0,35,36
 533 2002 533 2002 588 2032 c 1,37,38
 644 2064 644 2064 713 2064 c 0,39,40
 777 2064 777 2064 838 2032 c 0,41,42
 883 2009 883 2009 925 1945 c 0,43,44
 962 1888 962 1888 962 1822 c 0,45,46
 962 1762 962 1762 929 1710 c 0,47,48
 893 1654 893 1654 838 1623 c 128,-1,49
 783 1592 783 1592 713 1592 c 0,50,51
 652 1592 652 1592 588 1624 c 0,52,53
 525 1656 525 1656 492 1708 c 0,54,55
 464 1753 464 1753 464 1835 c 0,33,34
EndSplineSet
Validated: 1
EndChar

StartChar: AE
Encoding: 198 198 136
Width: 1951
GlyphClass: 2
Flags: W
HStem: 0 21G<200.987 239.641 1001.04 1042> 20 192<1209 1809> 464 196<399 1002> 664 192<1210 1703> 1300 191<398 859.439 1208 1704>
VStem: 201 198<103 464 660 1289> 1003 206<212 464 660 664 856 1161.31>
LayerCount: 2
Fore
SplineSet
201 0 m 1,0,-1
 200 1491 l 1,1,-1
 714 1489 l 2,2,3
 884 1488 884 1488 1012 1389 c 1,4,-1
 1013 1491 l 1,5,-1
 1794 1492 l 1,6,-1
 1704 1300 l 1,7,-1
 1208 1300 l 1,8,-1
 1210 856 l 1,9,-1
 1791 856 l 1,10,-1
 1703 664 l 1,11,-1
 1209 664 l 1,12,-1
 1209 212 l 1,13,-1
 1901 212 l 1,14,-1
 1809 20 l 1,15,-1
 1042 20 l 1,16,-1
 1001 0 l 1,17,-1
 1002 464 l 1,18,-1
 399 464 l 1,19,-1
 400 103 l 1,20,-1
 201 0 l 1,0,-1
399 660 m 1,21,-1
 1003 660 l 1,22,-1
 1003 994 l 2,23,24
 1003 1128 1003 1128 918 1213 c 0,25,26
 841 1290 841 1290 709 1290 c 2,27,-1
 398 1289 l 1,28,-1
 399 660 l 1,21,-1
EndSplineSet
Validated: 1
EndChar

StartChar: Ccedilla
Encoding: 199 199 137
Width: 1246
GlyphClass: 2
Flags: W
HStem: 21 197<734 1054> 1292 199<532.376 1010>
VStem: 200 205<341.904 1163.55>
DStem2: 486 292 345 166 0.686868 -0.726783<-148.183 129.473 367.301 440.553>
LayerCount: 2
Fore
SplineSet
1146 218 m 1,0,-1
 1054 20 l 1,1,-1
 734 21 l 1,2,-1
 899 -145 l 1,3,-1
 675 -389 l 1,4,-1
 549 -259 l 1,5,-1
 665 -145 l 1,6,-1
 575 -53 l 1,7,-1
 651 23 l 1,8,9
 474 37 474 37 345 166 c 0,10,11
 204 307 204 307 201 514 c 1,12,-1
 200 997 l 2,13,14
 200 1201 200 1201 345 1346 c 128,-1,15
 490 1491 490 1491 694 1491 c 2,16,-1
 1104 1491 l 1,17,-1
 1010 1291 l 1,18,-1
 699 1292 l 2,19,20
 567 1292 567 1292 490 1215 c 0,21,22
 405 1130 405 1130 405 999 c 2,23,-1
 405 996 l 1,24,-1
 407 514 l 1,25,26
 409 372 409 372 486 292 c 0,27,28
 557 218 557 218 701 218 c 2,29,-1
 1146 218 l 1,0,-1
EndSplineSet
Validated: 1
EndChar

StartChar: Egrave
Encoding: 200 200 138
Width: 1138
GlyphClass: 2
Flags: W
HStem: 20 192<396 996> 664 192<397 890> 1300 191<395 891>
VStem: 200 196<212 664 856 1300>
DStem2: 513 1983 383 1857 0.770645 -0.637264<0 384.967>
LayerCount: 2
Fore
SplineSet
513 1983 m 1,0,-1
 825 1725 l 1,1,-1
 695 1599 l 1,2,-1
 383 1857 l 1,3,-1
 513 1983 l 1,0,-1
200 1491 m 1,4,-1
 981 1492 l 1,5,-1
 891 1300 l 1,6,-1
 395 1300 l 1,7,-1
 397 856 l 1,8,-1
 978 856 l 1,9,-1
 890 664 l 1,10,-1
 396 664 l 1,11,-1
 396 212 l 1,12,-1
 1088 212 l 1,13,-1
 996 20 l 1,14,-1
 200 20 l 1,15,-1
 200 1491 l 1,4,-1
EndSplineSet
Validated: 1
EndChar

StartChar: Eacute
Encoding: 201 201 139
Width: 1138
GlyphClass: 2
Flags: W
HStem: 20 192<396 996> 664 192<397 890> 1300 191<395 891>
VStem: 200 196<212 664 856 1300>
DStem2: 565 1725 695 1599 0.770645 0.637264<19.8886 404.856>
LayerCount: 2
Fore
SplineSet
877 1983 m 1,0,-1
 1007 1857 l 1,1,-1
 695 1599 l 1,2,-1
 565 1725 l 1,3,-1
 877 1983 l 1,0,-1
200 1491 m 1,4,-1
 981 1492 l 1,5,-1
 891 1300 l 1,6,-1
 395 1300 l 1,7,-1
 397 856 l 1,8,-1
 978 856 l 1,9,-1
 890 664 l 1,10,-1
 396 664 l 1,11,-1
 396 212 l 1,12,-1
 1088 212 l 1,13,-1
 996 20 l 1,14,-1
 200 20 l 1,15,-1
 200 1491 l 1,4,-1
EndSplineSet
Validated: 1
EndChar

StartChar: Ecircumflex
Encoding: 202 202 140
Width: 1138
GlyphClass: 2
Flags: W
HStem: 20 192<396 996> 664 192<397 890> 1300 191<395 891> 1750 233<584.5 817.5>
VStem: 200 196<212 664 856 1300>
LayerCount: 2
Fore
SplineSet
883 1599 m 1,0,-1
 701 1750 l 1,1,-1
 519 1599 l 1,2,-1
 389 1725 l 1,3,-1
 701 1983 l 1,4,-1
 1013 1725 l 1,5,-1
 883 1599 l 1,0,-1
200 1491 m 1,6,-1
 981 1492 l 1,7,-1
 891 1300 l 1,8,-1
 395 1300 l 1,9,-1
 397 856 l 1,10,-1
 978 856 l 1,11,-1
 890 664 l 1,12,-1
 396 664 l 1,13,-1
 396 212 l 1,14,-1
 1088 212 l 1,15,-1
 996 20 l 1,16,-1
 200 20 l 1,17,-1
 200 1491 l 1,6,-1
EndSplineSet
Validated: 1
EndChar

StartChar: Edieresis
Encoding: 203 203 141
Width: 1138
GlyphClass: 2
Flags: W
HStem: 20 192<396 996> 664 192<397 890> 1300 191<395 891> 1629 264<382.191 563.809 832.191 1013.81>
VStem: 200 196<212 664 856 1300> 343 260<1668.71 1853.29> 793 260<1671.71 1856.29>
LayerCount: 2
Fore
SplineSet
793 1764 m 128,-1,1
 793 1819 793 1819 831 1857.5 c 128,-1,2
 869 1896 869 1896 923 1896 c 128,-1,3
 977 1896 977 1896 1015 1857.5 c 128,-1,4
 1053 1819 1053 1819 1053 1764 c 128,-1,5
 1053 1709 1053 1709 1015 1670.5 c 128,-1,6
 977 1632 977 1632 923 1632 c 128,-1,7
 869 1632 869 1632 831 1670.5 c 128,-1,0
 793 1709 793 1709 793 1764 c 128,-1,1
343 1761 m 128,-1,9
 343 1816 343 1816 381 1854.5 c 128,-1,10
 419 1893 419 1893 473 1893 c 128,-1,11
 527 1893 527 1893 565 1854.5 c 128,-1,12
 603 1816 603 1816 603 1761 c 128,-1,13
 603 1706 603 1706 565 1667.5 c 128,-1,14
 527 1629 527 1629 473 1629 c 128,-1,15
 419 1629 419 1629 381 1667.5 c 128,-1,8
 343 1706 343 1706 343 1761 c 128,-1,9
200 1491 m 1,16,-1
 981 1492 l 1,17,-1
 891 1300 l 1,18,-1
 395 1300 l 1,19,-1
 397 856 l 1,20,-1
 978 856 l 1,21,-1
 890 664 l 1,22,-1
 396 664 l 1,23,-1
 396 212 l 1,24,-1
 1088 212 l 1,25,-1
 996 20 l 1,26,-1
 200 20 l 1,27,-1
 200 1491 l 1,16,-1
EndSplineSet
Validated: 1
EndChar

StartChar: Igrave
Encoding: 204 204 142
Width: 598
GlyphClass: 2
Flags: W
HStem: 0 21G<200 243.043> 1491 20G<354 398>
VStem: 200 198<92 1421>
DStem2: 135 1983 5 1857 0.770645 -0.637264<0 384.967>
LayerCount: 2
Fore
SplineSet
135 1983 m 1,0,-1
 447 1725 l 1,1,-1
 317 1599 l 1,2,-1
 5 1857 l 1,3,-1
 135 1983 l 1,0,-1
398 92 m 1,4,-1
 200 0 l 1,5,-1
 200 1421 l 1,6,-1
 398 1511 l 1,7,-1
 398 92 l 1,4,-1
EndSplineSet
Validated: 1
EndChar

StartChar: Iacute
Encoding: 205 205 143
Width: 598
GlyphClass: 2
Flags: W
HStem: 0 21G<200 243.043> 1491 20G<354 398>
VStem: 200 198<92 1421>
DStem2: 151 1725 281 1599 0.770645 0.637264<19.8886 404.856>
LayerCount: 2
Fore
SplineSet
463 1983 m 1,0,-1
 593 1857 l 1,1,-1
 281 1599 l 1,2,-1
 151 1725 l 1,3,-1
 463 1983 l 1,0,-1
398 92 m 1,4,-1
 200 0 l 1,5,-1
 200 1421 l 1,6,-1
 398 1511 l 1,7,-1
 398 92 l 1,4,-1
EndSplineSet
Validated: 1
EndChar

StartChar: Icircumflex
Encoding: 206 206 144
Width: 634
GlyphClass: 2
Flags: W
HStem: 0 21G<217 260.043> 1491 20G<371 415> 1744 233<200.5 433.5>
VStem: 217 198<92 1421>
LayerCount: 2
Fore
SplineSet
499 1593 m 1,0,-1
 317 1744 l 1,1,-1
 135 1593 l 1,2,-1
 5 1719 l 1,3,-1
 317 1977 l 1,4,-1
 629 1719 l 1,5,-1
 499 1593 l 1,0,-1
415 92 m 1,6,-1
 217 0 l 1,7,-1
 217 1421 l 1,8,-1
 415 1511 l 1,9,-1
 415 92 l 1,6,-1
EndSplineSet
Validated: 1
EndChar

StartChar: Idieresis
Encoding: 207 207 145
Width: 720
GlyphClass: 2
Flags: W
HStem: 0 21G<261 304.043> 1491 20G<415 459> 1653 264<44.1914 225.809 494.191 675.809>
VStem: 5 260<1692.71 1877.29> 261 198<92 1421> 455 260<1695.71 1880.29>
LayerCount: 2
Fore
SplineSet
455 1788 m 128,-1,1
 455 1843 455 1843 493 1881.5 c 128,-1,2
 531 1920 531 1920 585 1920 c 128,-1,3
 639 1920 639 1920 677 1881.5 c 128,-1,4
 715 1843 715 1843 715 1788 c 128,-1,5
 715 1733 715 1733 677 1694.5 c 128,-1,6
 639 1656 639 1656 585 1656 c 128,-1,7
 531 1656 531 1656 493 1694.5 c 128,-1,0
 455 1733 455 1733 455 1788 c 128,-1,1
5 1785 m 128,-1,9
 5 1840 5 1840 43 1878.5 c 128,-1,10
 81 1917 81 1917 135 1917 c 128,-1,11
 189 1917 189 1917 227 1878.5 c 128,-1,12
 265 1840 265 1840 265 1785 c 128,-1,13
 265 1730 265 1730 227 1691.5 c 128,-1,14
 189 1653 189 1653 135 1653 c 128,-1,15
 81 1653 81 1653 43 1691.5 c 128,-1,8
 5 1730 5 1730 5 1785 c 128,-1,9
459 92 m 1,16,-1
 261 0 l 1,17,-1
 261 1421 l 1,18,-1
 459 1511 l 1,19,-1
 459 92 l 1,16,-1
EndSplineSet
Validated: 1
EndChar

StartChar: Eth
Encoding: 208 208 146
Width: 1408
GlyphClass: 2
Flags: W
HStem: 20 198<396 885.427> 597 198<101 200 397 699> 1289 202<398 876.112>
VStem: 200 197<218 597 795 1289> 1003 205<341.904 1161.55>
LayerCount: 2
Fore
SplineSet
200 1491 m 1,0,-1
 714 1489 l 2,1,2
 919 1488 919 1488 1063 1344 c 0,3,4
 1208 1199 1208 1199 1208 995 c 2,5,-1
 1207 514 l 1,6,7
 1204 307 1204 307 1063 166 c 0,8,9
 918 21 918 21 714 21 c 2,10,-1
 200 20 l 1,11,-1
 200 597 l 1,12,-1
 11 597 l 1,13,-1
 101 795 l 1,14,-1
 200 795 l 1,15,-1
 200 1491 l 1,0,-1
709 1290 m 2,16,-1
 398 1289 l 1,17,-1
 397 795 l 1,18,-1
 791 795 l 1,19,-1
 699 597 l 1,20,-1
 397 597 l 1,21,-1
 396 218 l 1,22,-1
 707 218 l 2,23,24
 853 218 853 218 922 292 c 1,25,26
 999 372 999 372 1001 514 c 1,27,-1
 1003 994 l 1,28,-1
 1003 997 l 2,29,30
 1003 1128 1003 1128 918 1213 c 0,31,32
 841 1290 841 1290 709 1290 c 2,16,-1
EndSplineSet
Validated: 1
EndChar

StartChar: Ntilde
Encoding: 209 209 147
Width: 1408
GlyphClass: 2
Flags: W
HStem: 0 21G<200.987 239.641 1002.02 1043.2> 1289 202<398 876.112>
VStem: 201 199<103 1289> 1002 206<100 1162.21>
LayerCount: 2
Fore
SplineSet
973 1995 m 1,0,-1
 1103 1869 l 1,1,-1
 791 1611 l 1,2,-1
 609 1762 l 1,3,-1
 427 1611 l 1,4,-1
 297 1737 l 1,5,-1
 609 1995 l 1,6,-1
 791 1844 l 1,7,-1
 973 1995 l 1,0,-1
1002 0 m 1,8,-1
 1003 994 l 2,9,10
 1003 1128 1003 1128 918 1213 c 0,11,12
 841 1290 841 1290 709 1290 c 2,13,-1
 398 1289 l 1,14,-1
 400 103 l 1,15,-1
 201 0 l 1,16,-1
 200 1491 l 1,17,-1
 714 1489 l 2,18,19
 919 1488 919 1488 1063 1344 c 0,20,21
 1208 1199 1208 1199 1208 995 c 2,22,-1
 1208 100 l 1,23,-1
 1002 0 l 1,8,-1
EndSplineSet
Validated: 1
EndChar

StartChar: Ograve
Encoding: 210 210 148
Width: 1387
GlyphClass: 2
Flags: W
HStem: 0 192<542.447 849.768> 1325 186<540.32 850.569>
VStem: 200 198<338.944 1178.62> 986 201<330.912 1184.21>
DStem2: 513 1983 383 1857 0.770645 -0.637264<0 384.967>
LayerCount: 2
Fore
SplineSet
513 1983 m 1,0,-1
 825 1725 l 1,1,-1
 695 1599 l 1,2,-1
 383 1857 l 1,3,-1
 513 1983 l 1,0,-1
683 1325 m 0,4,5
 570 1325 570 1325 485 1235 c 0,6,7
 397 1141 397 1141 397 1011 c 2,8,-1
 398 500 l 2,9,10
 398 377 398 377 484 284.5 c 128,-1,11
 570 192 570 192 692 192 c 0,12,13
 821 192 821 192 908 284 c 0,14,15
 983 363 983 363 986 500 c 1,16,-1
 985 1011 l 2,17,18
 985 1149 985 1149 909 1231 c 1,19,20
 828 1325 828 1325 683 1325 c 0,4,5
200 494 m 2,21,-1
 200 1017 l 2,22,23
 200 1221 200 1221 344.5 1366 c 128,-1,24
 489 1511 489 1511 693 1511 c 128,-1,25
 897 1511 897 1511 1042 1366 c 256,26,27
 1187 1221 1187 1221 1187 1017 c 2,28,-1
 1187 494 l 1,29,30
 1184 287 1184 287 1043 145 c 0,31,32
 898 0 898 0 694 0 c 128,-1,33
 490 0 490 0 345 145 c 128,-1,34
 200 290 200 290 200 494 c 2,21,-1
EndSplineSet
Validated: 1
EndChar

StartChar: Oacute
Encoding: 211 211 149
Width: 1387
GlyphClass: 2
Flags: W
HStem: 0 192<542.447 849.768> 1325 186<540.32 850.569>
VStem: 200 198<338.944 1178.62> 986 201<330.912 1184.21>
DStem2: 565 1725 695 1599 0.770645 0.637264<19.8886 404.856>
LayerCount: 2
Fore
SplineSet
683 1325 m 0,0,1
 570 1325 570 1325 485 1235 c 0,2,3
 397 1141 397 1141 397 1011 c 2,4,-1
 398 500 l 2,5,6
 398 377 398 377 484 284.5 c 128,-1,7
 570 192 570 192 692 192 c 0,8,9
 821 192 821 192 908 284 c 0,10,11
 983 363 983 363 986 500 c 1,12,-1
 985 1011 l 2,13,14
 985 1149 985 1149 909 1231 c 1,15,16
 828 1325 828 1325 683 1325 c 0,0,1
200 494 m 2,17,-1
 200 1017 l 2,18,19
 200 1221 200 1221 344.5 1366 c 128,-1,20
 489 1511 489 1511 693 1511 c 128,-1,21
 897 1511 897 1511 1042 1366 c 256,22,23
 1187 1221 1187 1221 1187 1017 c 2,24,-1
 1187 494 l 1,25,26
 1184 287 1184 287 1043 145 c 0,27,28
 898 0 898 0 694 0 c 128,-1,29
 490 0 490 0 345 145 c 128,-1,30
 200 290 200 290 200 494 c 2,17,-1
877 1983 m 1,31,-1
 1007 1857 l 1,32,-1
 695 1599 l 1,33,-1
 565 1725 l 1,34,-1
 877 1983 l 1,31,-1
EndSplineSet
Validated: 1
EndChar

StartChar: Ocircumflex
Encoding: 212 212 150
Width: 1387
GlyphClass: 2
Flags: W
HStem: 0 192<542.447 849.768> 1325 186<540.32 850.569> 1750 233<584.5 817.5>
VStem: 200 198<338.944 1178.62> 986 201<330.912 1184.21>
LayerCount: 2
Fore
SplineSet
883 1599 m 1,0,-1
 701 1750 l 1,1,-1
 519 1599 l 1,2,-1
 389 1725 l 1,3,-1
 701 1983 l 1,4,-1
 1013 1725 l 1,5,-1
 883 1599 l 1,0,-1
683 1325 m 0,6,7
 570 1325 570 1325 485 1235 c 0,8,9
 397 1141 397 1141 397 1011 c 2,10,-1
 398 500 l 2,11,12
 398 377 398 377 484 284.5 c 128,-1,13
 570 192 570 192 692 192 c 0,14,15
 821 192 821 192 908 284 c 0,16,17
 983 363 983 363 986 500 c 1,18,-1
 985 1011 l 2,19,20
 985 1149 985 1149 909 1231 c 1,21,22
 828 1325 828 1325 683 1325 c 0,6,7
200 494 m 2,23,-1
 200 1017 l 2,24,25
 200 1221 200 1221 344.5 1366 c 128,-1,26
 489 1511 489 1511 693 1511 c 128,-1,27
 897 1511 897 1511 1042 1366 c 256,28,29
 1187 1221 1187 1221 1187 1017 c 2,30,-1
 1187 494 l 1,31,32
 1184 287 1184 287 1043 145 c 0,33,34
 898 0 898 0 694 0 c 128,-1,35
 490 0 490 0 345 145 c 128,-1,36
 200 290 200 290 200 494 c 2,23,-1
EndSplineSet
Validated: 1
EndChar

StartChar: Otilde
Encoding: 213 213 151
Width: 1387
GlyphClass: 2
Flags: W
HStem: 0 192<542.447 849.768> 1325 186<540.32 850.569>
VStem: 200 198<338.944 1178.62> 986 201<330.912 1184.21>
LayerCount: 2
Fore
SplineSet
973 1995 m 1,0,-1
 1103 1869 l 1,1,-1
 791 1611 l 1,2,-1
 609 1762 l 1,3,-1
 427 1611 l 1,4,-1
 297 1737 l 1,5,-1
 609 1995 l 1,6,-1
 791 1844 l 1,7,-1
 973 1995 l 1,0,-1
683 1325 m 0,8,9
 570 1325 570 1325 485 1235 c 0,10,11
 397 1141 397 1141 397 1011 c 2,12,-1
 398 500 l 2,13,14
 398 377 398 377 484 284.5 c 128,-1,15
 570 192 570 192 692 192 c 0,16,17
 821 192 821 192 908 284 c 0,18,19
 983 363 983 363 986 500 c 1,20,-1
 985 1011 l 2,21,22
 985 1149 985 1149 909 1231 c 1,23,24
 828 1325 828 1325 683 1325 c 0,8,9
200 494 m 2,25,-1
 200 1017 l 2,26,27
 200 1221 200 1221 344.5 1366 c 128,-1,28
 489 1511 489 1511 693 1511 c 128,-1,29
 897 1511 897 1511 1042 1366 c 256,30,31
 1187 1221 1187 1221 1187 1017 c 2,32,-1
 1187 494 l 1,33,34
 1184 287 1184 287 1043 145 c 0,35,36
 898 0 898 0 694 0 c 128,-1,37
 490 0 490 0 345 145 c 128,-1,38
 200 290 200 290 200 494 c 2,25,-1
EndSplineSet
Validated: 1
EndChar

StartChar: Odieresis
Encoding: 214 214 152
Width: 1387
GlyphClass: 2
Flags: W
HStem: 0 192<542.447 849.768> 1325 186<540.32 850.569> 1629 264<382.191 563.809 832.191 1013.81>
VStem: 200 198<338.944 1178.62> 343 260<1668.71 1853.29> 793 260<1671.71 1856.29> 986 201<330.912 1184.21>
LayerCount: 2
Fore
SplineSet
793 1764 m 128,-1,1
 793 1819 793 1819 831 1857.5 c 128,-1,2
 869 1896 869 1896 923 1896 c 128,-1,3
 977 1896 977 1896 1015 1857.5 c 128,-1,4
 1053 1819 1053 1819 1053 1764 c 128,-1,5
 1053 1709 1053 1709 1015 1670.5 c 128,-1,6
 977 1632 977 1632 923 1632 c 128,-1,7
 869 1632 869 1632 831 1670.5 c 128,-1,0
 793 1709 793 1709 793 1764 c 128,-1,1
343 1761 m 128,-1,9
 343 1816 343 1816 381 1854.5 c 128,-1,10
 419 1893 419 1893 473 1893 c 128,-1,11
 527 1893 527 1893 565 1854.5 c 128,-1,12
 603 1816 603 1816 603 1761 c 128,-1,13
 603 1706 603 1706 565 1667.5 c 128,-1,14
 527 1629 527 1629 473 1629 c 128,-1,15
 419 1629 419 1629 381 1667.5 c 128,-1,8
 343 1706 343 1706 343 1761 c 128,-1,9
683 1325 m 0,16,17
 570 1325 570 1325 485 1235 c 0,18,19
 397 1141 397 1141 397 1011 c 2,20,-1
 398 500 l 2,21,22
 398 377 398 377 484 284.5 c 128,-1,23
 570 192 570 192 692 192 c 0,24,25
 821 192 821 192 908 284 c 0,26,27
 983 363 983 363 986 500 c 1,28,-1
 985 1011 l 2,29,30
 985 1149 985 1149 909 1231 c 1,31,32
 828 1325 828 1325 683 1325 c 0,16,17
200 494 m 2,33,-1
 200 1017 l 2,34,35
 200 1221 200 1221 344.5 1366 c 128,-1,36
 489 1511 489 1511 693 1511 c 128,-1,37
 897 1511 897 1511 1042 1366 c 256,38,39
 1187 1221 1187 1221 1187 1017 c 2,40,-1
 1187 494 l 1,41,42
 1184 287 1184 287 1043 145 c 0,43,44
 898 0 898 0 694 0 c 128,-1,45
 490 0 490 0 345 145 c 128,-1,46
 200 290 200 290 200 494 c 2,33,-1
EndSplineSet
Validated: 1
EndChar

StartChar: multiply
Encoding: 215 215 153
Width: 1092
GlyphClass: 2
Flags: W
HStem: 367 665
DStem2: 354 1032 150 955 0.707107 -0.707107<0 272.236 470.226 741.048> 150 443 354 367 0.707107 0.707107<90.5097 362.039 560.029 830.143>
LayerCount: 2
Fore
SplineSet
354 367 m 1,0,-1
 150 443 l 1,1,-1
 406 699 l 1,2,-1
 150 955 l 1,3,-1
 354 1032 l 1,4,-1
 546 839 l 1,5,-1
 737 1030 l 1,6,-1
 942 955 l 1,7,-1
 686 699 l 1,8,-1
 943 443 l 1,9,-1
 738 368 l 1,10,-1
 546 559 l 1,11,-1
 354 367 l 1,0,-1
EndSplineSet
Validated: 16385
EndChar

StartChar: Oslash
Encoding: 216 216 154
Width: 1387
GlyphClass: 2
Flags: W
HStem: 0 192<609.371 849.768> 1325 186<540.32 791.033>
VStem: 200 198<343.628 1178.62> 986 201<330.425 1166.9>
DStem2: 297 -84 476 -168 0.33517 0.942158<0 186.401 443.762 1400.06 1662.79 1827.68>
LayerCount: 2
Fore
SplineSet
200 494 m 2,0,-1
 200 1017 l 2,1,2
 200 1221 200 1221 344.5 1366 c 128,-1,3
 489 1511 489 1511 693 1511 c 0,4,5
 779 1511 779 1511 855 1485 c 1,6,-1
 915 1654 l 1,7,-1
 1095 1572 l 1,8,-1
 1027 1381 l 1,9,-1
 1042 1366 l 2,10,11
 1187 1221 1187 1221 1187 1017 c 2,12,-1
 1187 494 l 1,13,14
 1184 286 1184 286 1043 145 c 0,15,16
 898 0 898 0 694 0 c 0,17,18
 614 0 614 0 544 22 c 1,19,-1
 476 -168 l 1,20,-1
 297 -84 l 1,21,-1
 370 121 l 1,22,23
 357 133 357 133 345 145 c 0,24,25
 200 290 200 290 200 494 c 2,0,-1
683 1325 m 0,26,27
 570 1325 570 1325 485 1235 c 0,28,29
 397 1142 397 1142 397 1011 c 2,30,-1
 398 500 l 2,31,32
 398 408 398 408 446 334 c 1,33,-1
 792 1309 l 1,34,35
 743 1325 743 1325 683 1325 c 0,26,27
952 1169 m 1,36,-1
 608 204 l 1,37,38
 648 192 648 192 692 192 c 0,39,40
 821 192 821 192 908 284 c 0,41,42
 983 363 983 363 986 500 c 1,43,-1
 985 1011 l 2,44,45
 985 1102 985 1102 952 1169 c 1,36,-1
EndSplineSet
Validated: 1
EndChar

StartChar: Ugrave
Encoding: 217 217 155
Width: 1408
GlyphClass: 2
Flags: W
HStem: 22 199<531.938 1010> 1492 20G<364.8 405.98 1168.36 1207.01>
VStem: 200 205<349.688 1412> 1010 198<222 1408>
DStem2: 513 1983 383 1857 0.770645 -0.637264<0 384.967>
LayerCount: 2
Fore
SplineSet
513 1983 m 1,0,-1
 825 1725 l 1,1,-1
 695 1599 l 1,2,-1
 383 1857 l 1,3,-1
 513 1983 l 1,0,-1
406 1512 m 1,4,-1
 405 517 l 2,5,6
 405 383 405 383 490 298 c 0,7,8
 567 221 567 221 699 221 c 2,9,-1
 1010 222 l 1,10,-1
 1008 1408 l 1,11,-1
 1207 1511 l 1,12,-1
 1208 20 l 1,13,-1
 694 22 l 2,14,15
 489 23 489 23 345 167 c 0,16,17
 200 312 200 312 200 516 c 2,18,-1
 200 1412 l 1,19,-1
 406 1512 l 1,4,-1
EndSplineSet
Validated: 1
EndChar

StartChar: Uacute
Encoding: 218 218 156
Width: 1408
GlyphClass: 2
Flags: W
HStem: 22 199<531.938 1010> 1492 20G<364.8 405.98 1168.36 1207.01>
VStem: 200 205<349.688 1412> 1010 198<222 1408>
DStem2: 565 1725 695 1599 0.770645 0.637264<19.8886 404.856>
LayerCount: 2
Fore
SplineSet
877 1983 m 1,0,-1
 1007 1857 l 1,1,-1
 695 1599 l 1,2,-1
 565 1725 l 1,3,-1
 877 1983 l 1,0,-1
406 1512 m 1,4,-1
 405 517 l 2,5,6
 405 383 405 383 490 298 c 0,7,8
 567 221 567 221 699 221 c 2,9,-1
 1010 222 l 1,10,-1
 1008 1408 l 1,11,-1
 1207 1511 l 1,12,-1
 1208 20 l 1,13,-1
 694 22 l 2,14,15
 489 23 489 23 345 167 c 0,16,17
 200 312 200 312 200 516 c 2,18,-1
 200 1412 l 1,19,-1
 406 1512 l 1,4,-1
EndSplineSet
Validated: 1
EndChar

StartChar: Ucircumflex
Encoding: 219 219 157
Width: 1408
GlyphClass: 2
Flags: W
HStem: 22 199<531.938 1010> 1492 20G<364.8 405.98 1168.36 1207.01> 1750 233<584.5 817.5>
VStem: 200 205<349.688 1412> 1010 198<222 1408>
LayerCount: 2
Fore
SplineSet
883 1599 m 1,0,-1
 701 1750 l 1,1,-1
 519 1599 l 1,2,-1
 389 1725 l 1,3,-1
 701 1983 l 1,4,-1
 1013 1725 l 1,5,-1
 883 1599 l 1,0,-1
406 1512 m 1,6,-1
 405 517 l 2,7,8
 405 383 405 383 490 298 c 0,9,10
 567 221 567 221 699 221 c 2,11,-1
 1010 222 l 1,12,-1
 1008 1408 l 1,13,-1
 1207 1511 l 1,14,-1
 1208 20 l 1,15,-1
 694 22 l 2,16,17
 489 23 489 23 345 167 c 0,18,19
 200 312 200 312 200 516 c 2,20,-1
 200 1412 l 1,21,-1
 406 1512 l 1,6,-1
EndSplineSet
Validated: 1
EndChar

StartChar: Udieresis
Encoding: 220 220 158
Width: 1408
GlyphClass: 2
Flags: W
HStem: 22 199<531.938 1010> 1492 20G<364.8 405.98 1168.36 1207.01> 1629 264<382.191 563.809 832.191 1013.81>
VStem: 200 205<349.688 1412> 343 260<1668.71 1853.29> 793 260<1671.71 1856.29> 1010 198<222 1408>
LayerCount: 2
Fore
SplineSet
793 1764 m 128,-1,1
 793 1819 793 1819 831 1857.5 c 128,-1,2
 869 1896 869 1896 923 1896 c 128,-1,3
 977 1896 977 1896 1015 1857.5 c 128,-1,4
 1053 1819 1053 1819 1053 1764 c 128,-1,5
 1053 1709 1053 1709 1015 1670.5 c 128,-1,6
 977 1632 977 1632 923 1632 c 128,-1,7
 869 1632 869 1632 831 1670.5 c 128,-1,0
 793 1709 793 1709 793 1764 c 128,-1,1
343 1761 m 128,-1,9
 343 1816 343 1816 381 1854.5 c 128,-1,10
 419 1893 419 1893 473 1893 c 128,-1,11
 527 1893 527 1893 565 1854.5 c 128,-1,12
 603 1816 603 1816 603 1761 c 128,-1,13
 603 1706 603 1706 565 1667.5 c 128,-1,14
 527 1629 527 1629 473 1629 c 128,-1,15
 419 1629 419 1629 381 1667.5 c 128,-1,8
 343 1706 343 1706 343 1761 c 128,-1,9
406 1512 m 1,16,-1
 405 517 l 2,17,18
 405 383 405 383 490 298 c 0,19,20
 567 221 567 221 699 221 c 2,21,-1
 1010 222 l 1,22,-1
 1008 1408 l 1,23,-1
 1207 1511 l 1,24,-1
 1208 20 l 1,25,-1
 694 22 l 2,26,27
 489 23 489 23 345 167 c 0,28,29
 200 312 200 312 200 516 c 2,30,-1
 200 1412 l 1,31,-1
 406 1512 l 1,16,-1
EndSplineSet
Validated: 1
EndChar

StartChar: Yacute
Encoding: 221 221 159
Width: 1388
GlyphClass: 2
Flags: W
HStem: 0 21G<598 641.043> 1492 18G<354.444 398.069 1144 1187.97>
VStem: 200 200<786.375 1420> 598 198<92 461.176> 990 197<769.285 1422>
DStem2: 584 1725 714 1599 0.770645 0.637264<19.8886 404.856>
LayerCount: 2
Fore
SplineSet
708 636 m 0,0,1
 829 636 829 636 916 728 c 0,2,3
 990 806 990 806 990 942 c 2,4,-1
 990 1422 l 1,5,-1
 1188 1512 l 1,6,-1
 1187 936 l 2,7,8
 1187 733 1187 733 1042 587 c 0,9,10
 935 479 935 479 795 452 c 1,11,-1
 796 92 l 1,12,-1
 598 0 l 1,13,-1
 598 451 l 1,14,15
 462 477 462 477 345 587 c 0,16,17
 200 724 200 724 200 933 c 2,18,-1
 200 936 l 1,19,-1
 202 1420 l 1,20,-1
 398 1510 l 1,21,-1
 400 930 l 2,22,23
 400 815 400 815 488 732 c 0,24,25
 590 636 590 636 708 636 c 0,0,1
896 1983 m 1,26,-1
 1026 1857 l 1,27,-1
 714 1599 l 1,28,-1
 584 1725 l 1,29,-1
 896 1983 l 1,26,-1
EndSplineSet
Validated: 1
EndChar

StartChar: Thorn
Encoding: 222 222 160
Width: 1177
GlyphClass: 2
Flags: W
HStem: 0 21G<200 244.444> 231 194<401 743.407> 1121 190<399 743.456> 1491 20G<354 398>
VStem: 200 198<90 231 421 1121 1311 1421> 831 196<512.813 1040.86>
LayerCount: 2
Fore
SplineSet
831 916 m 2,0,1
 831 1014 831 1014 757 1069 c 0,2,3
 706 1107 706 1107 613 1121 c 1,4,-1
 399 1121 l 1,5,-1
 400 421 l 1,6,-1
 611 425 l 1,7,8
 698 425 698 425 759 481 c 0,9,10
 828 545 828 545 829 642 c 2,11,-1
 831 916 l 2,0,1
200 0 m 1,12,-1
 200 1421 l 1,13,-1
 398 1511 l 1,14,-1
 398 1311 l 1,15,-1
 611 1311 l 2,16,17
 776 1311 776 1311 903 1192 c 0,18,19
 1027 1075 1027 1075 1027 914 c 2,20,-1
 1027 909 l 1,21,-1
 1023 637 l 2,22,23
 1020 467 1020 467 901 350 c 1,24,25
 778 231 778 231 609 231 c 2,26,-1
 401 231 l 1,27,-1
 400 90 l 1,28,-1
 200 0 l 1,12,-1
EndSplineSet
Validated: 1
EndChar

StartChar: germandbls
Encoding: 223 223 161
Width: 1320
GlyphClass: 2
Flags: W
HStem: 0 21G<200 240.202> 21 201<615 872.013> 744 197<632 805.688> 1294 198<460.219 812.325>
VStem: 200 199<99 1237.05> 874 204<1009.4 1233.05> 986 204<331.925 630.168>
LayerCount: 2
Fore
SplineSet
398 1117 m 1,0,-1
 399 99 l 1,1,-1
 200 0 l 1,2,-1
 200 1118 l 2,3,4
 200 1245 200 1245 286 1356 c 0,5,6
 391 1492 391 1492 606 1492 c 2,7,-1
 622 1492 l 1,8,-1
 672 1492 l 2,9,10
 887 1492 887 1492 992 1356 c 0,11,12
 1078 1244 1078 1244 1078 1118 c 0,13,14
 1078 989 1078 989 992 893 c 1,15,-1
 974 874 l 1,16,17
 1025 843 1025 843 1067 796 c 0,18,19
 1190 659 1190 659 1190 485 c 2,20,-1
 1190 482 l 1,21,22
 1189 290 1189 290 1065 165 c 1,23,24
 920 21 920 21 716 21 c 2,25,-1
 490 21 l 1,26,-1
 615 222 l 1,27,-1
 709 222 l 2,28,29
 842 222 842 222 918 302 c 0,30,31
 986 374 986 374 986 484 c 0,32,33
 986 579 986 579 921 658 c 0,34,35
 850 744 850 744 711 744 c 2,36,-1
 534 743 l 1,37,-1
 632 941 l 1,38,-1
 687 941 l 1,39,40
 796 949 796 949 846 1031 c 0,41,42
 874 1077 874 1077 874 1112 c 2,43,-1
 874 1116 l 1,44,45
 872 1171 872 1171 846 1213 c 0,46,47
 797 1294 797 1294 666 1294 c 2,48,-1
 622 1294 l 1,49,-1
 612 1294 l 2,50,51
 476 1294 476 1294 426 1214 c 0,52,53
 400 1172 400 1172 398 1117 c 1,0,-1
EndSplineSet
Validated: 1
EndChar

StartChar: agrave
Encoding: 224 224 162
Width: 1106
GlyphClass: 2
Flags: W
HStem: 20 190<413.057 758> 906 194<413.105 757>
VStem: 130 196<290.173 818.187> 758 198<210 910>
DStem2: 358 1572 228 1446 0.770645 -0.637264<0 384.967>
LayerCount: 2
Fore
SplineSet
358 1572 m 1,0,-1
 670 1314 l 1,1,-1
 540 1188 l 1,2,-1
 228 1446 l 1,3,-1
 358 1572 l 1,0,-1
956 1100 m 1,4,-1
 956 20 l 1,5,-1
 546 20 l 2,6,7
 380 20 380 20 254 139 c 0,8,9
 130 256 130 256 130 417 c 0,10,11
 130 419 130 419 130 422 c 2,12,-1
 134 694 l 2,13,14
 137 865 137 865 256 981 c 0,15,16
 378 1100 378 1100 548 1100 c 2,17,-1
 956 1100 l 1,4,-1
326 409 m 2,18,19
 326 318 326 318 400 262 c 0,20,21
 450 224 450 224 544 210 c 1,22,-1
 758 210 l 1,23,-1
 757 910 l 1,24,-1
 546 906 l 1,25,26
 459 906 459 906 398 850 c 0,27,28
 329 786 329 786 328 689 c 2,29,-1
 326 409 l 2,18,19
EndSplineSet
Validated: 16385
EndChar

StartChar: aacute
Encoding: 225 225 163
Width: 1106
GlyphClass: 2
Flags: W
HStem: 20 190<413.057 758> 906 194<413.105 757>
VStem: 130 196<290.173 818.187> 758 198<210 910>
DStem2: 410 1314 540 1188 0.770645 0.637264<19.8886 404.856>
LayerCount: 2
Fore
SplineSet
722 1572 m 1,0,-1
 852 1446 l 1,1,-1
 540 1188 l 1,2,-1
 410 1314 l 1,3,-1
 722 1572 l 1,0,-1
956 1100 m 1,4,-1
 956 20 l 1,5,-1
 546 20 l 2,6,7
 380 20 380 20 254 139 c 0,8,9
 130 256 130 256 130 417 c 0,10,11
 130 419 130 419 130 422 c 2,12,-1
 134 694 l 2,13,14
 137 865 137 865 256 981 c 0,15,16
 378 1100 378 1100 548 1100 c 2,17,-1
 956 1100 l 1,4,-1
326 409 m 2,18,19
 326 318 326 318 400 262 c 0,20,21
 450 224 450 224 544 210 c 1,22,-1
 758 210 l 1,23,-1
 757 910 l 1,24,-1
 546 906 l 1,25,26
 459 906 459 906 398 850 c 0,27,28
 329 786 329 786 328 689 c 2,29,-1
 326 409 l 2,18,19
EndSplineSet
Validated: 16385
EndChar

StartChar: acircumflex
Encoding: 226 226 164
Width: 1106
GlyphClass: 2
Flags: W
HStem: 20 190<413.057 758> 906 194<413.105 757> 1348 233<427.5 660.5>
VStem: 130 196<290.173 818.187> 758 198<210 910>
LayerCount: 2
Fore
SplineSet
726 1197 m 1,0,-1
 544 1348 l 1,1,-1
 362 1197 l 1,2,-1
 232 1323 l 1,3,-1
 544 1581 l 1,4,-1
 856 1323 l 1,5,-1
 726 1197 l 1,0,-1
956 1100 m 1,6,-1
 956 20 l 1,7,-1
 546 20 l 2,8,9
 380 20 380 20 254 139 c 0,10,11
 130 256 130 256 130 417 c 0,12,13
 130 419 130 419 130 422 c 2,14,-1
 134 694 l 2,15,16
 137 865 137 865 256 981 c 0,17,18
 378 1100 378 1100 548 1100 c 2,19,-1
 956 1100 l 1,6,-1
326 409 m 2,20,21
 326 318 326 318 400 262 c 0,22,23
 450 224 450 224 544 210 c 1,24,-1
 758 210 l 1,25,-1
 757 910 l 1,26,-1
 546 906 l 1,27,28
 459 906 459 906 398 850 c 0,29,30
 329 786 329 786 328 689 c 2,31,-1
 326 409 l 2,20,21
EndSplineSet
Validated: 16385
EndChar

StartChar: atilde
Encoding: 227 227 165
Width: 1106
GlyphClass: 2
Flags: W
HStem: 20 190<413.057 758> 906 194<413.105 757>
VStem: 130 196<290.173 818.187> 758 198<210 910>
LayerCount: 2
Fore
SplineSet
800 1584 m 1,0,-1
 930 1458 l 1,1,-1
 618 1200 l 1,2,-1
 436 1350 l 1,3,-1
 254 1200 l 1,4,-1
 124 1326 l 1,5,-1
 436 1584 l 1,6,-1
 618 1434 l 1,7,-1
 800 1584 l 1,0,-1
956 1100 m 1,8,-1
 956 20 l 1,9,-1
 546 20 l 2,10,11
 380 20 380 20 254 139 c 0,12,13
 130 256 130 256 130 417 c 0,14,15
 130 419 130 419 130 422 c 2,16,-1
 134 694 l 2,17,18
 137 865 137 865 256 981 c 0,19,20
 378 1100 378 1100 548 1100 c 2,21,-1
 956 1100 l 1,8,-1
326 409 m 2,22,23
 326 318 326 318 400 262 c 0,24,25
 450 224 450 224 544 210 c 1,26,-1
 758 210 l 1,27,-1
 757 910 l 1,28,-1
 546 906 l 1,29,30
 459 906 459 906 398 850 c 0,31,32
 329 786 329 786 328 689 c 2,33,-1
 326 409 l 2,22,23
EndSplineSet
Validated: 16385
EndChar

StartChar: adieresis
Encoding: 228 228 166
Width: 1106
GlyphClass: 2
Flags: W
HStem: 20 190<413.057 758> 906 194<413.105 757> 1245 264<230.191 411.809 680.191 861.809>
VStem: 130 196<290.173 818.187> 191 260<1284.71 1469.29> 641 260<1287.71 1472.29> 758 198<210 910>
LayerCount: 2
Fore
SplineSet
641 1380 m 128,-1,1
 641 1435 641 1435 679 1473.5 c 128,-1,2
 717 1512 717 1512 771 1512 c 128,-1,3
 825 1512 825 1512 863 1473.5 c 128,-1,4
 901 1435 901 1435 901 1380 c 128,-1,5
 901 1325 901 1325 863 1286.5 c 128,-1,6
 825 1248 825 1248 771 1248 c 128,-1,7
 717 1248 717 1248 679 1286.5 c 128,-1,0
 641 1325 641 1325 641 1380 c 128,-1,1
191 1377 m 128,-1,9
 191 1432 191 1432 229 1470.5 c 128,-1,10
 267 1509 267 1509 321 1509 c 128,-1,11
 375 1509 375 1509 413 1470.5 c 128,-1,12
 451 1432 451 1432 451 1377 c 128,-1,13
 451 1322 451 1322 413 1283.5 c 128,-1,14
 375 1245 375 1245 321 1245 c 128,-1,15
 267 1245 267 1245 229 1283.5 c 128,-1,8
 191 1322 191 1322 191 1377 c 128,-1,9
956 1100 m 1,16,-1
 956 20 l 1,17,-1
 546 20 l 2,18,19
 380 20 380 20 254 139 c 0,20,21
 130 256 130 256 130 417 c 0,22,23
 130 419 130 419 130 422 c 2,24,-1
 134 694 l 2,25,26
 137 865 137 865 256 981 c 0,27,28
 378 1100 378 1100 548 1100 c 2,29,-1
 956 1100 l 1,16,-1
326 409 m 2,30,31
 326 318 326 318 400 262 c 0,32,33
 450 224 450 224 544 210 c 1,34,-1
 758 210 l 1,35,-1
 757 910 l 1,36,-1
 546 906 l 1,37,38
 459 906 459 906 398 850 c 0,39,40
 329 786 329 786 328 689 c 2,41,-1
 326 409 l 2,30,31
EndSplineSet
Validated: 16385
EndChar

StartChar: aring
Encoding: 229 229 167
Width: 1106
GlyphClass: 2
Flags: W
HStem: 20 190<413.057 758> 906 194<413.105 757> 1218 141<464.808 617.366> 1548 142<457.25 616.975>
VStem: 130 196<290.173 818.187> 294 148<1381.34 1534.17> 640 152<1380.89 1525.83> 758 198<210 910>
LayerCount: 2
Fore
SplineSet
533 1548 m 0,0,1
 497 1548 497 1548 470 1520 c 0,2,3
 442 1491 442 1491 442 1454 c 0,4,5
 442 1415 442 1415 471 1387 c 128,-1,6
 500 1359 500 1359 541 1359 c 128,-1,7
 582 1359 582 1359 611 1386.5 c 128,-1,8
 640 1414 640 1414 640 1453 c 0,9,10
 640 1489 640 1489 611 1520 c 0,11,12
 585 1548 585 1548 533 1548 c 0,0,1
294 1461 m 0,13,14
 294 1521 294 1521 327 1572 c 0,15,16
 363 1628 363 1628 418 1658 c 1,17,18
 474 1690 474 1690 543 1690 c 0,19,20
 607 1690 607 1690 668 1658 c 0,21,22
 713 1635 713 1635 755 1571 c 0,23,24
 792 1514 792 1514 792 1448 c 0,25,26
 792 1388 792 1388 759 1336 c 0,27,28
 723 1280 723 1280 668 1249 c 128,-1,29
 613 1218 613 1218 543 1218 c 0,30,31
 482 1218 482 1218 418 1250 c 0,32,33
 355 1282 355 1282 322 1334 c 0,34,35
 294 1379 294 1379 294 1461 c 0,13,14
956 1100 m 1,36,-1
 956 20 l 1,37,-1
 546 20 l 2,38,39
 380 20 380 20 254 139 c 0,40,41
 130 256 130 256 130 417 c 0,42,43
 130 419 130 419 130 422 c 2,44,-1
 134 694 l 2,45,46
 137 865 137 865 256 981 c 0,47,48
 378 1100 378 1100 548 1100 c 2,49,-1
 956 1100 l 1,36,-1
326 409 m 2,50,51
 326 318 326 318 400 262 c 0,52,53
 450 224 450 224 544 210 c 1,54,-1
 758 210 l 1,55,-1
 757 910 l 1,56,-1
 546 906 l 1,57,58
 459 906 459 906 398 850 c 0,59,60
 329 786 329 786 328 689 c 2,61,-1
 326 409 l 2,50,51
EndSplineSet
Validated: 16385
EndChar

StartChar: ae
Encoding: 230 230 168
Width: 1708
GlyphClass: 2
Flags: W
HStem: 20 190<413.057 758 1039.74 1416> 448 195<956 1380.89> 910 190<417.797 757> 927 193<1041.09 1298.69>
VStem: 130 196<290.173 818.187> 757 199<287.25 448 643 843.638> 1384 194<644 843.413>
LayerCount: 2
Fore
SplineSet
326 409 m 2,0,1
 326 318 326 318 400 262 c 0,2,3
 450 224 450 224 544 210 c 1,4,-1
 758 210 l 1,5,-1
 757 910 l 1,6,-1
 546 906 l 1,7,8
 459 906 459 906 398 850 c 0,9,10
 329 786 329 786 328 689 c 2,11,-1
 326 409 l 2,0,1
1165 927 m 0,12,13
 1086 927 1086 927 1026 871 c 0,14,15
 957 807 957 807 956 710 c 1,16,-1
 956 643 l 1,17,-1
 1340 642 l 2,18,19
 1384 642 1384 642 1384 703 c 2,20,-1
 1384 710 l 2,21,22
 1384 807 1384 807 1314 871 c 0,23,24
 1254 926 1254 926 1165 927 c 0,12,13
956 448 m 1,25,-1
 956 384 l 1,26,27
 966 309 966 309 1028 262 c 0,28,29
 1078 224 1078 224 1172 210 c 1,30,-1
 1500 210 l 1,31,-1
 1416 20 l 1,32,-1
 1174 20 l 2,33,34
 1055 20 1055 20 956 82 c 1,35,-1
 956 20 l 1,36,-1
 546 20 l 2,37,38
 380 20 380 20 254 139 c 0,39,40
 130 256 130 256 130 417 c 2,41,-1
 130 422 l 1,42,-1
 134 694 l 2,43,44
 137 865 137 865 256 981 c 0,45,46
 378 1100 378 1100 548 1100 c 2,47,-1
 956 1100 l 1,48,-1
 956 1059 l 1,49,50
 1052 1120 1052 1120 1171 1120 c 2,51,-1
 1174 1120 l 1,52,53
 1336 1119 1336 1119 1456 1002 c 0,54,55
 1578 883 1578 883 1578 715 c 2,56,-1
 1578 704 l 2,57,58
 1578 448 1578 448 1338 448 c 2,59,-1
 1336 448 l 1,60,-1
 956 448 l 1,25,-1
EndSplineSet
Validated: 16385
EndChar

StartChar: ccedilla
Encoding: 231 231 169
Width: 932
GlyphClass: 2
Flags: W
HStem: 20 190<588 788> 906 194<413.105 764>
VStem: 130 196<290.502 818.187>
LayerCount: 2
Fore
SplineSet
326 415 m 2,0,1
 326 318 326 318 400 262 c 0,2,3
 450 224 450 224 544 210 c 1,4,-1
 872 210 l 1,5,-1
 788 20 l 1,6,-1
 588 20 l 1,7,-1
 751 -144 l 1,8,-1
 527 -388 l 1,9,-1
 401 -258 l 1,10,-1
 517 -144 l 1,11,-1
 427 -52 l 1,12,-1
 502 22 l 1,13,14
 363 36 363 36 254 139 c 0,15,16
 130 256 130 256 130 417 c 2,17,-1
 130 422 l 1,18,-1
 134 694 l 2,19,20
 137 864 137 864 256 981 c 0,21,22
 378 1100 378 1100 548 1100 c 2,23,-1
 854 1100 l 1,24,-1
 764 910 l 1,25,-1
 546 906 l 1,26,27
 459 906 459 906 398 850 c 0,28,29
 329 786 329 786 328 689 c 2,30,-1
 326 415 l 2,0,1
EndSplineSet
Validated: 1
EndChar

StartChar: egrave
Encoding: 232 232 170
Width: 1080
GlyphClass: 2
Flags: W
HStem: 20 190<413.057 788> 448 195<328 752.891> 927 193<411.352 670.693>
VStem: 130 196<290.502 448 643 839.187> 756 194<644 843.413>
DStem2: 358 1572 228 1446 0.770645 -0.637264<0 384.967>
LayerCount: 2
Fore
SplineSet
358 1572 m 1,0,-1
 670 1314 l 1,1,-1
 540 1188 l 1,2,-1
 228 1446 l 1,3,-1
 358 1572 l 1,0,-1
326 415 m 2,4,5
 326 318 326 318 400 262 c 0,6,7
 450 224 450 224 544 210 c 1,8,-1
 872 210 l 1,9,-1
 788 20 l 1,10,-1
 546 20 l 2,11,12
 380 20 380 20 254 139 c 0,13,14
 130 256 130 256 130 417 c 0,15,16
 130 419 130 419 130 422 c 2,17,-1
 134 715 l 2,18,19
 136 885 136 885 256 1002 c 0,20,21
 377 1120 377 1120 543 1120 c 2,22,-1
 546 1120 l 1,23,24
 708 1119 708 1119 828 1002 c 0,25,26
 950 883 950 883 950 715 c 2,27,-1
 950 704 l 2,28,29
 950 448 950 448 710 448 c 2,30,-1
 708 448 l 1,31,-1
 326 448 l 1,32,-1
 326 415 l 2,4,5
537 927 m 0,33,34
 458 927 458 927 398 871 c 0,35,36
 329 807 329 807 328 710 c 1,37,-1
 328 643 l 1,38,-1
 712 642 l 2,39,40
 756 642 756 642 756 703 c 2,41,-1
 756 710 l 2,42,43
 756 807 756 807 686 871 c 0,44,45
 626 926 626 926 537 927 c 0,33,34
EndSplineSet
Validated: 16385
EndChar

StartChar: eacute
Encoding: 233 233 171
Width: 1080
GlyphClass: 2
Flags: W
HStem: 20 190<413.057 788> 448 195<328 752.891> 927 193<411.352 670.693>
VStem: 130 196<290.502 448 643 839.187> 756 194<644 843.413>
DStem2: 410 1314 540 1188 0.770645 0.637264<19.8886 404.856>
LayerCount: 2
Fore
SplineSet
722 1572 m 1,0,-1
 852 1446 l 1,1,-1
 540 1188 l 1,2,-1
 410 1314 l 1,3,-1
 722 1572 l 1,0,-1
326 415 m 2,4,5
 326 318 326 318 400 262 c 0,6,7
 450 224 450 224 544 210 c 1,8,-1
 872 210 l 1,9,-1
 788 20 l 1,10,-1
 546 20 l 2,11,12
 380 20 380 20 254 139 c 0,13,14
 130 256 130 256 130 417 c 0,15,16
 130 419 130 419 130 422 c 2,17,-1
 134 715 l 2,18,19
 136 885 136 885 256 1002 c 0,20,21
 377 1120 377 1120 543 1120 c 2,22,-1
 546 1120 l 1,23,24
 708 1119 708 1119 828 1002 c 0,25,26
 950 883 950 883 950 715 c 2,27,-1
 950 704 l 2,28,29
 950 448 950 448 710 448 c 2,30,-1
 708 448 l 1,31,-1
 326 448 l 1,32,-1
 326 415 l 2,4,5
537 927 m 0,33,34
 458 927 458 927 398 871 c 0,35,36
 329 807 329 807 328 710 c 1,37,-1
 328 643 l 1,38,-1
 712 642 l 2,39,40
 756 642 756 642 756 703 c 2,41,-1
 756 710 l 2,42,43
 756 807 756 807 686 871 c 0,44,45
 626 926 626 926 537 927 c 0,33,34
EndSplineSet
Validated: 16385
EndChar

StartChar: ecircumflex
Encoding: 234 234 172
Width: 1080
GlyphClass: 2
Flags: W
HStem: 20 190<413.057 788> 448 195<328 752.891> 927 193<411.352 670.693> 1348 233<427.5 660.5>
VStem: 130 196<290.502 448 643 839.187> 756 194<644 843.413>
LayerCount: 2
Fore
SplineSet
726 1197 m 1,0,-1
 544 1348 l 1,1,-1
 362 1197 l 1,2,-1
 232 1323 l 1,3,-1
 544 1581 l 1,4,-1
 856 1323 l 1,5,-1
 726 1197 l 1,0,-1
326 415 m 2,6,7
 326 318 326 318 400 262 c 0,8,9
 450 224 450 224 544 210 c 1,10,-1
 872 210 l 1,11,-1
 788 20 l 1,12,-1
 546 20 l 2,13,14
 380 20 380 20 254 139 c 0,15,16
 130 256 130 256 130 417 c 0,17,18
 130 419 130 419 130 422 c 2,19,-1
 134 715 l 2,20,21
 136 885 136 885 256 1002 c 0,22,23
 377 1120 377 1120 543 1120 c 2,24,-1
 546 1120 l 1,25,26
 708 1119 708 1119 828 1002 c 0,27,28
 950 883 950 883 950 715 c 2,29,-1
 950 704 l 2,30,31
 950 448 950 448 710 448 c 2,32,-1
 708 448 l 1,33,-1
 326 448 l 1,34,-1
 326 415 l 2,6,7
537 927 m 0,35,36
 458 927 458 927 398 871 c 0,37,38
 329 807 329 807 328 710 c 1,39,-1
 328 643 l 1,40,-1
 712 642 l 2,41,42
 756 642 756 642 756 703 c 2,43,-1
 756 710 l 2,44,45
 756 807 756 807 686 871 c 0,46,47
 626 926 626 926 537 927 c 0,35,36
EndSplineSet
Validated: 16385
EndChar

StartChar: edieresis
Encoding: 235 235 173
Width: 1080
GlyphClass: 2
Flags: W
HStem: 20 190<413.057 788> 448 195<328 752.891> 927 193<411.352 670.693> 1245 264<230.191 411.809 680.191 861.809>
VStem: 130 196<290.502 448 643 839.187> 191 260<1284.71 1469.29> 641 260<1287.71 1472.29> 756 194<644 843.413>
LayerCount: 2
Fore
SplineSet
641 1380 m 128,-1,1
 641 1435 641 1435 679 1473.5 c 128,-1,2
 717 1512 717 1512 771 1512 c 128,-1,3
 825 1512 825 1512 863 1473.5 c 128,-1,4
 901 1435 901 1435 901 1380 c 128,-1,5
 901 1325 901 1325 863 1286.5 c 128,-1,6
 825 1248 825 1248 771 1248 c 128,-1,7
 717 1248 717 1248 679 1286.5 c 128,-1,0
 641 1325 641 1325 641 1380 c 128,-1,1
191 1377 m 128,-1,9
 191 1432 191 1432 229 1470.5 c 128,-1,10
 267 1509 267 1509 321 1509 c 128,-1,11
 375 1509 375 1509 413 1470.5 c 128,-1,12
 451 1432 451 1432 451 1377 c 128,-1,13
 451 1322 451 1322 413 1283.5 c 128,-1,14
 375 1245 375 1245 321 1245 c 128,-1,15
 267 1245 267 1245 229 1283.5 c 128,-1,8
 191 1322 191 1322 191 1377 c 128,-1,9
326 415 m 2,16,17
 326 318 326 318 400 262 c 0,18,19
 450 224 450 224 544 210 c 1,20,-1
 872 210 l 1,21,-1
 788 20 l 1,22,-1
 546 20 l 2,23,24
 380 20 380 20 254 139 c 0,25,26
 130 256 130 256 130 417 c 0,27,28
 130 419 130 419 130 422 c 2,29,-1
 134 715 l 2,30,31
 136 885 136 885 256 1002 c 0,32,33
 377 1120 377 1120 543 1120 c 2,34,-1
 546 1120 l 1,35,36
 708 1119 708 1119 828 1002 c 0,37,38
 950 883 950 883 950 715 c 2,39,-1
 950 704 l 2,40,41
 950 448 950 448 710 448 c 2,42,-1
 708 448 l 1,43,-1
 326 448 l 1,44,-1
 326 415 l 2,16,17
537 927 m 0,45,46
 458 927 458 927 398 871 c 0,47,48
 329 807 329 807 328 710 c 1,49,-1
 328 643 l 1,50,-1
 712 642 l 2,51,52
 756 642 756 642 756 703 c 2,53,-1
 756 710 l 2,54,55
 756 807 756 807 686 871 c 0,56,57
 626 926 626 926 537 927 c 0,45,46
EndSplineSet
Validated: 16385
EndChar

StartChar: igrave
Encoding: 236 236 174
Width: 500
GlyphClass: 2
Flags: W
HStem: 0 21G<150 193.043> 1100 20G<305.556 349.961>
VStem: 150 198<92 1030>
DStem2: 136 1572 6 1446 0.770645 -0.637264<0 384.967>
LayerCount: 2
Fore
SplineSet
136 1572 m 1,0,-1
 448 1314 l 1,1,-1
 318 1188 l 1,2,-1
 6 1446 l 1,3,-1
 136 1572 l 1,0,-1
150 1030 m 1,4,-1
 350 1120 l 1,5,-1
 348 92 l 1,6,-1
 150 0 l 1,7,-1
 150 1030 l 1,4,-1
EndSplineSet
Validated: 1
EndChar

StartChar: iacute
Encoding: 237 237 175
Width: 500
GlyphClass: 2
Flags: W
HStem: 0 21G<150 193.043> 1100 20G<305.556 349.961>
VStem: 150 198<92 1030>
DStem2: 53 1314 183 1188 0.770645 0.637264<19.8886 404.856>
LayerCount: 2
Fore
SplineSet
365 1572 m 1,0,-1
 495 1446 l 1,1,-1
 183 1188 l 1,2,-1
 53 1314 l 1,3,-1
 365 1572 l 1,0,-1
150 1030 m 1,4,-1
 350 1120 l 1,5,-1
 348 92 l 1,6,-1
 150 0 l 1,7,-1
 150 1030 l 1,4,-1
EndSplineSet
Validated: 1
EndChar

StartChar: icircumflex
Encoding: 238 238 176
Width: 634
GlyphClass: 2
Flags: W
HStem: 0 21G<222 265.043> 1100 20G<377.556 421.961> 1348 233<200.5 433.5>
VStem: 222 198<92 1030>
LayerCount: 2
Fore
SplineSet
499 1197 m 1,0,-1
 317 1348 l 1,1,-1
 135 1197 l 1,2,-1
 5 1323 l 1,3,-1
 317 1581 l 1,4,-1
 629 1323 l 1,5,-1
 499 1197 l 1,0,-1
222 1030 m 1,6,-1
 422 1120 l 1,7,-1
 420 92 l 1,8,-1
 222 0 l 1,9,-1
 222 1030 l 1,6,-1
EndSplineSet
Validated: 1
EndChar

StartChar: idieresis
Encoding: 239 239 177
Width: 720
GlyphClass: 2
Flags: W
HStem: 0 21G<260 303.043> 1100 20G<415.556 459.961> 1251 264<44.1914 225.809 494.191 675.809>
VStem: 5 260<1290.71 1475.29> 260 198<92 1030> 455 260<1293.71 1478.29>
LayerCount: 2
Fore
SplineSet
260 1030 m 1,0,-1
 460 1120 l 1,1,-1
 458 92 l 1,2,-1
 260 0 l 1,3,-1
 260 1030 l 1,0,-1
455 1386 m 128,-1,5
 455 1441 455 1441 493 1479.5 c 128,-1,6
 531 1518 531 1518 585 1518 c 128,-1,7
 639 1518 639 1518 677 1479.5 c 128,-1,8
 715 1441 715 1441 715 1386 c 128,-1,9
 715 1331 715 1331 677 1292.5 c 128,-1,10
 639 1254 639 1254 585 1254 c 128,-1,11
 531 1254 531 1254 493 1292.5 c 128,-1,4
 455 1331 455 1331 455 1386 c 128,-1,5
5 1383 m 128,-1,13
 5 1438 5 1438 43 1476.5 c 128,-1,14
 81 1515 81 1515 135 1515 c 128,-1,15
 189 1515 189 1515 227 1476.5 c 128,-1,16
 265 1438 265 1438 265 1383 c 128,-1,17
 265 1328 265 1328 227 1289.5 c 128,-1,18
 189 1251 189 1251 135 1251 c 128,-1,19
 81 1251 81 1251 43 1289.5 c 128,-1,12
 5 1328 5 1328 5 1383 c 128,-1,13
EndSplineSet
Validated: 1
EndChar

StartChar: eth
Encoding: 240 240 178
Width: 1106
GlyphClass: 2
Flags: W
HStem: 0 182<407.372 675.978> 938 182<407.469 676.812> 1300 192<528 609.375> 1490 20G<848.814 893.635>
VStem: 130 194<265.89 853.612> 758 194<266.902 855.466 1058 1169>
LayerCount: 2
Fore
SplineSet
952 406 m 2,0,1
 952 235 952 235 832 119 c 0,2,3
 709 0 709 0 542 0 c 0,4,5
 372 0 372 0 251 123 c 0,6,7
 130 245 130 245 130 414 c 2,8,-1
 130 706 l 2,9,10
 130 874 130 874 251 997 c 128,-1,11
 372 1120 372 1120 542 1120 c 0,12,13
 662 1120 662 1120 760 1058 c 1,14,-1
 760 1103 l 2,15,16
 760 1138 760 1138 745 1170 c 1,17,-1
 691 1126 l 1,18,-1
 561 1252 l 1,19,-1
 610 1293 l 1,20,21
 590 1300 590 1300 570 1300 c 2,22,-1
 528 1300 l 1,23,-1
 438 1492 l 1,24,-1
 540 1492 l 2,25,26
 668 1492 668 1492 769 1424 c 1,27,-1
 873 1510 l 1,28,-1
 1003 1384 l 1,29,-1
 895 1294 l 1,30,31
 951 1202 951 1202 952 1085 c 1,32,-1
 952 406 l 2,0,1
324 399 m 2,33,34
 324 303 324 303 394 238 c 0,35,36
 454 182 454 182 542 182 c 0,37,38
 640 182 640 182 698 246 c 1,39,40
 758 310 758 310 758 401 c 2,41,-1
 758 719 l 2,42,43
 758 810 758 810 698 874 c 1,44,45
 640 938 640 938 542 938 c 0,46,47
 455 938 455 938 394 882 c 0,48,49
 324 817 324 817 324 721 c 2,50,-1
 324 560 l 1,51,-1
 324 399 l 2,33,34
EndSplineSet
Validated: 16385
EndChar

StartChar: ntilde
Encoding: 241 241 179
Width: 1106
GlyphClass: 2
Flags: W
HStem: 0 21G<151.964 195.043 778 821.043> 908 192<350 688.203>
VStem: 152 198<92 908> 778 198<92 822.638>
LayerCount: 2
Fore
SplineSet
800 1584 m 1,0,-1
 930 1458 l 1,1,-1
 618 1200 l 1,2,-1
 436 1350 l 1,3,-1
 254 1200 l 1,4,-1
 124 1326 l 1,5,-1
 436 1584 l 1,6,-1
 618 1434 l 1,7,-1
 800 1584 l 1,0,-1
350 908 m 1,8,-1
 350 92 l 1,9,-1
 152 0 l 1,10,-1
 150 1100 l 1,11,-1
 558 1100 l 2,12,13
 728 1100 728 1100 850 981 c 0,14,15
 969 864 969 864 972 694 c 2,16,-1
 976 422 l 1,17,-1
 976 92 l 1,18,-1
 778 0 l 1,19,-1
 778 418 l 1,20,-1
 778 689 l 2,21,22
 778 786 778 786 708 850 c 0,23,24
 648 905 648 905 560 906 c 2,25,-1
 350 908 l 1,8,-1
EndSplineSet
Validated: 16385
EndChar

StartChar: ograve
Encoding: 242 242 180
Width: 1082
GlyphClass: 2
Flags: W
HStem: 0 182<407.372 675.978> 938 182<407.469 675.978>
VStem: 130 194<265.89 853.612> 758 194<266.902 853.59>
DStem2: 358 1572 228 1446 0.770645 -0.637264<0 384.967>
LayerCount: 2
Fore
SplineSet
358 1572 m 1,0,-1
 670 1314 l 1,1,-1
 540 1188 l 1,2,-1
 228 1446 l 1,3,-1
 358 1572 l 1,0,-1
324 399 m 2,4,5
 324 303 324 303 394 238 c 0,6,7
 454 182 454 182 542 182 c 0,8,9
 640 182 640 182 698 246 c 1,10,11
 758 310 758 310 758 401 c 2,12,-1
 758 719 l 2,13,14
 758 810 758 810 698 874 c 1,15,16
 640 938 640 938 542 938 c 0,17,18
 455 938 455 938 394 882 c 0,19,20
 324 817 324 817 324 721 c 2,21,-1
 324 560 l 1,22,-1
 324 399 l 2,4,5
952 406 m 2,23,24
 952 235 952 235 832 119 c 0,25,26
 709 0 709 0 542 0 c 0,27,28
 372 0 372 0 251 123 c 0,29,30
 130 245 130 245 130 414 c 2,31,-1
 130 706 l 2,32,33
 130 874 130 874 251 997 c 128,-1,34
 372 1120 372 1120 542 1120 c 0,35,36
 709 1120 709 1120 832 1001 c 0,37,38
 952 886 952 886 952 714 c 2,39,-1
 952 406 l 2,23,24
EndSplineSet
Validated: 16385
EndChar

StartChar: oacute
Encoding: 243 243 181
Width: 1082
GlyphClass: 2
Flags: W
HStem: 0 182<407.372 675.978> 938 182<407.469 675.978>
VStem: 130 194<265.89 853.612> 758 194<266.902 853.59>
DStem2: 410 1314 540 1188 0.770645 0.637264<19.8886 404.856>
LayerCount: 2
Fore
SplineSet
324 399 m 2,0,1
 324 303 324 303 394 238 c 0,2,3
 454 182 454 182 542 182 c 0,4,5
 640 182 640 182 698 246 c 1,6,7
 758 310 758 310 758 401 c 2,8,-1
 758 719 l 2,9,10
 758 810 758 810 698 874 c 1,11,12
 640 938 640 938 542 938 c 0,13,14
 455 938 455 938 394 882 c 0,15,16
 324 817 324 817 324 721 c 2,17,-1
 324 560 l 1,18,-1
 324 399 l 2,0,1
952 406 m 2,19,20
 952 235 952 235 832 119 c 0,21,22
 709 0 709 0 542 0 c 0,23,24
 372 0 372 0 251 123 c 0,25,26
 130 245 130 245 130 414 c 2,27,-1
 130 706 l 2,28,29
 130 874 130 874 251 997 c 128,-1,30
 372 1120 372 1120 542 1120 c 0,31,32
 709 1120 709 1120 832 1001 c 0,33,34
 952 886 952 886 952 714 c 2,35,-1
 952 406 l 2,19,20
722 1572 m 1,36,-1
 852 1446 l 1,37,-1
 540 1188 l 1,38,-1
 410 1314 l 1,39,-1
 722 1572 l 1,36,-1
EndSplineSet
Validated: 16385
EndChar

StartChar: ocircumflex
Encoding: 244 244 182
Width: 1082
GlyphClass: 2
Flags: W
HStem: 0 182<407.372 675.978> 938 182<407.469 675.978> 1348 233<427.5 660.5>
VStem: 130 194<265.89 853.612> 758 194<266.902 853.59>
LayerCount: 2
Fore
SplineSet
726 1197 m 1,0,-1
 544 1348 l 1,1,-1
 362 1197 l 1,2,-1
 232 1323 l 1,3,-1
 544 1581 l 1,4,-1
 856 1323 l 1,5,-1
 726 1197 l 1,0,-1
324 399 m 2,6,7
 324 303 324 303 394 238 c 0,8,9
 454 182 454 182 542 182 c 0,10,11
 640 182 640 182 698 246 c 1,12,13
 758 310 758 310 758 401 c 2,14,-1
 758 719 l 2,15,16
 758 810 758 810 698 874 c 1,17,18
 640 938 640 938 542 938 c 0,19,20
 455 938 455 938 394 882 c 0,21,22
 324 817 324 817 324 721 c 2,23,-1
 324 560 l 1,24,-1
 324 399 l 2,6,7
952 406 m 2,25,26
 952 235 952 235 832 119 c 0,27,28
 709 0 709 0 542 0 c 0,29,30
 372 0 372 0 251 123 c 0,31,32
 130 245 130 245 130 414 c 2,33,-1
 130 706 l 2,34,35
 130 874 130 874 251 997 c 128,-1,36
 372 1120 372 1120 542 1120 c 0,37,38
 709 1120 709 1120 832 1001 c 0,39,40
 952 886 952 886 952 714 c 2,41,-1
 952 406 l 2,25,26
EndSplineSet
Validated: 16385
EndChar

StartChar: otilde
Encoding: 245 245 183
Width: 1082
GlyphClass: 2
Flags: W
HStem: 0 182<407.372 675.978> 938 182<407.469 675.978>
VStem: 130 194<265.89 853.612> 758 194<266.902 853.59>
LayerCount: 2
Fore
SplineSet
800 1584 m 1,0,-1
 930 1458 l 1,1,-1
 618 1200 l 1,2,-1
 436 1350 l 1,3,-1
 254 1200 l 1,4,-1
 124 1326 l 1,5,-1
 436 1584 l 1,6,-1
 618 1434 l 1,7,-1
 800 1584 l 1,0,-1
324 399 m 2,8,9
 324 303 324 303 394 238 c 0,10,11
 454 182 454 182 542 182 c 0,12,13
 640 182 640 182 698 246 c 1,14,15
 758 310 758 310 758 401 c 2,16,-1
 758 719 l 2,17,18
 758 810 758 810 698 874 c 1,19,20
 640 938 640 938 542 938 c 0,21,22
 455 938 455 938 394 882 c 0,23,24
 324 817 324 817 324 721 c 2,25,-1
 324 560 l 1,26,-1
 324 399 l 2,8,9
952 406 m 2,27,28
 952 235 952 235 832 119 c 0,29,30
 709 0 709 0 542 0 c 0,31,32
 372 0 372 0 251 123 c 0,33,34
 130 245 130 245 130 414 c 2,35,-1
 130 706 l 2,36,37
 130 874 130 874 251 997 c 128,-1,38
 372 1120 372 1120 542 1120 c 0,39,40
 709 1120 709 1120 832 1001 c 0,41,42
 952 886 952 886 952 714 c 2,43,-1
 952 406 l 2,27,28
EndSplineSet
Validated: 16385
EndChar

StartChar: odieresis
Encoding: 246 246 184
Width: 1082
GlyphClass: 2
Flags: W
HStem: 0 182<407.372 675.978> 938 182<407.469 675.978> 1245 264<230.191 411.809 680.191 861.809>
VStem: 130 194<265.89 853.612> 191 260<1284.71 1469.29> 641 260<1287.71 1472.29> 758 194<266.902 853.59>
LayerCount: 2
Fore
SplineSet
641 1380 m 128,-1,1
 641 1435 641 1435 679 1473.5 c 128,-1,2
 717 1512 717 1512 771 1512 c 128,-1,3
 825 1512 825 1512 863 1473.5 c 128,-1,4
 901 1435 901 1435 901 1380 c 128,-1,5
 901 1325 901 1325 863 1286.5 c 128,-1,6
 825 1248 825 1248 771 1248 c 128,-1,7
 717 1248 717 1248 679 1286.5 c 128,-1,0
 641 1325 641 1325 641 1380 c 128,-1,1
191 1377 m 128,-1,9
 191 1432 191 1432 229 1470.5 c 128,-1,10
 267 1509 267 1509 321 1509 c 128,-1,11
 375 1509 375 1509 413 1470.5 c 128,-1,12
 451 1432 451 1432 451 1377 c 128,-1,13
 451 1322 451 1322 413 1283.5 c 128,-1,14
 375 1245 375 1245 321 1245 c 128,-1,15
 267 1245 267 1245 229 1283.5 c 128,-1,8
 191 1322 191 1322 191 1377 c 128,-1,9
324 399 m 2,16,17
 324 303 324 303 394 238 c 0,18,19
 454 182 454 182 542 182 c 0,20,21
 640 182 640 182 698 246 c 1,22,23
 758 310 758 310 758 401 c 2,24,-1
 758 719 l 2,25,26
 758 810 758 810 698 874 c 1,27,28
 640 938 640 938 542 938 c 0,29,30
 455 938 455 938 394 882 c 0,31,32
 324 817 324 817 324 721 c 2,33,-1
 324 560 l 1,34,-1
 324 399 l 2,16,17
952 406 m 2,35,36
 952 235 952 235 832 119 c 0,37,38
 709 0 709 0 542 0 c 0,39,40
 372 0 372 0 251 123 c 0,41,42
 130 245 130 245 130 414 c 2,43,-1
 130 706 l 2,44,45
 130 874 130 874 251 997 c 128,-1,46
 372 1120 372 1120 542 1120 c 0,47,48
 709 1120 709 1120 832 1001 c 0,49,50
 952 886 952 886 952 714 c 2,51,-1
 952 406 l 2,35,36
EndSplineSet
Validated: 16385
EndChar

StartChar: divide
Encoding: 247 247 185
Width: 1090
GlyphClass: 2
Flags: W
HStem: 54 264<443.191 624.809> 600 198<170 911> 1047 264<461.191 642.809>
VStem: 404 260<93.7072 278.293> 422 260<1086.71 1271.29>
LayerCount: 2
Fore
SplineSet
170 798 m 1,0,-1
 1003 798 l 1,1,-1
 911 600 l 1,2,-1
 80 600 l 1,3,-1
 170 798 l 1,0,-1
404 186 m 128,-1,5
 404 241 404 241 442 279.5 c 128,-1,6
 480 318 480 318 534 318 c 128,-1,7
 588 318 588 318 626 279.5 c 128,-1,8
 664 241 664 241 664 186 c 128,-1,9
 664 131 664 131 626 92.5 c 128,-1,10
 588 54 588 54 534 54 c 128,-1,11
 480 54 480 54 442 92.5 c 128,-1,4
 404 131 404 131 404 186 c 128,-1,5
422 1179 m 128,-1,13
 422 1234 422 1234 460 1272.5 c 128,-1,14
 498 1311 498 1311 552 1311 c 128,-1,15
 606 1311 606 1311 644 1272.5 c 128,-1,16
 682 1234 682 1234 682 1179 c 128,-1,17
 682 1124 682 1124 644 1085.5 c 128,-1,18
 606 1047 606 1047 552 1047 c 128,-1,19
 498 1047 498 1047 460 1085.5 c 128,-1,12
 422 1124 422 1124 422 1179 c 128,-1,13
EndSplineSet
Validated: 16385
EndChar

StartChar: oslash
Encoding: 248 248 186
Width: 1082
GlyphClass: 2
Flags: W
HStem: 0 182<511 675.978> 938 182<407.469 575>
VStem: 130 194<307.713 853.612> 758 194<266.902 810.684>
DStem2: 207 -76 386 -160 0.341743 0.939793<0 171.502 403.342 1016.34 1253.33 1410.2>
LayerCount: 2
Fore
SplineSet
952 406 m 2,0,1
 952 235 952 235 832 119 c 0,2,3
 709 0 709 0 542 0 c 0,4,5
 493 0 493 0 448 10 c 1,6,-1
 386 -160 l 1,7,-1
 207 -76 l 1,8,-1
 272 103 l 1,9,10
 261 113 261 113 251 123 c 0,11,12
 130 244 130 244 130 414 c 2,13,-1
 130 706 l 2,14,15
 130 874 130 874 251 997 c 128,-1,16
 372 1120 372 1120 542 1120 c 0,17,18
 592 1120 592 1120 638 1109 c 1,19,-1
 694 1264 l 1,20,-1
 874 1182 l 1,21,-1
 814 1017 l 1,22,-1
 832 1001 l 1,23,24
 952 885 952 885 952 714 c 2,25,-1
 952 406 l 2,0,1
739 812 m 1,26,-1
 511 184 l 1,27,28
 526 182 526 182 542 182 c 0,29,30
 640 182 640 182 698 246 c 1,31,32
 758 310 758 310 758 401 c 2,33,-1
 758 719 l 2,34,35
 758 770 758 770 739 812 c 1,26,-1
575 936 m 1,36,37
 559 938 559 938 542 938 c 0,38,39
 455 938 455 938 394 882 c 0,40,41
 324 817 324 817 324 721 c 2,42,-1
 324 560 l 1,43,-1
 324 399 l 2,44,45
 324 347 324 347 345 303 c 1,46,-1
 575 936 l 1,36,37
EndSplineSet
Validated: 16385
EndChar

StartChar: ugrave
Encoding: 249 249 187
Width: 1106
GlyphClass: 2
Flags: W
HStem: 20 194<413.105 756> 1100 20G<284.957 328 910.957 954.036>
VStem: 130 198<297.362 1028> 756 200<212 1028>
DStem2: 358 1572 228 1446 0.770645 -0.637264<0 384.967>
LayerCount: 2
Fore
SplineSet
358 1572 m 1,0,-1
 670 1314 l 1,1,-1
 540 1188 l 1,2,-1
 228 1446 l 1,3,-1
 358 1572 l 1,0,-1
756 212 m 1,4,-1
 756 1028 l 1,5,-1
 954 1120 l 1,6,-1
 956 20 l 1,7,-1
 548 20 l 2,8,9
 378 20 378 20 256 139 c 0,10,11
 136 256 136 256 134 426 c 2,12,-1
 130 750 l 1,13,-1
 130 1028 l 1,14,-1
 328 1120 l 1,15,-1
 328 754 l 1,16,-1
 328 431 l 2,17,18
 328 334 328 334 398 270 c 0,19,20
 458 215 458 215 546 214 c 2,21,-1
 756 212 l 1,4,-1
EndSplineSet
Validated: 16385
EndChar

StartChar: uacute
Encoding: 250 250 188
Width: 1106
GlyphClass: 2
Flags: W
HStem: 20 194<413.105 756> 1100 20G<284.957 328 910.957 954.036>
VStem: 130 198<297.362 1028> 756 200<212 1028>
DStem2: 410 1314 540 1188 0.770645 0.637264<19.8886 404.856>
LayerCount: 2
Fore
SplineSet
722 1572 m 1,0,-1
 852 1446 l 1,1,-1
 540 1188 l 1,2,-1
 410 1314 l 1,3,-1
 722 1572 l 1,0,-1
756 212 m 1,4,-1
 756 1028 l 1,5,-1
 954 1120 l 1,6,-1
 956 20 l 1,7,-1
 548 20 l 2,8,9
 378 20 378 20 256 139 c 0,10,11
 136 256 136 256 134 426 c 2,12,-1
 130 750 l 1,13,-1
 130 1028 l 1,14,-1
 328 1120 l 1,15,-1
 328 754 l 1,16,-1
 328 431 l 2,17,18
 328 334 328 334 398 270 c 0,19,20
 458 215 458 215 546 214 c 2,21,-1
 756 212 l 1,4,-1
EndSplineSet
Validated: 16385
EndChar

StartChar: ucircumflex
Encoding: 251 251 189
Width: 1106
GlyphClass: 2
Flags: W
HStem: 20 194<413.105 756> 1100 20G<284.957 328 910.957 954.036> 1348 233<427.5 660.5>
VStem: 130 198<297.362 1028> 756 200<212 1028>
LayerCount: 2
Fore
SplineSet
726 1197 m 1,0,-1
 544 1348 l 1,1,-1
 362 1197 l 1,2,-1
 232 1323 l 1,3,-1
 544 1581 l 1,4,-1
 856 1323 l 1,5,-1
 726 1197 l 1,0,-1
756 212 m 1,6,-1
 756 1028 l 1,7,-1
 954 1120 l 1,8,-1
 956 20 l 1,9,-1
 548 20 l 2,10,11
 378 20 378 20 256 139 c 0,12,13
 136 256 136 256 134 426 c 2,14,-1
 130 750 l 1,15,-1
 130 1028 l 1,16,-1
 328 1120 l 1,17,-1
 328 754 l 1,18,-1
 328 431 l 2,19,20
 328 334 328 334 398 270 c 0,21,22
 458 215 458 215 546 214 c 2,23,-1
 756 212 l 1,6,-1
EndSplineSet
Validated: 16385
EndChar

StartChar: udieresis
Encoding: 252 252 190
Width: 1106
GlyphClass: 2
Flags: W
HStem: 20 194<413.105 756> 1100 20G<284.957 328 910.957 954.036> 1245 264<230.191 411.809 680.191 861.809>
VStem: 130 198<297.362 1028> 191 260<1284.71 1469.29> 641 260<1287.71 1472.29> 756 200<212 1028>
LayerCount: 2
Fore
SplineSet
641 1380 m 128,-1,1
 641 1435 641 1435 679 1473.5 c 128,-1,2
 717 1512 717 1512 771 1512 c 128,-1,3
 825 1512 825 1512 863 1473.5 c 128,-1,4
 901 1435 901 1435 901 1380 c 128,-1,5
 901 1325 901 1325 863 1286.5 c 128,-1,6
 825 1248 825 1248 771 1248 c 128,-1,7
 717 1248 717 1248 679 1286.5 c 128,-1,0
 641 1325 641 1325 641 1380 c 128,-1,1
191 1377 m 128,-1,9
 191 1432 191 1432 229 1470.5 c 128,-1,10
 267 1509 267 1509 321 1509 c 128,-1,11
 375 1509 375 1509 413 1470.5 c 128,-1,12
 451 1432 451 1432 451 1377 c 128,-1,13
 451 1322 451 1322 413 1283.5 c 128,-1,14
 375 1245 375 1245 321 1245 c 128,-1,15
 267 1245 267 1245 229 1283.5 c 128,-1,8
 191 1322 191 1322 191 1377 c 128,-1,9
756 212 m 1,16,-1
 756 1028 l 1,17,-1
 954 1120 l 1,18,-1
 956 20 l 1,19,-1
 548 20 l 2,20,21
 378 20 378 20 256 139 c 0,22,23
 136 256 136 256 134 426 c 2,24,-1
 130 750 l 1,25,-1
 130 1028 l 1,26,-1
 328 1120 l 1,27,-1
 328 754 l 1,28,-1
 328 431 l 2,29,30
 328 334 328 334 398 270 c 0,31,32
 458 215 458 215 546 214 c 2,33,-1
 756 212 l 1,16,-1
EndSplineSet
Validated: 16385
EndChar

StartChar: yacute
Encoding: 253 253 191
Width: 1104
GlyphClass: 2
Flags: W
HStem: -394 192<332 670.203> 20 192<412.13 756> 1100 20G<284.957 328 910.957 954>
VStem: 130 198<295.362 1028> 756 198<-120.91 20 210 1028>
DStem2: 410 1314 540 1188 0.770645 0.637264<19.8886 404.856>
LayerCount: 2
Fore
SplineSet
722 1572 m 1,0,-1
 852 1446 l 1,1,-1
 540 1188 l 1,2,-1
 410 1314 l 1,3,-1
 722 1572 l 1,0,-1
760 20 m 1,4,-1
 548 20 l 2,5,6
 376 20 376 20 256 137 c 128,-1,7
 136 254 136 254 134 424 c 2,8,-1
 130 730 l 1,9,-1
 130 1028 l 1,10,-1
 328 1120 l 1,11,12
 328 927 328 927 328 734 c 2,13,-1
 328 429 l 2,14,15
 328 332 328 332 398 268 c 0,16,17
 458 213 458 213 546 212 c 2,18,-1
 756 210 l 1,19,-1
 756 1028 l 1,20,-1
 954 1120 l 1,21,-1
 954 30 l 1,22,23
 952 -158 952 -158 832 -275 c 0,24,25
 710 -394 710 -394 540 -394 c 2,26,-1
 242 -394 l 1,27,-1
 332 -202 l 1,28,-1
 542 -200 l 2,29,30
 630 -199 630 -199 690 -144 c 0,31,32
 760 -80 760 -80 760 -5 c 2,33,-1
 760 20 l 1,4,-1
EndSplineSet
Validated: 16385
EndChar

StartChar: thorn
Encoding: 254 254 192
Width: 1106
GlyphClass: 2
Flags: W
HStem: -412 21G<150 194.444> 20 194<350 692.895> 910 190<349 692.943> 1491 20G<305.556 349.951>
VStem: 150 199<-322 20 210 910 1100 1421> 780 196<301.813 829.857>
LayerCount: 2
Fore
SplineSet
780 705 m 2,0,1
 780 803 780 803 706 858 c 0,2,3
 655 896 655 896 562 910 c 1,4,-1
 349 910 l 1,5,-1
 349 504 l 1,6,-1
 349 210 l 1,7,-1
 560 214 l 1,8,9
 647 214 647 214 708 270 c 0,10,11
 777 334 777 334 778 431 c 2,12,-1
 780 705 l 2,0,1
150 1421 m 1,13,-1
 350 1511 l 1,14,-1
 349 1100 l 1,15,-1
 560 1100 l 2,16,17
 726 1100 726 1100 852 981 c 0,18,19
 976 864 976 864 976 703 c 2,20,-1
 976 698 l 1,21,-1
 972 426 l 2,22,23
 969 256 969 256 850 139 c 0,24,25
 728 20 728 20 558 20 c 2,26,-1
 350 20 l 1,27,-1
 350 -322 l 1,28,-1
 150 -412 l 1,29,-1
 150 1421 l 1,13,-1
EndSplineSet
Validated: 16385
EndChar

StartChar: ydieresis
Encoding: 255 255 193
Width: 1104
GlyphClass: 2
Flags: W
HStem: -394 192<332 670.203> 20 192<412.13 756> 1100 20G<284.957 328 910.957 954> 1245 264<230.191 411.809 680.191 861.809>
VStem: 130 198<295.362 1028> 191 260<1284.71 1469.29> 641 260<1287.71 1472.29> 756 198<-120.91 20 210 1028>
LayerCount: 2
Fore
SplineSet
641 1380 m 128,-1,1
 641 1435 641 1435 679 1473.5 c 128,-1,2
 717 1512 717 1512 771 1512 c 128,-1,3
 825 1512 825 1512 863 1473.5 c 128,-1,4
 901 1435 901 1435 901 1380 c 128,-1,5
 901 1325 901 1325 863 1286.5 c 128,-1,6
 825 1248 825 1248 771 1248 c 128,-1,7
 717 1248 717 1248 679 1286.5 c 128,-1,0
 641 1325 641 1325 641 1380 c 128,-1,1
191 1377 m 128,-1,9
 191 1432 191 1432 229 1470.5 c 128,-1,10
 267 1509 267 1509 321 1509 c 128,-1,11
 375 1509 375 1509 413 1470.5 c 128,-1,12
 451 1432 451 1432 451 1377 c 128,-1,13
 451 1322 451 1322 413 1283.5 c 128,-1,14
 375 1245 375 1245 321 1245 c 128,-1,15
 267 1245 267 1245 229 1283.5 c 128,-1,8
 191 1322 191 1322 191 1377 c 128,-1,9
760 20 m 1,16,-1
 548 20 l 2,17,18
 376 20 376 20 256 137 c 128,-1,19
 136 254 136 254 134 424 c 2,20,-1
 130 730 l 1,21,-1
 130 1028 l 1,22,-1
 328 1120 l 1,23,24
 328 927 328 927 328 734 c 2,25,-1
 328 429 l 2,26,27
 328 332 328 332 398 268 c 0,28,29
 458 213 458 213 546 212 c 2,30,-1
 756 210 l 1,31,-1
 756 1028 l 1,32,-1
 954 1120 l 1,33,-1
 954 30 l 1,34,35
 952 -158 952 -158 832 -275 c 0,36,37
 710 -394 710 -394 540 -394 c 2,38,-1
 242 -394 l 1,39,-1
 332 -202 l 1,40,-1
 542 -200 l 2,41,42
 630 -199 630 -199 690 -144 c 0,43,44
 760 -80 760 -80 760 -5 c 2,45,-1
 760 20 l 1,16,-1
EndSplineSet
Validated: 16385
EndChar

StartChar: Amacron
Encoding: 256 256 194
Width: 1408
GlyphClass: 2
Flags: W
HStem: 0 21G<200.987 239.641 1002 1043.2> 464 196<399 1002> 1289 202<398 876.112> 1704 187<459 930>
VStem: 201 198<103 464 660 1289> 1002 206<100 464 660 1162.21>
LayerCount: 2
Fore
SplineSet
399 660 m 1,0,-1
 1003 660 l 1,1,-1
 1003 994 l 2,2,3
 1003 1128 1003 1128 918 1213 c 0,4,5
 841 1290 841 1290 709 1290 c 2,6,-1
 398 1289 l 1,7,-1
 399 660 l 1,0,-1
201 0 m 1,8,-1
 200 1491 l 1,9,-1
 714 1489 l 2,10,11
 919 1488 919 1488 1063 1344 c 0,12,13
 1208 1199 1208 1199 1208 995 c 2,14,-1
 1208 100 l 1,15,-1
 1002 0 l 1,16,-1
 1002 464 l 1,17,-1
 399 464 l 1,18,-1
 400 103 l 1,19,-1
 201 0 l 1,8,-1
459 1891 m 1,20,-1
 1019 1891 l 1,21,-1
 930 1704 l 1,22,-1
 372 1704 l 1,23,-1
 459 1891 l 1,20,-1
EndSplineSet
Validated: 1
EndChar

StartChar: amacron
Encoding: 257 257 195
Width: 1106
GlyphClass: 2
Flags: W
HStem: 20 190<413.057 758> 906 194<413.105 757> 1326 187<300 771>
VStem: 130 196<290.173 818.187> 758 198<210 910>
LayerCount: 2
Fore
SplineSet
300 1513 m 1,0,-1
 860 1513 l 1,1,-1
 771 1326 l 1,2,-1
 213 1326 l 1,3,-1
 300 1513 l 1,0,-1
956 1100 m 1,4,-1
 956 20 l 1,5,-1
 546 20 l 2,6,7
 380 20 380 20 254 139 c 0,8,9
 130 256 130 256 130 417 c 0,10,11
 130 419 130 419 130 422 c 2,12,-1
 134 694 l 2,13,14
 137 865 137 865 256 981 c 0,15,16
 378 1100 378 1100 548 1100 c 2,17,-1
 956 1100 l 1,4,-1
326 409 m 2,18,19
 326 318 326 318 400 262 c 0,20,21
 450 224 450 224 544 210 c 1,22,-1
 758 210 l 1,23,-1
 757 910 l 1,24,-1
 546 906 l 1,25,26
 459 906 459 906 398 850 c 0,27,28
 329 786 329 786 328 689 c 2,29,-1
 326 409 l 2,18,19
EndSplineSet
Validated: 16385
EndChar

StartChar: Abreve
Encoding: 258 258 196
Width: 1408
GlyphClass: 2
Flags: W
HStem: 0 21G<200.987 239.641 1002 1043.2> 464 196<399 1002> 1289 202<398 876.112> 1650 194<560.029 835.45>
VStem: 201 198<103 464 660 1289> 1002 206<100 464 660 1162.21>
LayerCount: 2
Fore
SplineSet
399 660 m 1,0,-1
 1003 660 l 1,1,-1
 1003 994 l 2,2,3
 1003 1128 1003 1128 918 1213 c 0,4,5
 841 1290 841 1290 709 1290 c 2,6,-1
 398 1289 l 1,7,-1
 399 660 l 1,0,-1
201 0 m 1,8,-1
 200 1491 l 1,9,-1
 714 1489 l 2,10,11
 919 1488 919 1488 1063 1344 c 0,12,13
 1208 1199 1208 1199 1208 995 c 2,14,-1
 1208 100 l 1,15,-1
 1002 0 l 1,16,-1
 1002 464 l 1,17,-1
 399 464 l 1,18,-1
 400 103 l 1,19,-1
 201 0 l 1,8,-1
1033 1812 m 1,20,21
 974 1750 974 1750 906 1710 c 0,22,23
 804 1650 804 1650 692 1650 c 0,24,25
 577 1650 577 1650 478 1710 c 0,26,27
 415 1748 415 1748 362 1800 c 1,28,-1
 500 1938 l 1,29,30
 508 1930 508 1930 519 1920 c 0,31,32
 603 1844 603 1844 698 1844 c 0,33,34
 794 1844 794 1844 875 1919 c 2,35,-1
 887 1930 l 1,36,-1
 1033 1812 l 1,20,21
EndSplineSet
Validated: 1
EndChar

StartChar: abreve
Encoding: 259 259 197
Width: 1106
GlyphClass: 2
Flags: W
HStem: 20 190<413.057 758> 906 194<413.105 757> 1287 194<405.029 680.45>
VStem: 130 196<290.173 818.187> 758 198<210 910>
LayerCount: 2
Fore
SplineSet
878 1449 m 1,0,1
 819 1387 819 1387 751 1347 c 0,2,3
 649 1287 649 1287 537 1287 c 0,4,5
 422 1287 422 1287 323 1347 c 0,6,7
 260 1385 260 1385 207 1437 c 1,8,-1
 345 1575 l 1,9,10
 353 1567 353 1567 364 1557 c 0,11,12
 448 1481 448 1481 543 1481 c 0,13,14
 639 1481 639 1481 720 1556 c 2,15,-1
 732 1567 l 1,16,-1
 878 1449 l 1,0,1
956 1100 m 1,17,-1
 956 20 l 1,18,-1
 546 20 l 2,19,20
 380 20 380 20 254 139 c 0,21,22
 130 256 130 256 130 417 c 0,23,24
 130 419 130 419 130 422 c 2,25,-1
 134 694 l 2,26,27
 137 865 137 865 256 981 c 0,28,29
 378 1100 378 1100 548 1100 c 2,30,-1
 956 1100 l 1,17,-1
326 409 m 2,31,32
 326 318 326 318 400 262 c 0,33,34
 450 224 450 224 544 210 c 1,35,-1
 758 210 l 1,36,-1
 757 910 l 1,37,-1
 546 906 l 1,38,39
 459 906 459 906 398 850 c 0,40,41
 329 786 329 786 328 689 c 2,42,-1
 326 409 l 2,31,32
EndSplineSet
Validated: 16385
EndChar

StartChar: Aogonek
Encoding: 260 260 198
Width: 1408
GlyphClass: 2
Flags: W
HStem: 0 21G<200.987 239.641 1002 1043.21> 464 196<399 1002> 1289 202<398 876.112>
VStem: 201 198<103 464 660 1289> 1002 206<100 464 660 1162.21>
LayerCount: 2
Fore
SplineSet
201 0 m 1,0,-1
 200 1491 l 1,1,-1
 714 1489 l 2,2,3
 919 1488 919 1488 1063 1344 c 0,4,5
 1208 1199 1208 1199 1208 995 c 2,6,-1
 1208 100 l 1,7,-1
 1123 59 l 1,8,-1
 1226 -44 l 1,9,-1
 1136 -136 l 1,10,-1
 1252 -250 l 1,11,-1
 1126 -380 l 1,12,-1
 902 -136 l 1,13,-1
 1070 33 l 1,14,-1
 1002 0 l 1,15,-1
 1002 464 l 1,16,-1
 399 464 l 1,17,-1
 400 103 l 1,18,-1
 201 0 l 1,0,-1
399 660 m 1,19,-1
 1003 660 l 1,20,-1
 1003 994 l 2,21,22
 1003 1128 1003 1128 918 1213 c 0,23,24
 841 1290 841 1290 709 1290 c 2,25,-1
 398 1289 l 1,26,-1
 399 660 l 1,19,-1
EndSplineSet
Validated: 1
EndChar

StartChar: aogonek
Encoding: 261 261 199
Width: 1106
GlyphClass: 2
Flags: W
HStem: 20 190<413.057 758> 910 190<417.797 757>
VStem: 130 196<290.173 818.187> 758 198<210 910>
LayerCount: 2
Fore
SplineSet
326 409 m 2,0,1
 326 318 326 318 400 262 c 0,2,3
 450 224 450 224 544 210 c 1,4,-1
 758 210 l 1,5,-1
 757 910 l 1,6,-1
 546 906 l 1,7,8
 459 906 459 906 398 850 c 0,9,10
 329 786 329 786 328 689 c 2,11,-1
 326 409 l 2,0,1
956 1100 m 1,12,-1
 956 20 l 1,13,-1
 884 20 l 1,14,-1
 953 -48 l 1,15,-1
 863 -140 l 1,16,-1
 979 -254 l 1,17,-1
 853 -384 l 1,18,-1
 629 -140 l 1,19,-1
 788 20 l 1,20,-1
 546 20 l 2,21,22
 380 20 380 20 254 139 c 0,23,24
 130 256 130 256 130 417 c 2,25,-1
 130 422 l 1,26,-1
 134 694 l 2,27,28
 137 865 137 865 256 981 c 0,29,30
 378 1100 378 1100 548 1100 c 2,31,-1
 956 1100 l 1,12,-1
EndSplineSet
Validated: 16385
EndChar

StartChar: Cacute
Encoding: 262 262 200
Width: 1246
GlyphClass: 2
Flags: W
HStem: 21 197<523.291 1054> 1292 199<532.376 1010>
VStem: 200 205<341.904 1163.55>
DStem2: 565 1725 695 1599 0.770645 0.637264<19.8886 404.856>
LayerCount: 2
Fore
SplineSet
877 1983 m 1,0,-1
 1007 1857 l 1,1,-1
 695 1599 l 1,2,-1
 565 1725 l 1,3,-1
 877 1983 l 1,0,-1
1146 218 m 1,4,-1
 1054 20 l 1,5,-1
 694 21 l 2,6,7
 489 22 489 22 345 166 c 0,8,9
 204 307 204 307 201 514 c 1,10,-1
 200 997 l 2,11,12
 200 1201 200 1201 345 1346 c 256,13,14
 490 1491 490 1491 694 1491 c 2,15,-1
 1104 1491 l 1,16,-1
 1010 1291 l 1,17,-1
 699 1292 l 2,18,19
 567 1292 567 1292 490 1215 c 0,20,21
 405 1130 405 1130 405 999 c 0,22,23
 405 998 405 998 405 996 c 2,24,-1
 407 514 l 1,25,26
 409 372 409 372 486 292 c 0,27,28
 557 218 557 218 701 218 c 2,29,-1
 1146 218 l 1,4,-1
EndSplineSet
Validated: 1
EndChar

StartChar: cacute
Encoding: 263 263 201
Width: 932
GlyphClass: 2
Flags: W
HStem: 20 190<413.057 788> 906 194<413.105 764>
VStem: 130 196<290.502 818.187>
DStem2: 410 1314 540 1188 0.770645 0.637264<19.8886 404.856>
LayerCount: 2
Fore
SplineSet
722 1572 m 1,0,-1
 852 1446 l 1,1,-1
 540 1188 l 1,2,-1
 410 1314 l 1,3,-1
 722 1572 l 1,0,-1
326 415 m 2,4,5
 326 318 326 318 400 262 c 0,6,7
 450 224 450 224 544 210 c 1,8,-1
 872 210 l 1,9,-1
 788 20 l 1,10,-1
 546 20 l 2,11,12
 380 20 380 20 254 139 c 0,13,14
 130 256 130 256 130 417 c 0,15,16
 130 419 130 419 130 422 c 2,17,-1
 134 694 l 2,18,19
 137 864 137 864 256 981 c 0,20,21
 378 1100 378 1100 548 1100 c 2,22,-1
 854 1100 l 1,23,-1
 764 910 l 1,24,-1
 546 906 l 1,25,26
 459 906 459 906 398 850 c 0,27,28
 329 786 329 786 328 689 c 2,29,-1
 326 415 l 2,4,5
EndSplineSet
Validated: 16385
EndChar

StartChar: Ccircumflex
Encoding: 264 264 202
Width: 1246
GlyphClass: 2
Flags: W
HStem: 21 197<523.291 1054> 1292 199<532.376 1010> 1750 233<584.5 817.5>
VStem: 200 205<341.904 1163.55>
LayerCount: 2
Fore
SplineSet
883 1599 m 1,0,-1
 701 1750 l 1,1,-1
 519 1599 l 1,2,-1
 389 1725 l 1,3,-1
 701 1983 l 1,4,-1
 1013 1725 l 1,5,-1
 883 1599 l 1,0,-1
1146 218 m 1,6,-1
 1054 20 l 1,7,-1
 694 21 l 2,8,9
 489 22 489 22 345 166 c 0,10,11
 204 307 204 307 201 514 c 1,12,-1
 200 997 l 2,13,14
 200 1201 200 1201 345 1346 c 256,15,16
 490 1491 490 1491 694 1491 c 2,17,-1
 1104 1491 l 1,18,-1
 1010 1291 l 1,19,-1
 699 1292 l 2,20,21
 567 1292 567 1292 490 1215 c 0,22,23
 405 1130 405 1130 405 999 c 0,24,25
 405 998 405 998 405 996 c 2,26,-1
 407 514 l 1,27,28
 409 372 409 372 486 292 c 0,29,30
 557 218 557 218 701 218 c 2,31,-1
 1146 218 l 1,6,-1
EndSplineSet
Validated: 1
EndChar

StartChar: ccircumflex
Encoding: 265 265 203
Width: 932
GlyphClass: 2
Flags: W
HStem: 20 190<413.057 788> 906 194<413.105 764> 1348 233<427.5 660.5>
VStem: 130 196<290.502 818.187>
LayerCount: 2
Fore
SplineSet
726 1197 m 1,0,-1
 544 1348 l 1,1,-1
 362 1197 l 1,2,-1
 232 1323 l 1,3,-1
 544 1581 l 1,4,-1
 856 1323 l 1,5,-1
 726 1197 l 1,0,-1
326 415 m 2,6,7
 326 318 326 318 400 262 c 0,8,9
 450 224 450 224 544 210 c 1,10,-1
 872 210 l 1,11,-1
 788 20 l 1,12,-1
 546 20 l 2,13,14
 380 20 380 20 254 139 c 0,15,16
 130 256 130 256 130 417 c 0,17,18
 130 419 130 419 130 422 c 2,19,-1
 134 694 l 2,20,21
 137 864 137 864 256 981 c 0,22,23
 378 1100 378 1100 548 1100 c 2,24,-1
 854 1100 l 1,25,-1
 764 910 l 1,26,-1
 546 906 l 1,27,28
 459 906 459 906 398 850 c 0,29,30
 329 786 329 786 328 689 c 2,31,-1
 326 415 l 2,6,7
EndSplineSet
Validated: 16385
EndChar

StartChar: Cdotaccent
Encoding: 266 266 204
Width: 1246
GlyphClass: 2
Flags: W
HStem: 21 197<523.291 1054> 1292 199<532.376 1010> 1632 264<601.191 782.809>
VStem: 200 205<341.904 1163.55> 562 260<1671.71 1856.29>
LayerCount: 2
Fore
SplineSet
562 1764 m 128,-1,1
 562 1819 562 1819 600 1857.5 c 128,-1,2
 638 1896 638 1896 692 1896 c 128,-1,3
 746 1896 746 1896 784 1857.5 c 128,-1,4
 822 1819 822 1819 822 1764 c 128,-1,5
 822 1709 822 1709 784 1670.5 c 128,-1,6
 746 1632 746 1632 692 1632 c 128,-1,7
 638 1632 638 1632 600 1670.5 c 128,-1,0
 562 1709 562 1709 562 1764 c 128,-1,1
1146 218 m 1,8,-1
 1054 20 l 1,9,-1
 694 21 l 2,10,11
 489 22 489 22 345 166 c 0,12,13
 204 307 204 307 201 514 c 1,14,-1
 200 997 l 2,15,16
 200 1201 200 1201 345 1346 c 256,17,18
 490 1491 490 1491 694 1491 c 2,19,-1
 1104 1491 l 1,20,-1
 1010 1291 l 1,21,-1
 699 1292 l 2,22,23
 567 1292 567 1292 490 1215 c 0,24,25
 405 1130 405 1130 405 999 c 0,26,27
 405 998 405 998 405 996 c 2,28,-1
 407 514 l 1,29,30
 409 372 409 372 486 292 c 0,31,32
 557 218 557 218 701 218 c 2,33,-1
 1146 218 l 1,8,-1
EndSplineSet
Validated: 1
EndChar

StartChar: cdotaccent
Encoding: 267 267 205
Width: 932
GlyphClass: 2
Flags: W
HStem: 20 190<413.057 788> 906 194<413.105 764> 1246 264<449.191 630.809>
VStem: 130 196<290.502 818.187> 410 260<1285.71 1470.29>
LayerCount: 2
Fore
SplineSet
410 1378 m 128,-1,1
 410 1433 410 1433 448 1471.5 c 128,-1,2
 486 1510 486 1510 540 1510 c 128,-1,3
 594 1510 594 1510 632 1471.5 c 128,-1,4
 670 1433 670 1433 670 1378 c 128,-1,5
 670 1323 670 1323 632 1284.5 c 128,-1,6
 594 1246 594 1246 540 1246 c 128,-1,7
 486 1246 486 1246 448 1284.5 c 128,-1,0
 410 1323 410 1323 410 1378 c 128,-1,1
326 415 m 2,8,9
 326 318 326 318 400 262 c 0,10,11
 450 224 450 224 544 210 c 1,12,-1
 872 210 l 1,13,-1
 788 20 l 1,14,-1
 546 20 l 2,15,16
 380 20 380 20 254 139 c 0,17,18
 130 256 130 256 130 417 c 0,19,20
 130 419 130 419 130 422 c 2,21,-1
 134 694 l 2,22,23
 137 864 137 864 256 981 c 0,24,25
 378 1100 378 1100 548 1100 c 2,26,-1
 854 1100 l 1,27,-1
 764 910 l 1,28,-1
 546 906 l 1,29,30
 459 906 459 906 398 850 c 0,31,32
 329 786 329 786 328 689 c 2,33,-1
 326 415 l 2,8,9
EndSplineSet
Validated: 16385
EndChar

StartChar: Ccaron
Encoding: 268 268 206
Width: 1246
GlyphClass: 2
Flags: W
HStem: 21 197<523.291 1054> 1292 199<532.376 1010> 1599 233<578.5 811.5>
VStem: 200 205<341.904 1163.55>
LayerCount: 2
Fore
SplineSet
1146 218 m 1,0,-1
 1054 20 l 1,1,-1
 694 21 l 2,2,3
 489 22 489 22 345 166 c 0,4,5
 204 307 204 307 201 514 c 1,6,-1
 200 997 l 2,7,8
 200 1201 200 1201 345 1346 c 128,-1,9
 490 1491 490 1491 694 1491 c 2,10,-1
 1104 1491 l 1,11,-1
 1010 1291 l 1,12,-1
 699 1292 l 2,13,14
 567 1292 567 1292 490 1215 c 0,15,16
 405 1130 405 1130 405 999 c 2,17,-1
 405 996 l 1,18,-1
 407 514 l 1,19,20
 409 372 409 372 486 292 c 0,21,22
 557 218 557 218 701 218 c 2,23,-1
 1146 218 l 1,0,-1
877 1983 m 1,24,-1
 1007 1857 l 1,25,-1
 695 1599 l 1,26,-1
 383 1857 l 1,27,-1
 513 1983 l 1,28,-1
 695 1832 l 1,29,-1
 877 1983 l 1,24,-1
EndSplineSet
Validated: 1
EndChar

StartChar: ccaron
Encoding: 269 269 207
Width: 932
GlyphClass: 2
Flags: W
HStem: 20 190<413.057 788> 906 194<413.105 764> 1188 234<423 657>
VStem: 130 196<290.502 818.187>
LayerCount: 2
Fore
SplineSet
722 1572 m 1,0,-1
 852 1446 l 1,1,-1
 540 1188 l 1,2,-1
 228 1446 l 1,3,-1
 358 1572 l 1,4,-1
 540 1422 l 1,5,-1
 722 1572 l 1,0,-1
326 415 m 2,6,7
 326 318 326 318 400 262 c 0,8,9
 450 224 450 224 544 210 c 1,10,-1
 872 210 l 1,11,-1
 788 20 l 1,12,-1
 546 20 l 2,13,14
 380 20 380 20 254 139 c 0,15,16
 130 256 130 256 130 417 c 0,17,18
 130 419 130 419 130 422 c 2,19,-1
 134 694 l 2,20,21
 137 864 137 864 256 981 c 0,22,23
 378 1100 378 1100 548 1100 c 2,24,-1
 854 1100 l 1,25,-1
 764 910 l 1,26,-1
 546 906 l 1,27,28
 459 906 459 906 398 850 c 0,29,30
 329 786 329 786 328 689 c 2,31,-1
 326 415 l 2,6,7
EndSplineSet
Validated: 16385
EndChar

StartChar: Dcaron
Encoding: 270 270 208
Width: 1408
GlyphClass: 2
Flags: W
HStem: 20 198<396 885.427> 1289 202<398 876.112> 1599 233<578.5 811.5>
VStem: 200 196<218 1289> 1003 205<341.904 1161.55>
LayerCount: 2
Fore
SplineSet
877 1983 m 1,0,-1
 1007 1857 l 1,1,-1
 695 1599 l 1,2,-1
 383 1857 l 1,3,-1
 513 1983 l 1,4,-1
 695 1832 l 1,5,-1
 877 1983 l 1,0,-1
709 1290 m 2,6,-1
 398 1289 l 1,7,-1
 396 218 l 1,8,-1
 707 218 l 2,9,10
 853 218 853 218 922 292 c 1,11,12
 999 372 999 372 1001 514 c 1,13,-1
 1003 994 l 1,14,-1
 1003 997 l 2,15,16
 1003 1128 1003 1128 918 1213 c 0,17,18
 841 1290 841 1290 709 1290 c 2,6,-1
200 1491 m 1,19,-1
 714 1489 l 2,20,21
 919 1488 919 1488 1063 1344 c 0,22,23
 1208 1199 1208 1199 1208 995 c 2,24,-1
 1207 514 l 1,25,26
 1204 307 1204 307 1063 166 c 0,27,28
 918 21 918 21 714 21 c 2,29,-1
 200 20 l 1,30,-1
 200 1491 l 1,19,-1
EndSplineSet
Validated: 1
EndChar

StartChar: dcaron
Encoding: 271 271 209
Width: 1349
GlyphClass: 2
Flags: W
HStem: 20 190<413.057 758> 906 194<413.105 756> 1491 20G<911.556 956>
VStem: 130 196<290.143 818.187> 756 200<210 910 1100 1421>
DStem2: 999 1148 1170 1089 0.429359 0.903134<20.1354 405.255>
LayerCount: 2
Fore
SplineSet
1173 1514 m 1,0,-1
 1344 1455 l 1,1,-1
 1170 1089 l 1,2,-1
 999 1148 l 1,3,-1
 1173 1514 l 1,0,-1
956 20 m 1,4,-1
 546 20 l 2,5,6
 380 20 380 20 254 139 c 0,7,8
 130 256 130 256 130 417 c 0,9,10
 130 419 130 419 130 422 c 2,11,-1
 134 694 l 2,12,13
 136 864 136 864 256 981 c 0,14,15
 378 1100 378 1100 548 1100 c 2,16,-1
 756 1100 l 1,17,-1
 756 1421 l 1,18,-1
 956 1511 l 1,19,-1
 956 20 l 1,4,-1
326 415 m 2,20,21
 326 317 326 317 400 262 c 0,22,23
 451 224 451 224 544 210 c 1,24,-1
 758 210 l 1,25,-1
 757 910 l 1,26,-1
 546 906 l 1,27,28
 459 906 459 906 398 850 c 0,29,30
 329 786 329 786 328 689 c 2,31,-1
 326 415 l 2,20,21
EndSplineSet
Validated: 16385
EndChar

StartChar: Dcroat
Encoding: 272 272 210
Width: 1408
GlyphClass: 2
Flags: W
HStem: 20 198<396 885.427> 597 198<101 200 397 699> 1289 202<398 876.112>
VStem: 200 197<218 597 795 1289> 1003 205<341.904 1161.55>
LayerCount: 2
Fore
SplineSet
200 1491 m 1,0,-1
 714 1489 l 2,1,2
 919 1488 919 1488 1063 1344 c 0,3,4
 1208 1199 1208 1199 1208 995 c 2,5,-1
 1207 514 l 1,6,7
 1204 307 1204 307 1063 166 c 0,8,9
 918 21 918 21 714 21 c 2,10,-1
 200 20 l 1,11,-1
 200 597 l 1,12,-1
 11 597 l 1,13,-1
 101 795 l 1,14,-1
 200 795 l 1,15,-1
 200 1491 l 1,0,-1
709 1290 m 2,16,-1
 398 1289 l 1,17,-1
 397 795 l 1,18,-1
 791 795 l 1,19,-1
 699 597 l 1,20,-1
 397 597 l 1,21,-1
 396 218 l 1,22,-1
 707 218 l 2,23,24
 853 218 853 218 922 292 c 1,25,26
 999 372 999 372 1001 514 c 1,27,-1
 1003 994 l 1,28,-1
 1003 997 l 2,29,30
 1003 1128 1003 1128 918 1213 c 0,31,32
 841 1290 841 1290 709 1290 c 2,16,-1
EndSplineSet
Validated: 1
EndChar

StartChar: dcroat
Encoding: 273 273 211
Width: 1106
GlyphClass: 2
Flags: W
HStem: 20 190<413.057 758> 906 194<413.105 756> 1208 187<454 756 956 1012> 1491 20G<911.556 956>
VStem: 130 196<290.143 818.187> 756 200<210 910 1100 1208 1395 1421>
LayerCount: 2
Fore
SplineSet
326 415 m 2,0,1
 326 317 326 317 400 262 c 0,2,3
 451 224 451 224 544 210 c 1,4,-1
 758 210 l 1,5,-1
 757 910 l 1,6,-1
 546 906 l 1,7,8
 459 906 459 906 398 850 c 0,9,10
 329 786 329 786 328 689 c 2,11,-1
 326 415 l 2,0,1
956 20 m 1,12,-1
 546 20 l 2,13,14
 380 20 380 20 254 139 c 0,15,16
 130 256 130 256 130 417 c 2,17,-1
 130 422 l 1,18,-1
 134 694 l 2,19,20
 136 864 136 864 256 981 c 0,21,22
 378 1100 378 1100 548 1100 c 2,23,-1
 756 1100 l 1,24,-1
 756 1208 l 1,25,-1
 367 1208 l 1,26,-1
 454 1395 l 1,27,-1
 756 1395 l 1,28,-1
 756 1421 l 1,29,-1
 956 1511 l 1,30,-1
 956 1395 l 1,31,-1
 1101 1395 l 1,32,-1
 1012 1208 l 1,33,-1
 956 1208 l 1,34,-1
 956 20 l 1,12,-1
EndSplineSet
Validated: 1
EndChar

StartChar: Emacron
Encoding: 274 274 212
Width: 1138
GlyphClass: 2
Flags: W
HStem: 20 192<396 996> 664 192<397 890> 1300 191<395 891> 1704 187<459 930>
VStem: 200 196<212 664 856 1300>
LayerCount: 2
Fore
SplineSet
459 1891 m 1,0,-1
 1019 1891 l 1,1,-1
 930 1704 l 1,2,-1
 372 1704 l 1,3,-1
 459 1891 l 1,0,-1
200 1491 m 1,4,-1
 981 1492 l 1,5,-1
 891 1300 l 1,6,-1
 395 1300 l 1,7,-1
 397 856 l 1,8,-1
 978 856 l 1,9,-1
 890 664 l 1,10,-1
 396 664 l 1,11,-1
 396 212 l 1,12,-1
 1088 212 l 1,13,-1
 996 20 l 1,14,-1
 200 20 l 1,15,-1
 200 1491 l 1,4,-1
EndSplineSet
Validated: 1
EndChar

StartChar: emacron
Encoding: 275 275 213
Width: 1080
GlyphClass: 2
Flags: W
HStem: 20 190<413.057 788> 448 195<328 752.891> 927 193<411.352 670.693> 1326 187<300 771>
VStem: 130 196<290.502 448 643 839.187> 756 194<644 843.413>
LayerCount: 2
Fore
SplineSet
300 1513 m 1,0,-1
 860 1513 l 1,1,-1
 771 1326 l 1,2,-1
 213 1326 l 1,3,-1
 300 1513 l 1,0,-1
326 415 m 2,4,5
 326 318 326 318 400 262 c 0,6,7
 450 224 450 224 544 210 c 1,8,-1
 872 210 l 1,9,-1
 788 20 l 1,10,-1
 546 20 l 2,11,12
 380 20 380 20 254 139 c 0,13,14
 130 256 130 256 130 417 c 0,15,16
 130 419 130 419 130 422 c 2,17,-1
 134 715 l 2,18,19
 136 885 136 885 256 1002 c 0,20,21
 377 1120 377 1120 543 1120 c 2,22,-1
 546 1120 l 1,23,24
 708 1119 708 1119 828 1002 c 0,25,26
 950 883 950 883 950 715 c 2,27,-1
 950 704 l 2,28,29
 950 448 950 448 710 448 c 2,30,-1
 708 448 l 1,31,-1
 326 448 l 1,32,-1
 326 415 l 2,4,5
537 927 m 0,33,34
 458 927 458 927 398 871 c 0,35,36
 329 807 329 807 328 710 c 1,37,-1
 328 643 l 1,38,-1
 712 642 l 2,39,40
 756 642 756 642 756 703 c 2,41,-1
 756 710 l 2,42,43
 756 807 756 807 686 871 c 0,44,45
 626 926 626 926 537 927 c 0,33,34
EndSplineSet
Validated: 16385
EndChar

StartChar: Ebreve
Encoding: 276 276 214
Width: 1138
GlyphClass: 2
Flags: W
HStem: 20 192<396 996> 664 192<397 890> 1300 191<395 891> 1650 194<560.029 835.45>
VStem: 200 196<212 664 856 1300>
LayerCount: 2
Fore
SplineSet
1033 1812 m 1,0,1
 974 1750 974 1750 906 1710 c 0,2,3
 804 1650 804 1650 692 1650 c 0,4,5
 577 1650 577 1650 478 1710 c 0,6,7
 415 1748 415 1748 362 1800 c 1,8,-1
 500 1938 l 1,9,10
 508 1930 508 1930 519 1920 c 0,11,12
 603 1844 603 1844 698 1844 c 0,13,14
 794 1844 794 1844 875 1919 c 2,15,-1
 887 1930 l 1,16,-1
 1033 1812 l 1,0,1
200 1491 m 1,17,-1
 981 1492 l 1,18,-1
 891 1300 l 1,19,-1
 395 1300 l 1,20,-1
 397 856 l 1,21,-1
 978 856 l 1,22,-1
 890 664 l 1,23,-1
 396 664 l 1,24,-1
 396 212 l 1,25,-1
 1088 212 l 1,26,-1
 996 20 l 1,27,-1
 200 20 l 1,28,-1
 200 1491 l 1,17,-1
EndSplineSet
Validated: 1
EndChar

StartChar: ebreve
Encoding: 277 277 215
Width: 1080
GlyphClass: 2
Flags: W
HStem: 20 190<413.057 788> 448 195<328 752.891> 927 193<411.352 670.693> 1287 194<405.029 680.45>
VStem: 130 196<290.502 448 643 839.187> 756 194<644 843.413>
LayerCount: 2
Fore
SplineSet
878 1449 m 1,0,1
 819 1387 819 1387 751 1347 c 0,2,3
 649 1287 649 1287 537 1287 c 0,4,5
 422 1287 422 1287 323 1347 c 0,6,7
 260 1385 260 1385 207 1437 c 1,8,-1
 345 1575 l 1,9,10
 353 1567 353 1567 364 1557 c 0,11,12
 448 1481 448 1481 543 1481 c 0,13,14
 639 1481 639 1481 720 1556 c 2,15,-1
 732 1567 l 1,16,-1
 878 1449 l 1,0,1
326 415 m 2,17,18
 326 318 326 318 400 262 c 0,19,20
 450 224 450 224 544 210 c 1,21,-1
 872 210 l 1,22,-1
 788 20 l 1,23,-1
 546 20 l 2,24,25
 380 20 380 20 254 139 c 0,26,27
 130 256 130 256 130 417 c 0,28,29
 130 419 130 419 130 422 c 2,30,-1
 134 715 l 2,31,32
 136 885 136 885 256 1002 c 0,33,34
 377 1120 377 1120 543 1120 c 2,35,-1
 546 1120 l 1,36,37
 708 1119 708 1119 828 1002 c 0,38,39
 950 883 950 883 950 715 c 2,40,-1
 950 704 l 2,41,42
 950 448 950 448 710 448 c 2,43,-1
 708 448 l 1,44,-1
 326 448 l 1,45,-1
 326 415 l 2,17,18
537 927 m 0,46,47
 458 927 458 927 398 871 c 0,48,49
 329 807 329 807 328 710 c 1,50,-1
 328 643 l 1,51,-1
 712 642 l 2,52,53
 756 642 756 642 756 703 c 2,54,-1
 756 710 l 2,55,56
 756 807 756 807 686 871 c 0,57,58
 626 926 626 926 537 927 c 0,46,47
EndSplineSet
Validated: 16385
EndChar

StartChar: Edotaccent
Encoding: 278 278 216
Width: 1138
GlyphClass: 2
Flags: W
HStem: 20 192<396 996> 664 192<397 890> 1300 191<395 891> 1626 264<508.191 689.809>
VStem: 200 196<212 664 856 1300> 469 260<1665.71 1850.29>
LayerCount: 2
Fore
SplineSet
469 1758 m 128,-1,1
 469 1813 469 1813 507 1851.5 c 128,-1,2
 545 1890 545 1890 599 1890 c 128,-1,3
 653 1890 653 1890 691 1851.5 c 128,-1,4
 729 1813 729 1813 729 1758 c 128,-1,5
 729 1703 729 1703 691 1664.5 c 128,-1,6
 653 1626 653 1626 599 1626 c 128,-1,7
 545 1626 545 1626 507 1664.5 c 128,-1,0
 469 1703 469 1703 469 1758 c 128,-1,1
200 1491 m 1,8,-1
 981 1492 l 1,9,-1
 891 1300 l 1,10,-1
 395 1300 l 1,11,-1
 397 856 l 1,12,-1
 978 856 l 1,13,-1
 890 664 l 1,14,-1
 396 664 l 1,15,-1
 396 212 l 1,16,-1
 1088 212 l 1,17,-1
 996 20 l 1,18,-1
 200 20 l 1,19,-1
 200 1491 l 1,8,-1
EndSplineSet
Validated: 1
EndChar

StartChar: edotaccent
Encoding: 279 279 217
Width: 1080
GlyphClass: 2
Flags: W
HStem: 20 190<413.057 788> 448 195<328 752.891> 927 193<411.352 670.693> 1246 264<449.191 630.809>
VStem: 130 196<290.502 448 643 839.187> 410 260<1285.71 1470.29> 756 194<644 843.413>
LayerCount: 2
Fore
SplineSet
410 1378 m 128,-1,1
 410 1433 410 1433 448 1471.5 c 128,-1,2
 486 1510 486 1510 540 1510 c 128,-1,3
 594 1510 594 1510 632 1471.5 c 128,-1,4
 670 1433 670 1433 670 1378 c 128,-1,5
 670 1323 670 1323 632 1284.5 c 128,-1,6
 594 1246 594 1246 540 1246 c 128,-1,7
 486 1246 486 1246 448 1284.5 c 128,-1,0
 410 1323 410 1323 410 1378 c 128,-1,1
326 415 m 2,8,9
 326 318 326 318 400 262 c 0,10,11
 450 224 450 224 544 210 c 1,12,-1
 872 210 l 1,13,-1
 788 20 l 1,14,-1
 546 20 l 2,15,16
 380 20 380 20 254 139 c 0,17,18
 130 256 130 256 130 417 c 0,19,20
 130 419 130 419 130 422 c 2,21,-1
 134 715 l 2,22,23
 136 885 136 885 256 1002 c 0,24,25
 377 1120 377 1120 543 1120 c 2,26,-1
 546 1120 l 1,27,28
 708 1119 708 1119 828 1002 c 0,29,30
 950 883 950 883 950 715 c 2,31,-1
 950 704 l 2,32,33
 950 448 950 448 710 448 c 2,34,-1
 708 448 l 1,35,-1
 326 448 l 1,36,-1
 326 415 l 2,8,9
537 927 m 0,37,38
 458 927 458 927 398 871 c 0,39,40
 329 807 329 807 328 710 c 1,41,-1
 328 643 l 1,42,-1
 712 642 l 2,43,44
 756 642 756 642 756 703 c 2,45,-1
 756 710 l 2,46,47
 756 807 756 807 686 871 c 0,48,49
 626 926 626 926 537 927 c 0,37,38
EndSplineSet
Validated: 16385
EndChar

StartChar: Eogonek
Encoding: 280 280 218
Width: 1138
GlyphClass: 2
Flags: W
HStem: -395 21G<879.639 917.385> 20 192<396 844 918 996> 664 192<397 890> 1300 191<395 891>
VStem: 200 196<212 664 856 1300>
LayerCount: 2
Fore
SplineSet
200 1491 m 1,0,-1
 981 1492 l 1,1,-1
 891 1300 l 1,2,-1
 395 1300 l 1,3,-1
 397 856 l 1,4,-1
 978 856 l 1,5,-1
 890 664 l 1,6,-1
 396 664 l 1,7,-1
 396 212 l 1,8,-1
 1088 212 l 1,9,-1
 996 20 l 1,10,-1
 918 20 l 1,11,-1
 998 -59 l 1,12,-1
 908 -151 l 1,13,-1
 1024 -265 l 1,14,-1
 898 -395 l 1,15,-1
 674 -151 l 1,16,-1
 844 20 l 1,17,-1
 200 20 l 1,18,-1
 200 1491 l 1,0,-1
EndSplineSet
Validated: 1
EndChar

StartChar: eogonek
Encoding: 281 281 219
Width: 1080
GlyphClass: 2
Flags: W
HStem: 20 190<413.057 638 722 788> 448 195<328 752.891> 927 193<411.352 670.693>
VStem: 130 196<290.502 448 643 839.187> 756 194<644 843.413>
LayerCount: 2
Fore
SplineSet
537 927 m 0,0,1
 458 927 458 927 398 871 c 0,2,3
 329 807 329 807 328 710 c 1,4,-1
 328 643 l 1,5,-1
 712 642 l 2,6,7
 756 642 756 642 756 703 c 2,8,-1
 756 710 l 2,9,10
 756 807 756 807 686 871 c 0,11,12
 626 926 626 926 537 927 c 0,0,1
326 415 m 2,13,14
 326 318 326 318 400 262 c 0,15,16
 450 224 450 224 544 210 c 1,17,-1
 872 210 l 1,18,-1
 788 20 l 1,19,-1
 722 20 l 1,20,-1
 797 -54 l 1,21,-1
 707 -146 l 1,22,-1
 823 -260 l 1,23,-1
 697 -390 l 1,24,-1
 473 -146 l 1,25,-1
 638 20 l 1,26,-1
 546 20 l 2,27,28
 380 20 380 20 254 139 c 0,29,30
 130 256 130 256 130 417 c 2,31,-1
 130 422 l 1,32,-1
 134 715 l 2,33,34
 136 885 136 885 256 1002 c 0,35,36
 377 1120 377 1120 543 1120 c 2,37,-1
 546 1120 l 1,38,39
 708 1119 708 1119 828 1002 c 0,40,41
 950 883 950 883 950 715 c 2,42,-1
 950 704 l 2,43,44
 950 448 950 448 710 448 c 2,45,-1
 708 448 l 1,46,-1
 326 448 l 1,47,-1
 326 415 l 2,13,14
EndSplineSet
Validated: 16385
EndChar

StartChar: Ecaron
Encoding: 282 282 220
Width: 1138
GlyphClass: 2
Flags: W
HStem: 20 192<396 996> 664 192<397 890> 1300 191<395 891> 1599 233<578.5 811.5>
VStem: 200 196<212 664 856 1300>
LayerCount: 2
Fore
SplineSet
877 1983 m 1,0,-1
 1007 1857 l 1,1,-1
 695 1599 l 1,2,-1
 383 1857 l 1,3,-1
 513 1983 l 1,4,-1
 695 1832 l 1,5,-1
 877 1983 l 1,0,-1
200 1491 m 1,6,-1
 981 1492 l 1,7,-1
 891 1300 l 1,8,-1
 395 1300 l 1,9,-1
 397 856 l 1,10,-1
 978 856 l 1,11,-1
 890 664 l 1,12,-1
 396 664 l 1,13,-1
 396 212 l 1,14,-1
 1088 212 l 1,15,-1
 996 20 l 1,16,-1
 200 20 l 1,17,-1
 200 1491 l 1,6,-1
EndSplineSet
Validated: 1
EndChar

StartChar: ecaron
Encoding: 283 283 221
Width: 1080
GlyphClass: 2
Flags: W
HStem: 20 190<413.057 788> 448 195<328 752.891> 927 193<411.352 670.693> 1188 234<423 657>
VStem: 130 196<290.502 448 643 839.187> 756 194<644 843.413>
LayerCount: 2
Fore
SplineSet
722 1572 m 1,0,-1
 852 1446 l 1,1,-1
 540 1188 l 1,2,-1
 228 1446 l 1,3,-1
 358 1572 l 1,4,-1
 540 1422 l 1,5,-1
 722 1572 l 1,0,-1
326 415 m 2,6,7
 326 318 326 318 400 262 c 0,8,9
 450 224 450 224 544 210 c 1,10,-1
 872 210 l 1,11,-1
 788 20 l 1,12,-1
 546 20 l 2,13,14
 380 20 380 20 254 139 c 0,15,16
 130 256 130 256 130 417 c 0,17,18
 130 419 130 419 130 422 c 2,19,-1
 134 715 l 2,20,21
 136 885 136 885 256 1002 c 0,22,23
 377 1120 377 1120 543 1120 c 2,24,-1
 546 1120 l 1,25,26
 708 1119 708 1119 828 1002 c 0,27,28
 950 883 950 883 950 715 c 2,29,-1
 950 704 l 2,30,31
 950 448 950 448 710 448 c 2,32,-1
 708 448 l 1,33,-1
 326 448 l 1,34,-1
 326 415 l 2,6,7
537 927 m 0,35,36
 458 927 458 927 398 871 c 0,37,38
 329 807 329 807 328 710 c 1,39,-1
 328 643 l 1,40,-1
 712 642 l 2,41,42
 756 642 756 642 756 703 c 2,43,-1
 756 710 l 2,44,45
 756 807 756 807 686 871 c 0,46,47
 626 926 626 926 537 927 c 0,35,36
EndSplineSet
Validated: 16385
EndChar

StartChar: Gcircumflex
Encoding: 284 284 222
Width: 1408
GlyphClass: 2
Flags: W
HStem: 21 197<523.291 1008> 662 194<764 1010> 1292 199<532.376 1010> 1750 233<584.5 817.5>
VStem: 200 205<341.904 1163.55> 1008 200<218 662>
LayerCount: 2
Fore
SplineSet
883 1599 m 1,0,-1
 701 1750 l 1,1,-1
 519 1599 l 1,2,-1
 389 1725 l 1,3,-1
 701 1983 l 1,4,-1
 1013 1725 l 1,5,-1
 883 1599 l 1,0,-1
1208 20 m 1,6,-1
 694 21 l 2,7,8
 490 21 490 21 345 166 c 0,9,10
 204 307 204 307 201 514 c 1,11,-1
 200 997 l 2,12,13
 200 1201 200 1201 345 1346 c 256,14,15
 490 1491 490 1491 694 1491 c 2,16,-1
 1104 1491 l 1,17,-1
 1010 1291 l 1,18,-1
 699 1292 l 2,19,20
 567 1292 567 1292 490 1215 c 0,21,22
 405 1130 405 1130 405 999 c 0,23,24
 405 998 405 998 405 996 c 2,25,-1
 407 514 l 1,26,27
 409 372 409 372 486 292 c 0,28,29
 557 218 557 218 701 218 c 2,30,-1
 1008 218 l 1,31,-1
 1010 662 l 1,32,-1
 679 662 l 1,33,-1
 764 856 l 1,34,-1
 1208 856 l 1,35,-1
 1208 20 l 1,6,-1
EndSplineSet
Validated: 1
EndChar

StartChar: gcircumflex
Encoding: 285 285 223
Width: 1106
GlyphClass: 2
Flags: W
HStem: -394 192<334 672.203> 20 190<413.057 757> 910 190<417.797 757> 1348 233<427.5 660.5>
VStem: 130 196<290.143 818.187> 757 199<-119.331 20 210 910>
LayerCount: 2
Fore
SplineSet
726 1197 m 1,0,-1
 544 1348 l 1,1,-1
 362 1197 l 1,2,-1
 232 1323 l 1,3,-1
 544 1581 l 1,4,-1
 856 1323 l 1,5,-1
 726 1197 l 1,0,-1
326 415 m 2,6,7
 326 317 326 317 400 262 c 0,8,9
 451 224 451 224 544 210 c 1,10,-1
 758 210 l 1,11,-1
 757 910 l 1,12,-1
 546 906 l 1,13,14
 459 906 459 906 398 850 c 0,15,16
 329 786 329 786 328 689 c 2,17,-1
 326 415 l 2,6,7
757 20 m 1,18,-1
 546 20 l 2,19,20
 380 20 380 20 254 139 c 0,21,22
 130 256 130 256 130 417 c 0,23,24
 130 419 130 419 130 422 c 2,25,-1
 134 694 l 2,26,27
 137 865 137 865 256 981 c 0,28,29
 378 1100 378 1100 548 1100 c 2,30,-1
 956 1100 l 1,31,-1
 956 20 l 1,32,33
 954 -158 954 -158 834 -275 c 0,34,35
 712 -394 712 -394 542 -394 c 2,36,-1
 244 -394 l 1,37,-1
 334 -202 l 1,38,-1
 544 -200 l 2,39,40
 632 -199 632 -199 692 -144 c 1,41,42
 757 -82 757 -82 757 -10 c 2,43,-1
 757 20 l 1,18,-1
EndSplineSet
Validated: 16385
EndChar

StartChar: Gbreve
Encoding: 286 286 224
Width: 1408
GlyphClass: 2
Flags: W
HStem: 21 197<523.291 1008> 662 194<764 1010> 1292 199<532.376 1010> 1650 194<560.029 835.45>
VStem: 200 205<341.904 1163.55> 1008 200<218 662>
LayerCount: 2
Fore
SplineSet
1033 1812 m 1,0,1
 974 1750 974 1750 906 1710 c 0,2,3
 804 1650 804 1650 692 1650 c 0,4,5
 577 1650 577 1650 478 1710 c 0,6,7
 415 1748 415 1748 362 1800 c 1,8,-1
 500 1938 l 1,9,10
 508 1930 508 1930 519 1920 c 0,11,12
 603 1844 603 1844 698 1844 c 0,13,14
 794 1844 794 1844 875 1919 c 2,15,-1
 887 1930 l 1,16,-1
 1033 1812 l 1,0,1
1208 20 m 1,17,-1
 694 21 l 2,18,19
 490 21 490 21 345 166 c 0,20,21
 204 307 204 307 201 514 c 1,22,-1
 200 997 l 2,23,24
 200 1201 200 1201 345 1346 c 256,25,26
 490 1491 490 1491 694 1491 c 2,27,-1
 1104 1491 l 1,28,-1
 1010 1291 l 1,29,-1
 699 1292 l 2,30,31
 567 1292 567 1292 490 1215 c 0,32,33
 405 1130 405 1130 405 999 c 0,34,35
 405 998 405 998 405 996 c 2,36,-1
 407 514 l 1,37,38
 409 372 409 372 486 292 c 0,39,40
 557 218 557 218 701 218 c 2,41,-1
 1008 218 l 1,42,-1
 1010 662 l 1,43,-1
 679 662 l 1,44,-1
 764 856 l 1,45,-1
 1208 856 l 1,46,-1
 1208 20 l 1,17,-1
EndSplineSet
Validated: 1
EndChar

StartChar: gbreve
Encoding: 287 287 225
Width: 1106
GlyphClass: 2
Flags: W
HStem: -394 192<334 672.203> 20 190<413.057 757> 910 190<417.797 757> 1287 194<405.029 680.45>
VStem: 130 196<290.143 818.187> 757 199<-119.331 20 210 910>
LayerCount: 2
Fore
SplineSet
878 1449 m 1,0,1
 819 1387 819 1387 751 1347 c 0,2,3
 649 1287 649 1287 537 1287 c 0,4,5
 422 1287 422 1287 323 1347 c 0,6,7
 260 1385 260 1385 207 1437 c 1,8,-1
 345 1575 l 1,9,10
 353 1567 353 1567 364 1557 c 0,11,12
 448 1481 448 1481 543 1481 c 0,13,14
 639 1481 639 1481 720 1556 c 2,15,-1
 732 1567 l 1,16,-1
 878 1449 l 1,0,1
326 415 m 2,17,18
 326 317 326 317 400 262 c 0,19,20
 451 224 451 224 544 210 c 1,21,-1
 758 210 l 1,22,-1
 757 910 l 1,23,-1
 546 906 l 1,24,25
 459 906 459 906 398 850 c 0,26,27
 329 786 329 786 328 689 c 2,28,-1
 326 415 l 2,17,18
757 20 m 1,29,-1
 546 20 l 2,30,31
 380 20 380 20 254 139 c 0,32,33
 130 256 130 256 130 417 c 0,34,35
 130 419 130 419 130 422 c 2,36,-1
 134 694 l 2,37,38
 137 865 137 865 256 981 c 0,39,40
 378 1100 378 1100 548 1100 c 2,41,-1
 956 1100 l 1,42,-1
 956 20 l 1,43,44
 954 -158 954 -158 834 -275 c 0,45,46
 712 -394 712 -394 542 -394 c 2,47,-1
 244 -394 l 1,48,-1
 334 -202 l 1,49,-1
 544 -200 l 2,50,51
 632 -199 632 -199 692 -144 c 1,52,53
 757 -82 757 -82 757 -10 c 2,54,-1
 757 20 l 1,29,-1
EndSplineSet
Validated: 16385
EndChar

StartChar: Gdotaccent
Encoding: 288 288 226
Width: 1408
GlyphClass: 2
Flags: W
HStem: 21 197<523.291 1008> 662 194<764 1010> 1292 199<532.376 1010> 1632 264<601.191 782.809>
VStem: 200 205<341.904 1163.55> 562 260<1671.71 1856.29> 1008 200<218 662>
LayerCount: 2
Fore
SplineSet
562 1764 m 128,-1,1
 562 1819 562 1819 600 1857.5 c 128,-1,2
 638 1896 638 1896 692 1896 c 128,-1,3
 746 1896 746 1896 784 1857.5 c 128,-1,4
 822 1819 822 1819 822 1764 c 128,-1,5
 822 1709 822 1709 784 1670.5 c 128,-1,6
 746 1632 746 1632 692 1632 c 128,-1,7
 638 1632 638 1632 600 1670.5 c 128,-1,0
 562 1709 562 1709 562 1764 c 128,-1,1
1208 20 m 1,8,-1
 694 21 l 2,9,10
 490 21 490 21 345 166 c 0,11,12
 204 307 204 307 201 514 c 1,13,-1
 200 997 l 2,14,15
 200 1201 200 1201 345 1346 c 256,16,17
 490 1491 490 1491 694 1491 c 2,18,-1
 1104 1491 l 1,19,-1
 1010 1291 l 1,20,-1
 699 1292 l 2,21,22
 567 1292 567 1292 490 1215 c 0,23,24
 405 1130 405 1130 405 999 c 0,25,26
 405 998 405 998 405 996 c 2,27,-1
 407 514 l 1,28,29
 409 372 409 372 486 292 c 0,30,31
 557 218 557 218 701 218 c 2,32,-1
 1008 218 l 1,33,-1
 1010 662 l 1,34,-1
 679 662 l 1,35,-1
 764 856 l 1,36,-1
 1208 856 l 1,37,-1
 1208 20 l 1,8,-1
EndSplineSet
Validated: 1
EndChar

StartChar: gdotaccent
Encoding: 289 289 227
Width: 1106
GlyphClass: 2
Flags: W
HStem: -394 192<334 672.203> 20 190<413.057 757> 910 190<417.797 757> 1246 264<449.191 630.809>
VStem: 130 196<290.143 818.187> 410 260<1285.71 1470.29> 757 199<-119.331 20 210 910>
LayerCount: 2
Fore
SplineSet
410 1378 m 128,-1,1
 410 1433 410 1433 448 1471.5 c 128,-1,2
 486 1510 486 1510 540 1510 c 128,-1,3
 594 1510 594 1510 632 1471.5 c 128,-1,4
 670 1433 670 1433 670 1378 c 128,-1,5
 670 1323 670 1323 632 1284.5 c 128,-1,6
 594 1246 594 1246 540 1246 c 128,-1,7
 486 1246 486 1246 448 1284.5 c 128,-1,0
 410 1323 410 1323 410 1378 c 128,-1,1
326 415 m 2,8,9
 326 317 326 317 400 262 c 0,10,11
 451 224 451 224 544 210 c 1,12,-1
 758 210 l 1,13,-1
 757 910 l 1,14,-1
 546 906 l 1,15,16
 459 906 459 906 398 850 c 0,17,18
 329 786 329 786 328 689 c 2,19,-1
 326 415 l 2,8,9
757 20 m 1,20,-1
 546 20 l 2,21,22
 380 20 380 20 254 139 c 0,23,24
 130 256 130 256 130 417 c 0,25,26
 130 419 130 419 130 422 c 2,27,-1
 134 694 l 2,28,29
 137 865 137 865 256 981 c 0,30,31
 378 1100 378 1100 548 1100 c 2,32,-1
 956 1100 l 1,33,-1
 956 20 l 1,34,35
 954 -158 954 -158 834 -275 c 0,36,37
 712 -394 712 -394 542 -394 c 2,38,-1
 244 -394 l 1,39,-1
 334 -202 l 1,40,-1
 544 -200 l 2,41,42
 632 -199 632 -199 692 -144 c 1,43,44
 757 -82 757 -82 757 -10 c 2,45,-1
 757 20 l 1,20,-1
EndSplineSet
Validated: 16385
EndChar

StartChar: Gcommaaccent
Encoding: 290 290 228
Width: 1408
GlyphClass: 2
Flags: W
HStem: -405 21G<489.365 534.186> 21 197<523.291 1008> 662 194<764 1010> 1292 199<532.376 1010>
VStem: 200 205<341.904 1163.55> 1008 200<218 662>
DStem2: 380 -279 510 -405 0.770645 0.637264<19.8886 404.856>
LayerCount: 2
Fore
SplineSet
692 -21 m 1,0,-1
 822 -147 l 1,1,-1
 510 -405 l 1,2,-1
 380 -279 l 1,3,-1
 692 -21 l 1,0,-1
1208 20 m 1,4,-1
 694 21 l 2,5,6
 490 21 490 21 345 166 c 0,7,8
 204 307 204 307 201 514 c 1,9,-1
 200 997 l 2,10,11
 200 1201 200 1201 345 1346 c 256,12,13
 490 1491 490 1491 694 1491 c 2,14,-1
 1104 1491 l 1,15,-1
 1010 1291 l 1,16,-1
 699 1292 l 2,17,18
 567 1292 567 1292 490 1215 c 0,19,20
 405 1130 405 1130 405 999 c 0,21,22
 405 998 405 998 405 996 c 2,23,-1
 407 514 l 1,24,25
 409 372 409 372 486 292 c 0,26,27
 557 218 557 218 701 218 c 2,28,-1
 1008 218 l 1,29,-1
 1010 662 l 1,30,-1
 679 662 l 1,31,-1
 764 856 l 1,32,-1
 1208 856 l 1,33,-1
 1208 20 l 1,4,-1
EndSplineSet
Validated: 1
EndChar

StartChar: gcommaaccent
Encoding: 291 291 229
Width: 1106
GlyphClass: 2
Flags: W
HStem: -394 192<334 672.203> 20 190<413.057 757> 910 190<417.797 757>
VStem: 130 196<290.143 818.187> 757 199<-119.331 20 210 910>
DStem2: 410 1314 540 1188 0.770645 0.637264<19.8886 404.856>
LayerCount: 2
Fore
SplineSet
722 1572 m 1,0,-1
 852 1446 l 1,1,-1
 540 1188 l 1,2,-1
 410 1314 l 1,3,-1
 722 1572 l 1,0,-1
326 415 m 2,4,5
 326 317 326 317 400 262 c 0,6,7
 451 224 451 224 544 210 c 1,8,-1
 758 210 l 1,9,-1
 757 910 l 1,10,-1
 546 906 l 1,11,12
 459 906 459 906 398 850 c 0,13,14
 329 786 329 786 328 689 c 2,15,-1
 326 415 l 2,4,5
757 20 m 1,16,-1
 546 20 l 2,17,18
 380 20 380 20 254 139 c 0,19,20
 130 256 130 256 130 417 c 0,21,22
 130 419 130 419 130 422 c 2,23,-1
 134 694 l 2,24,25
 137 865 137 865 256 981 c 0,26,27
 378 1100 378 1100 548 1100 c 2,28,-1
 956 1100 l 1,29,-1
 956 20 l 1,30,31
 954 -158 954 -158 834 -275 c 0,32,33
 712 -394 712 -394 542 -394 c 2,34,-1
 244 -394 l 1,35,-1
 334 -202 l 1,36,-1
 544 -200 l 2,37,38
 632 -199 632 -199 692 -144 c 1,39,40
 757 -82 757 -82 757 -10 c 2,41,-1
 757 20 l 1,16,-1
EndSplineSet
Validated: 16385
EndChar

StartChar: Hcircumflex
Encoding: 292 292 230
Width: 1404
GlyphClass: 2
Flags: W
HStem: 0 21G<200 243.043 1005.94 1049.04> 669 190<398 1004> 1492 20G<354 398 1160 1204> 1750 233<584.5 817.5>
VStem: 200 198<92 669 859 1422> 1006 198<92 668 858 1422>
LayerCount: 2
Fore
SplineSet
883 1599 m 1,0,-1
 701 1750 l 1,1,-1
 519 1599 l 1,2,-1
 389 1725 l 1,3,-1
 701 1983 l 1,4,-1
 1013 1725 l 1,5,-1
 883 1599 l 1,0,-1
398 92 m 1,6,-1
 200 0 l 1,7,-1
 200 1422 l 1,8,-1
 398 1512 l 1,9,-1
 398 859 l 1,10,-1
 1008 858 l 1,11,-1
 1006 1422 l 1,12,-1
 1204 1512 l 1,13,-1
 1204 92 l 1,14,-1
 1006 0 l 1,15,-1
 1004 668 l 1,16,-1
 396 669 l 1,17,-1
 398 92 l 1,6,-1
EndSplineSet
Validated: 1
EndChar

StartChar: hcircumflex
Encoding: 293 293 231
Width: 1164
GlyphClass: 2
Flags: W
HStem: 0 21G<209.972 253.043 836 879.043> 908 192<408 746.203> 1491 20G<363.556 408> 1750 233<200.5 433.5>
VStem: 210 198<92 908 1100 1421> 836 198<92 822.638>
LayerCount: 2
Fore
SplineSet
499 1599 m 1,0,-1
 317 1750 l 1,1,-1
 135 1599 l 1,2,-1
 5 1725 l 1,3,-1
 317 1983 l 1,4,-1
 629 1725 l 1,5,-1
 499 1599 l 1,0,-1
208 1421 m 1,6,-1
 408 1511 l 1,7,-1
 408 1100 l 1,8,-1
 616 1100 l 2,9,10
 786 1100 786 1100 908 981 c 0,11,12
 1028 864 1028 864 1030 694 c 2,13,-1
 1034 422 l 1,14,-1
 1034 92 l 1,15,-1
 836 0 l 1,16,-1
 836 418 l 1,17,-1
 836 689 l 2,18,19
 836 786 836 786 766 850 c 0,20,21
 706 905 706 905 618 906 c 2,22,-1
 408 908 l 1,23,-1
 408 92 l 1,24,-1
 210 0 l 1,25,-1
 208 1421 l 1,6,-1
EndSplineSet
Validated: 1
EndChar

StartChar: Hbar
Encoding: 294 294 232
Width: 1404
GlyphClass: 2
Flags: W
HStem: 0 21G<200 243.043 1005.94 1049.04> 669 190<398 1004> 1062 187<138 200 398 1007 1204 1261> 1492 20G<354 398 1160 1204>
VStem: 200 198<92 669 859 1062 1249 1422> 1006 198<92 668 858 1061 1248 1422>
LayerCount: 2
Fore
SplineSet
398 92 m 1,0,-1
 200 0 l 1,1,-1
 200 1062 l 1,2,-1
 51 1062 l 1,3,-1
 138 1249 l 1,4,-1
 200 1249 l 1,5,-1
 200 1422 l 1,6,-1
 398 1512 l 1,7,-1
 398 1249 l 1,8,-1
 1007 1248 l 1,9,-1
 1006 1422 l 1,10,-1
 1204 1512 l 1,11,-1
 1204 1248 l 1,12,-1
 1350 1248 l 1,13,-1
 1261 1061 l 1,14,-1
 1204 1061 l 1,15,-1
 1204 92 l 1,16,-1
 1006 0 l 1,17,-1
 1004 668 l 1,18,-1
 396 669 l 1,19,-1
 398 92 l 1,0,-1
1007 1061 m 1,20,-1
 398 1062 l 1,21,-1
 398 859 l 1,22,-1
 1008 858 l 1,23,-1
 1007 1061 l 1,20,-1
EndSplineSet
Validated: 1
EndChar

StartChar: hbar
Encoding: 295 295 233
Width: 1106
GlyphClass: 2
Flags: W
HStem: 0 21G<151.966 195.043 778 821.043> 908 192<350 688.203> 1190 187<92 150 350 610> 1491 20G<305.556 350>
VStem: 150 200<92 908 1100 1190 1377 1421> 778 198<92 822.638>
LayerCount: 2
Fore
SplineSet
150 1421 m 1,0,-1
 350 1511 l 1,1,-1
 350 1377 l 1,2,-1
 699 1377 l 1,3,-1
 610 1190 l 1,4,-1
 350 1190 l 1,5,-1
 350 1100 l 1,6,-1
 558 1100 l 2,7,8
 728 1100 728 1100 850 981 c 0,9,10
 969 864 969 864 972 694 c 2,11,-1
 976 422 l 1,12,-1
 976 92 l 1,13,-1
 778 0 l 1,14,-1
 778 418 l 1,15,-1
 778 689 l 2,16,17
 778 786 778 786 708 850 c 0,18,19
 648 905 648 905 560 906 c 2,20,-1
 350 908 l 1,21,-1
 350 92 l 1,22,-1
 152 0 l 1,23,-1
 150 1190 l 1,24,-1
 5 1190 l 1,25,-1
 92 1377 l 1,26,-1
 150 1377 l 1,27,-1
 150 1421 l 1,0,-1
EndSplineSet
Validated: 1
EndChar

StartChar: Itilde
Encoding: 296 296 234
Width: 816
GlyphClass: 2
Flags: W
HStem: 0 21G<310 353.043> 1491 20G<464 508>
VStem: 310 198<92 1421>
LayerCount: 2
Fore
SplineSet
681 2001 m 1,0,-1
 811 1875 l 1,1,-1
 499 1617 l 1,2,-1
 317 1768 l 1,3,-1
 135 1617 l 1,4,-1
 5 1743 l 1,5,-1
 317 2001 l 1,6,-1
 499 1850 l 1,7,-1
 681 2001 l 1,0,-1
508 92 m 1,8,-1
 310 0 l 1,9,-1
 310 1421 l 1,10,-1
 508 1511 l 1,11,-1
 508 92 l 1,8,-1
EndSplineSet
Validated: 1
EndChar

StartChar: itilde
Encoding: 297 297 235
Width: 816
GlyphClass: 2
Flags: W
HStem: 0 21G<307 350.043> 1100 20G<462.556 506.961>
VStem: 307 198<92 1030>
LayerCount: 2
Fore
SplineSet
681 1593 m 1,0,-1
 811 1467 l 1,1,-1
 499 1209 l 1,2,-1
 317 1360 l 1,3,-1
 135 1209 l 1,4,-1
 5 1335 l 1,5,-1
 317 1593 l 1,6,-1
 499 1442 l 1,7,-1
 681 1593 l 1,0,-1
307 1030 m 1,8,-1
 507 1120 l 1,9,-1
 505 92 l 1,10,-1
 307 0 l 1,11,-1
 307 1030 l 1,8,-1
EndSplineSet
Validated: 1
EndChar

StartChar: Imacron
Encoding: 298 298 236
Width: 657
GlyphClass: 2
Flags: W
HStem: 0 21G<230 273.043> 1491 20G<384 428> 1707 187<92 563>
VStem: 230 198<92 1421>
LayerCount: 2
Fore
SplineSet
92 1894 m 1,0,-1
 652 1894 l 1,1,-1
 563 1707 l 1,2,-1
 5 1707 l 1,3,-1
 92 1894 l 1,0,-1
428 92 m 1,4,-1
 230 0 l 1,5,-1
 230 1421 l 1,6,-1
 428 1511 l 1,7,-1
 428 92 l 1,4,-1
EndSplineSet
Validated: 1
EndChar

